<svg width="454" height="432" viewBox="0 0 454 432" fill="none" xmlns="http://www.w3.org/2000/svg">
<path d="M0 218.195V212.494C5.20286 215.943 4.69017 210.07 5.26932 208.522C8.64928 199.304 11.1842 189.783 14.4408 180.518C18.6183 168.63 23.2515 156.904 27.6283 145.083C31.2804 135.22 34.8946 125.344 38.4708 115.455C39.8569 111.654 42.0501 107.853 42.202 103.947C42.3444 100.289 43.6831 99.5951 46.5219 99.4146C51.8102 102.712 57.1555 105.924 62.3773 109.326C71.8716 115.474 81.233 121.774 90.7272 127.893C92.2368 128.844 94.1642 129.186 95.8921 129.794L97.791 130.744C100.829 133.3 103.535 136.541 106.981 138.27C113.485 141.539 114.89 146.689 114.643 153.236C114.264 163.417 114.07 173.597 114.064 183.777C114.064 200.254 114.292 216.722 114.415 233.19C114.472 239.775 114.586 246.351 114.567 252.936C114.567 258.514 114.283 264.082 114.339 269.651C114.396 275.932 114.7 282.203 114.89 288.475V289.425C112.251 287.164 110.418 289.425 108.491 290.651C104.845 293.055 101.332 295.659 97.6675 298.016C89.7778 303.08 81.7646 307.955 73.9319 313.077C65.6529 318.474 57.3928 323.929 49.3322 329.649C45.3636 332.5 43.911 330.799 42.5058 327.141C40.1702 321.183 37.5878 315.329 35.1288 309.418C33.0685 304.183 30.9608 298.966 28.9765 293.711C27.6758 290.271 26.565 286.755 25.3782 283.258C21.9128 273.148 18.4948 263.028 14.9345 252.936C12.4565 245.876 10.0449 238.777 7.15868 231.888C5.19336 227.165 2.42104 222.756 0 218.195Z" fill="#30107F"/>
<path d="M0 218.195C2.42104 222.756 5.19336 227.165 7.18716 231.907C10.0354 238.796 12.485 245.895 14.963 252.955C18.4948 263.047 21.9128 273.167 25.4067 283.277C26.5934 286.755 27.7043 290.271 29.005 293.73C30.9893 298.994 33.097 304.183 35.1573 309.438C35.3377 311.091 35.2237 312.849 35.7649 314.369C38.2144 321.297 40.8443 328.157 43.7496 335.93C48.3258 333.213 53.1584 330.571 57.7441 327.549C69.8398 319.577 81.7741 311.338 93.8888 303.394C100.772 298.88 107.893 294.737 114.909 290.433L117.757 294.234C113.808 296.077 109.621 297.55 105.947 299.831C96.813 305.532 87.9074 311.557 78.9353 317.467C70.9127 322.75 62.9945 328.214 54.8484 333.298C50.8798 335.769 47.3194 339.503 41.9552 338.895L21.9318 283.173C18.3334 273.119 11.2127 253.934 1.89885 227.431C1.10134 225.141 0.436736 223.25 0 221.977V218.195Z" fill="#2E107A"/>
<path d="M292.1 1.03583L294.521 1.98607L290.524 2.4897C288.625 4.08611 286.005 5.34043 285.141 7.36445C283.688 10.7283 283.46 14.5958 282.606 18.2257C278.628 35.2161 274.27 52.121 270.776 69.1968C269.494 75.4589 266.713 78.8418 260.779 80.6948C242.293 86.4723 223.903 92.5253 205.474 98.4834C194.55 102.018 183.625 105.553 172.7 109.088C159.845 113.26 146.98 117.422 134.154 121.679C130.669 122.838 129.957 125.537 131.97 128.872V130.773L130.071 133.623H129.122V131.723C129.122 130.459 129.226 129.176 129.122 127.922C128.675 123.332 130.299 120.424 135.122 119.37C138.625 118.581 141.996 117.156 145.423 116.015C163.766 109.896 182.081 103.662 200.49 97.6947C220.998 91.0429 241.553 84.5433 262.127 78.0911C265.592 77.0078 267.225 74.9363 267.823 71.4394C268.773 66.023 270.036 60.6636 271.279 55.2853C274.821 40.1384 278.286 24.963 282.112 9.8826C282.862 6.92734 285.093 4.35218 286.65 1.59647L286.821 1.46344L288.901 0.883789L292.1 1.03583Z" fill="#7129FD"/>
<path d="M9.29489 183.644C13.0483 175.224 16.2576 166.572 18.9031 157.741C26.9827 130.621 33.7236 116.234 41.8317 93.8367C42.259 92.6584 43.6072 91.8032 44.5281 90.7959L45.5725 93.7036C45.5725 94.3403 45.5725 94.977 45.5725 95.6041C45.8953 96.868 46.2086 98.1318 46.5219 99.4051C43.6736 99.5857 42.3444 100.279 42.202 103.938C42.0501 107.815 39.8569 111.625 38.4708 115.445C34.8819 125.328 31.2678 135.204 27.6283 145.074C23.2515 156.895 18.6183 168.621 14.4408 180.508C11.1842 189.773 8.64928 199.295 5.26932 208.512C4.69017 210.061 5.20286 215.934 0 212.484C3.09513 202.874 6.19343 193.261 9.29489 183.644Z" fill="#321183"/>
<path d="M161.402 0.722207L170.469 0.551163C227.501 -0.70316 247.905 0.551163 281.438 0.627182C283.242 0.763116 285.032 1.03952 286.793 1.45389L286.622 1.58693C281.097 1.78648 275.571 2.15708 270.055 2.13807C257.475 2.13807 244.904 1.77698 232.334 1.75797C220.628 1.75797 208.931 1.94802 197.205 2.09056C188.252 2.19509 179.29 2.50867 170.336 2.40414C167.365 2.36613 164.384 1.31136 161.402 0.722207Z" fill="#6A23FD"/>
<path d="M154.756 430.1C149.06 426.546 143.107 423.391 137.78 419.381C111.083 399.283 84.565 378.967 58.0285 358.717C57.689 358.404 57.3717 358.067 57.0791 357.71C60.5255 355.904 64.1998 354.451 67.3519 352.227C73.9979 347.561 81.5268 344.388 87.4703 338.411C91.5528 334.296 97.4487 331.987 102.538 328.861C106.582 326.371 110.693 323.967 114.624 321.306C115.649 320.612 116.133 319.102 116.865 317.971L118.289 319.539C120.995 317.847 123.548 316.213 126.131 314.626C127.84 313.581 129.653 311.68 131.296 311.775C134.03 311.975 136.622 313.676 139.347 314.436C145.756 316.336 152.202 318.056 158.639 319.852H159.589C160.158 320.508 160.595 321.525 161.298 321.753C171.143 324.984 181.017 328.119 190.891 331.255C199.56 334.02 208.266 336.672 216.906 339.541C222.868 341.527 228.688 343.96 234.66 345.908C241.714 348.227 248.816 350.46 256.003 352.322C261.481 353.738 267.149 354.422 272.694 355.6C274.697 356.028 277.261 356.38 278.391 357.748C279.881 359.553 280.356 362.281 280.963 364.694C281.296 366.044 281.02 367.545 281.02 369.35C283.147 370.234 286.233 381.219 284.818 385.096L287.666 387.263L286.394 387.519V395.349H287.344L288.293 393.914C289.081 395.525 289.481 397.299 289.461 399.093C289.698 402.733 288.844 407.056 290.524 409.84C292.936 413.85 292.831 417.756 293.306 421.927C293.657 425.101 294.844 428.247 299.477 427.106C300.797 426.783 302.411 427.638 303.883 427.952L299.069 430.109C298.3 429.567 297.55 428.589 296.762 428.56C290.894 428.37 285.008 428.266 279.141 428.342C270.786 428.446 262.45 428.902 254.104 428.893C241.496 428.893 228.897 428.437 216.288 428.408C200.56 428.37 184.821 428.471 169.073 428.712C164.298 428.798 159.503 429.615 154.756 430.1Z" fill="#260D66"/>
<path d="M415.972 325.934C413.893 331.854 411.899 337.812 409.658 343.665C409.098 345.119 407.759 346.26 406.725 347.542L384.517 363.583C383.531 363.994 382.579 364.484 381.669 365.046C375.327 369.598 369.013 374.197 362.681 378.786C361.94 377.076 361.19 375.375 360.554 373.893L354.696 375.042C354.772 376.097 354.857 377.247 354.905 377.893L359.272 378.558L353.946 384.421C353.063 385.372 352.171 386.379 351.288 387.367L350.338 388.317L345.705 387.291C346.939 393.059 343.084 392.042 339.211 391.197L341.252 394.114L336.505 396.547L338.024 393.012C337.179 393.202 336.125 393.116 335.764 393.572C333.21 396.737 330.495 395.805 327.599 394.19C324.001 392.194 320.773 392.613 318.105 395.919C318.608 394.237 319.111 392.565 319.634 390.845C315.485 389.296 312.409 393.401 313.396 399.796L307.699 400.671C303.902 383.804 300.104 366.927 296.135 350.118C295.87 348.996 293.752 348.331 292.499 347.457L296.297 343.656C296.297 343.333 296.297 343.019 296.297 342.706C297.436 341.964 298.898 341.47 299.667 340.454C305.411 332.852 311.003 325.25 316.662 317.572C317.744 316.108 318.903 314.721 320.023 313.248L325.558 315.69C325.681 313.324 325.824 310.492 325.976 307.67L327.03 307.385C327.78 309.96 328.52 312.535 329.527 316.013C331.255 317.106 333.666 317.363 336.476 314.835C337.426 313.951 341.85 314.835 341.888 315.225C342.24 318.779 344.651 317.895 345.961 316.878C347.034 316.042 347.471 313.961 347.566 312.402C347.661 310.844 346.939 309.4 346.493 307.927C346.408 307.642 345.933 307.49 345.24 306.976C345.135 308.706 345.059 309.951 344.983 311.196C339.591 310.882 333.372 304.933 332.584 299.793C331.331 301.275 330.011 302.852 328.691 304.43L327.618 303.594L334.264 292.343C335.935 289.872 337.72 287.468 339.258 284.921C341.157 281.748 342.895 278.469 344.708 275.229L353.253 263.826L359.899 256.224L364.361 262.192C369.963 259.768 370.903 255.046 368.662 249.382C370.238 248.993 371.51 248.356 372.669 248.432C376.163 248.727 377.985 248.194 376.751 243.918C376.087 241.628 379.41 239.072 380.179 239.861C382.818 242.616 382.723 238.502 385.011 238.559C383.407 241.41 382.115 243.652 380.834 245.923L382.562 247.33C384.831 245.344 387.983 243.766 389.141 241.267C390.451 238.416 389.977 234.786 390.281 231.489C396.585 231.831 402.889 232.145 409.184 232.515C411.291 232.639 413.39 233.086 415.488 233.038C424.982 232.829 434.476 232.458 443.923 232.278C444.512 232.278 445.129 233.314 444.986 233.228L450.256 230.928C439.913 262.071 428.72 293.48 416.675 325.155C415.345 328.633 414.016 332.095 412.687 335.541C413.365 329.868 414.485 324.257 416.038 318.76C416.76 316.222 417.539 313.828 418.355 311.566L410.541 305.247C411.548 304.002 412.545 302.776 413.532 301.541L412.687 300.401L407.275 303.042C407.494 303.347 407.275 302.862 406.952 302.634C406.63 302.406 406.174 302.634 405.481 302.634C405.576 306.625 404.674 310.73 409.392 312.992L407.494 315.158L399.898 305.019C396.309 307.48 395.151 307.024 392.986 301.608C391.486 305.2 390.233 308.174 388.42 312.497C392.683 310.036 395.911 306.72 399.12 310.597C398.616 312.203 398.17 313.552 397.79 314.902L399.604 314.227C400.267 315.334 400.986 316.406 401.759 317.439C402.803 318.722 404.55 319.71 404.997 321.135C406.231 325.05 407.845 325.782 410.218 322.77L415.972 325.934ZM402.68 273.404L394.6 278.716L394.866 279.609L399.737 277.994C399.87 279.961 399.376 282.147 400.24 283.391C401.503 285.197 403.487 285.292 404.285 282.441L407.256 283.391C406.252 284.528 405.177 285.601 404.038 286.603C403.353 286.952 402.609 287.171 401.845 287.249C402.329 288.095 402.642 289.492 403.326 289.701C405.553 290.492 407.893 290.922 410.256 290.974C412.848 290.898 415.716 290.566 417.852 289.33C419.342 288.475 421.203 285.587 416.902 284.988C416.656 284.988 416.504 284.294 416.095 283.515L419.798 282.783L418.991 277.006L416.675 280.161L412.877 278.431C412.734 282.432 415.032 286.432 412.127 288.57C410.351 285.415 408.737 282.546 406.658 278.868L414.51 275.352C418.422 273.604 419.257 269.603 416.181 267.256C421.526 262.752 416.485 258.752 415.317 254.685C415.004 253.611 412.573 253.145 410.779 252.233L413.532 258.78L412.298 259.312L406.867 253.611L404.645 256.937L399.841 253.231L393.252 257.735L396.167 261.982L401.977 259.797L406.933 268.292H404.826V275.799L403.876 275.961L402.68 273.404Z" fill="#3A149A"/>
<path d="M303.816 427.99C302.345 427.676 300.731 426.821 299.411 427.144C294.778 428.285 293.591 425.139 293.24 421.965C292.765 417.794 292.869 413.888 290.458 409.878C288.777 407.094 289.632 402.771 289.395 399.131C289.415 397.337 289.015 395.563 288.227 393.952L287.277 395.387H286.328V387.557L287.6 387.301L284.752 385.134C286.185 381.257 283.1 370.272 280.954 369.388C280.954 367.593 281.229 366.082 280.897 364.732C280.29 362.319 279.815 359.591 278.324 357.786C277.204 356.418 274.64 356.066 272.628 355.638C267.083 354.46 261.415 353.738 255.937 352.36C248.75 350.46 241.648 348.265 234.594 345.946C228.622 343.998 222.802 341.565 216.839 339.579C208.2 336.729 199.493 334.058 190.825 331.293C180.951 328.148 171.077 325.012 161.231 321.791C160.529 321.563 160.092 320.546 159.522 319.89C163.842 320.974 168.134 322.152 172.482 323.102C174.478 323.423 176.491 323.62 178.511 323.691C180.182 324.337 181.834 325.069 183.533 325.592C190.967 328.015 198.458 330.267 205.854 332.804C215.254 336.044 224.539 339.598 233.939 342.82C242.132 345.67 250.354 348.388 258.624 350.802C266.827 353.17 275.343 354.276 283.878 354.08C284.524 354.812 285.53 355.458 285.777 356.304C286.917 360.694 287.771 365.16 288.872 369.607C290.629 376.62 292.67 383.566 294.313 390.598C296.753 400.785 298.974 411.028 301.357 421.234C302.069 424.265 303.664 425.709 306.693 423.486H309.655L303.816 427.99Z" fill="#270D67"/>
<path d="M307.234 7.87756C310.472 10.0916 315.371 13.4555 321.267 17.6461C354.402 41.2121 351.649 40.6325 367.599 52.8716C379.625 62.1207 391.594 71.4647 403.506 80.9038C404.769 81.8541 405.472 83.593 406.43 84.9614C406.606 85.882 406.831 86.7923 407.105 87.6886C413.086 104.451 419.08 121.201 425.087 137.938C431.79 156.581 438.521 175.219 445.281 193.85C446.572 197.461 447.778 201.11 449.183 205.196C445.281 205.785 442.224 206.64 439.157 206.631C422.78 206.631 406.393 206.374 390.015 206.26C387.542 206.097 385.058 206.237 382.619 206.678C380.91 207.096 379.467 208.579 377.872 209.643V208.693C378.327 208.066 379.134 207.467 379.191 206.792C379.533 203.086 381.356 201.984 385.068 202.136C391.857 202.421 398.674 202.012 405.481 202.041C411.928 202.041 418.384 202.469 424.83 202.364C431.733 202.25 438.645 201.746 445.984 201.414C444.958 197.936 444.17 195.237 443.382 192.548C440.088 183.739 436.736 174.959 433.508 166.122C429.131 154.035 424.878 141.91 420.586 129.803C417.548 121.251 414.282 112.699 411.586 104.033C407.931 92.2783 403.81 81.2269 391.743 75.0503C386.929 72.5892 382.999 68.3986 378.65 65.0157C373.22 60.7967 367.836 56.5111 362.311 52.4155C357.867 49.1182 353.12 46.2199 348.724 42.856C340.056 36.2043 331.54 29.3721 322.947 22.6349C318.798 19.385 314.621 16.1732 310.462 12.9519L308.564 11.0514L307.234 7.87756Z" fill="#762BFE"/>
<path d="M377.872 209.643C379.438 208.617 380.881 207.096 382.619 206.678C385.058 206.237 387.542 206.097 390.015 206.26C406.392 206.374 422.779 206.621 439.157 206.631C442.224 206.631 445.281 205.785 449.183 205.196C447.778 201.11 446.572 197.461 445.281 193.85C438.565 175.212 431.843 156.575 425.115 137.938C419.096 121.207 413.102 104.457 407.133 87.6886C406.859 86.7924 406.634 85.882 406.459 84.9614C409.563 91.8317 413.019 98.5689 415.706 105.601C420.957 119.332 425.818 133.205 430.774 147.041C435.73 160.876 440.515 174.598 445.414 188.329C447.17 193.251 449.041 198.136 450.863 203.039C450.75 209.576 446.667 209.824 441.426 209.747C422.941 209.472 404.456 209.747 385.97 209.576C382.305 209.576 380.274 210.707 379.799 214.394C379.163 215.021 378.536 215.658 377.9 216.295H375.052C376.314 214.546 380.036 214.043 377.9 210.593L377.872 209.643Z" fill="#6D27FC"/>
<path d="M178.493 323.672C176.473 323.601 174.459 323.404 172.464 323.083C168.115 322.133 163.824 320.954 159.504 319.871H158.555C154.235 318.018 150.01 315.69 145.557 314.436C138.712 312.535 132.075 308.354 124.556 310.91C121.09 312.089 117.701 313.761 116.78 317.971C114.995 317.904 112.745 317.134 111.52 317.971C109.089 319.577 107.475 322.399 105.073 324.071C98.5698 328.575 91.8668 332.766 85.1354 337.004C81.4137 339.37 77.1602 341.09 73.9132 343.969C69.4484 348.004 64.1035 350.939 58.3046 352.541C56.9849 352.902 56.1019 354.859 55.0196 356.085L50.2725 352.189C50.6522 351.704 51.089 350.754 51.4118 350.792C59.311 351.6 64.2575 345.471 70.1535 342.183C79.6477 336.89 88.1926 329.906 97.2121 323.729C102.254 320.27 107.475 317.077 112.488 313.581C118.65 309.276 125.078 305.979 132.901 306.53L147.142 311.281C147.142 311.842 146.972 312.849 147.142 312.887C150.513 313.894 153.988 314.588 157.301 315.738C164.403 318.332 171.429 321.03 178.493 323.672Z" fill="#280D6A"/>
<path d="M154.757 430.1C159.504 429.615 164.308 428.798 169.093 428.712C184.835 428.453 200.573 428.351 216.308 428.408C228.917 428.408 241.515 428.864 254.124 428.893C262.469 428.893 270.805 428.446 279.16 428.342C285.028 428.266 290.914 428.342 296.782 428.56C297.57 428.56 298.32 429.567 299.089 430.109C295.908 430.736 292.718 431.905 289.537 431.915C247.649 432.041 205.763 432.041 163.881 431.915C160.824 431.905 157.786 430.736 154.757 430.1Z" fill="#260D63"/>
<path d="M377.871 216.295C378.508 215.658 379.134 215.021 379.77 214.394C381.669 211.905 384.166 211.334 387.185 211.486C392.398 211.752 397.629 211.724 402.851 211.733C418.485 211.733 434.097 211.733 449.686 211.733C450.446 209.633 451.129 207.752 451.822 205.861L452.772 214.413C449.468 215.05 446.126 216.2 442.85 216.228C423.938 216.399 405.035 216.228 386.132 216.399C384.328 216.399 382.543 217.577 380.748 218.205L366.507 220.105V219.155L377.871 216.295Z" fill="#6624FD"/>
<path d="M132.92 306.568C125.097 305.979 118.679 309.314 112.507 313.619C107.494 317.125 102.272 320.27 97.231 323.767C88.2209 329.944 79.6761 336.928 70.1723 342.221C64.2764 345.509 59.3298 351.638 51.4306 350.83C51.1078 350.83 50.6711 351.78 50.2913 352.227L46.6455 348.379C51.7724 349.063 55.9784 347.324 59.9944 344.093C63.0801 341.613 66.8113 339.95 70.2578 337.926C70.6375 338.116 71.2072 338.572 71.3686 338.458C75.3752 335.968 79.4482 333.555 83.2744 330.809C85.6947 328.877 88.0054 326.812 90.1957 324.622C94.4681 320.736 99.8799 318.512 104.238 314.645C107.618 311.633 111.947 309.732 115.631 307.043C118.154 305.288 121.133 304.308 124.205 304.223C127.276 304.139 130.305 304.954 132.92 306.568Z" fill="#290E6C"/>
<path d="M132.919 306.568C130.305 304.953 127.277 304.136 124.205 304.219C121.134 304.301 118.154 305.28 115.63 307.033C111.947 309.732 107.617 311.633 104.237 314.635C99.8794 318.503 94.4676 320.727 90.1952 324.613C87.176 325.981 83.8815 326.96 81.2041 328.823C77.321 331.521 73.8841 334.857 70.2573 337.916C66.8108 339.94 63.0796 341.603 59.994 344.084C55.9779 347.314 51.7719 349.053 46.645 348.369C46.5786 348.246 46.5216 348.113 46.4551 347.98C46.2306 347.521 46.0371 347.048 45.876 346.564C46.8016 346.532 47.7228 346.421 48.6293 346.231C48.8684 346.146 49.1172 346.092 49.3699 346.07C52.4555 346.022 54.4018 344.796 55.0664 341.717C56.4621 341.508 58.1141 341.717 59.2059 341.014C66.8013 336.139 74.3968 331.065 81.9922 326.067C90.537 320.441 99.0819 314.902 107.465 309.191C113.769 304.924 119.979 300.638 128.22 302.757C132.815 304.335 137.429 305.855 141.977 307.509C145.034 308.639 148.006 310.008 151.006 311.31H147.208L132.919 306.568Z" fill="#2A0E6F"/>
<path d="M41.9268 338.876C47.291 339.484 50.8514 335.75 54.82 333.279C62.9661 328.195 70.8843 322.731 78.9069 317.448C87.879 311.538 96.7846 305.494 105.918 299.812C109.592 297.531 113.779 296.058 117.729 294.215L120.577 297.065C117.634 297.788 114.349 297.892 111.824 299.346C105.339 303.071 99.1012 307.261 92.9395 311.528C89.3126 314.046 86.0371 317.068 82.6002 319.871L72.1565 326.523C70.5835 327.136 69.0572 327.864 67.5898 328.699C59.9089 333.811 52.6458 339.655 43.3889 341.841L41.9268 338.876Z" fill="#2D0F77"/>
<path d="M452.877 222.927L451.813 226.728C448.918 227.679 446.031 229.408 443.117 229.446C423.701 229.684 404.276 229.541 384.85 229.608C382.835 229.77 380.835 230.088 378.869 230.558C377.559 231.404 375.945 232.012 374.986 233.161C372.641 235.955 370.59 239.015 368.425 241.961H366.526C369.432 236.497 371.891 230.672 377.919 227.707C380.386 227.241 382.878 226.923 385.382 226.757C404.2 226.681 423.036 226.614 441.854 226.757C446.126 226.871 449.896 226.339 452.877 222.927Z" fill="#4417B6"/>
<path d="M290.524 2.48973L293.373 1.69153C295.948 2.24012 298.461 3.0488 300.873 4.10515C302.883 4.98364 304.814 6.03274 306.646 7.24095H303.816L295.271 4.39022C292.831 4.23818 290.667 4.18117 289.926 7.431C287.885 16.4203 285.54 25.3431 283.432 34.3229C280.052 48.7191 276.786 63.1438 273.435 77.559H272.485L269.637 78.5093H268.688C270.273 74.7083 272.409 71.0214 273.359 67.1063C277.394 50.306 280.907 33.3822 284.97 16.6009C286.147 11.6976 285.777 6.01514 290.524 2.48973Z" fill="#7B2DFE"/>
<path d="M55.0664 356.123C56.1488 354.897 57.0317 352.94 58.3514 352.579C64.1742 350.962 69.5367 348 74.0075 343.931C77.2545 341.081 81.5079 339.332 85.2297 336.966C91.8757 332.728 98.6166 328.537 105.168 324.033C107.57 322.361 109.184 319.539 111.614 317.933C112.839 317.135 115.089 317.933 116.874 317.933C116.143 319.064 115.659 320.574 114.633 321.268C110.703 323.929 106.592 326.333 102.547 328.823C97.4583 331.949 91.5624 334.258 87.4798 338.373C81.5364 344.35 73.998 347.523 67.3615 352.189C64.2094 354.413 60.5351 355.867 57.0887 357.672L55.0664 356.123Z" fill="#270D67"/>
<path d="M452.876 222.927C449.942 226.339 446.173 226.871 441.853 226.823C423.036 226.643 404.199 226.709 385.381 226.823C382.877 226.99 380.385 227.307 377.919 227.774C375.735 228.99 373.324 229.931 371.406 231.48C369.025 233.603 366.762 235.855 364.627 238.226C365.528 237.345 366.305 236.344 366.934 235.252C370.96 225.208 379.827 224.21 388.676 224.068C407.18 223.764 425.704 224.001 444.208 223.935C445.873 223.77 447.519 223.452 449.126 222.984L453.047 222.034L452.876 222.927Z" fill="#4B19C6"/>
<path d="M303.816 7.24097H306.598L308.563 9.21747V11.0419C308.589 11.9953 308.532 12.9492 308.392 13.8927C303.303 35.9193 298.158 57.927 293.107 79.9632C292.309 83.4791 292.755 86.8144 296.221 88.981V90.8815L291.474 84.2298C291.493 81.338 291.689 78.4501 292.062 75.5825C292.679 72.1617 293.961 68.8643 294.73 65.4624C296.078 59.3524 297.189 53.1853 298.528 47.0562C300.939 35.7198 303.465 24.4024 305.782 13.047C306.028 11.8687 305.155 10.4623 304.832 9.16046H303.883L303.816 7.24097Z" fill="#8030FD"/>
<path d="M378.821 230.548C380.788 230.079 382.787 229.761 384.803 229.598C404.228 229.532 423.653 229.674 443.069 229.437C445.984 229.437 448.87 227.669 451.766 226.719C451.234 228.1 450.709 229.478 450.19 230.852L444.92 233.152C445.063 233.285 444.446 232.202 443.857 232.202C434.363 232.382 424.868 232.753 415.422 232.962C413.323 233.009 411.225 232.563 409.118 232.439C402.823 232.069 396.519 231.755 390.214 231.413H378.821V230.548Z" fill="#3B149C"/>
<path d="M453 221.977L449.079 222.927C437.572 222.927 426.036 222.471 414.548 222.984C401.057 223.583 387.385 220.704 374.036 225.436C371.026 226.51 368.615 227.336 367.048 230.187C366.051 231.974 364.779 233.589 363.63 235.28L361.731 236.231L368.377 224.828C369.621 224.676 370.884 224.628 372.109 224.362C379.562 222.756 386.787 220.609 394.696 220.856C411.899 221.407 429.141 221.074 446.363 220.941C447.901 220.941 449.439 219.753 450.978 219.126L451.927 217.226L453 215.278V221.977Z" fill="#531ED9"/>
<path d="M451.823 205.87C451.129 207.771 450.446 209.671 449.686 211.743C434.128 211.743 418.517 211.743 402.851 211.743C397.629 211.743 392.407 211.743 387.186 211.496C384.166 211.344 381.65 211.914 379.771 214.404C380.217 210.717 382.277 209.557 385.942 209.586C404.427 209.728 422.912 209.481 441.398 209.757C446.639 209.833 450.721 209.586 450.835 203.048C451.167 203.979 451.49 204.93 451.823 205.87Z" fill="#6A26FE"/>
<path d="M43.3887 341.841C52.6456 339.655 59.9087 333.811 67.5896 328.699C69.057 327.864 70.5833 327.136 72.1563 326.523C73.0429 326.282 73.9434 326.094 74.8527 325.962C75.204 325.962 75.5837 326.323 75.954 326.523C72.0709 329.117 68.1117 331.607 64.333 334.343C61.1335 336.653 58.1428 339.256 55.0666 341.727L44.6229 344.502L43.3887 341.841Z" fill="#2C0F73"/>
<path d="M350.338 388.289L351.288 387.339H353.187V389.334L335.243 403.531C333.823 403.938 332.446 404.482 331.131 405.156C327.647 407.351 324.286 409.736 320.868 412.054C322.132 410.69 323.466 409.393 324.865 408.168C333.353 401.507 341.851 394.912 350.338 388.289Z" fill="#34118D"/>
<path d="M452.99 215.287L451.927 217.235C430.669 217.235 409.421 217.235 388.163 217.235C385.669 217.402 383.186 217.719 380.729 218.186C382.524 217.558 384.309 216.39 386.113 216.38C405.016 216.238 423.919 216.38 442.832 216.209C446.145 216.209 449.477 215.031 452.753 214.394C452.859 214.684 452.939 214.983 452.99 215.287Z" fill="#6227F5"/>
<path d="M384.518 363.582L406.725 347.495C404 350.241 401.503 353.282 398.512 355.686C393.765 359.487 388.657 362.946 383.701 366.538L383.502 366.395C383.834 365.454 384.176 364.523 384.518 363.582Z" fill="#30117C"/>
<path d="M320.906 412.054C324.324 409.736 327.685 407.351 331.17 405.156C332.484 404.482 333.861 403.938 335.281 403.531C329.185 408.282 323.09 413.147 316.966 417.927C314.555 419.827 312.077 421.633 309.627 423.486H306.665L309.513 421.585L310.463 420.635L312.362 418.735L314.336 415.884L320.906 412.054Z" fill="#290D6E"/>
<path d="M353.187 389.334V387.339L356.035 385.438L370.276 375.936C370.276 376.287 370.276 376.639 370.276 376.99L353.187 389.334Z" fill="#290B6F"/>
<path d="M44.623 344.502L55.0667 341.727C54.4021 344.806 52.4558 346.031 49.3702 346.079C48.4208 346.079 47.4713 347.029 46.4554 347.561L44.623 344.502Z" fill="#2B0E71"/>
<path d="M370.276 376.99C370.276 376.639 370.276 376.287 370.276 375.936L383.502 366.433L383.701 366.576L370.276 376.99Z" fill="#280C6E"/>
<path d="M45.5723 95.6136C45.5723 94.977 45.5723 94.3403 45.5723 93.7131L55.0665 98.4644L70.2574 107.967L88.2965 120.32C90.9074 122.22 93.6038 124.121 96.1102 126.164C103.335 132.113 113.504 134.507 117.729 144.076V287.563H116.779C116.779 241.844 116.779 196.13 116.779 150.424C116.617 148.601 116.299 146.795 115.83 145.026C112.545 136.816 103.725 135.628 97.7907 130.773L95.8919 129.822C91.477 126.668 87.1287 123.399 82.5999 120.32C70.3143 112.053 57.9148 103.852 45.5723 95.6136Z" fill="#3B139E"/>
<path d="M120.577 297.065L117.729 294.215L114.881 290.414V288.513L116.78 289.463C121.726 296.391 128.572 300.866 136.385 303.67C152.526 309.428 168.751 314.901 185.025 320.232C194.139 323.226 203.443 325.639 212.615 328.442C220.581 330.875 228.48 333.488 236.407 336.044L239.256 336.995L250.649 341.746L240.205 339.845L185.006 322.209L150.959 311.319C147.959 310.046 144.987 308.677 141.93 307.518C137.382 305.836 132.768 304.316 128.173 302.767L124.375 299.916L120.577 297.065Z" fill="#2F0F80"/>
<path d="M114.881 289.463V290.414C107.864 294.718 100.744 298.861 93.8604 303.375C81.7458 311.319 69.8115 319.529 57.7158 327.53C53.13 330.552 48.2975 333.232 43.7212 335.911C40.816 328.138 38.1861 321.278 35.7365 314.35C35.1954 312.83 35.3093 311.072 35.1289 309.419C37.5879 315.329 40.1704 321.202 42.4775 327.179C43.8826 330.837 45.3258 332.519 49.3038 329.687C57.3645 323.986 65.6245 318.512 73.9035 313.115C81.7553 307.993 89.7684 303.118 97.6392 298.054C101.304 295.697 104.817 293.093 108.463 290.689C110.409 289.425 112.241 287.202 114.881 289.463Z" fill="#2F107D"/>
<path d="M116.779 289.463L114.88 288.513C114.691 282.242 114.387 275.97 114.33 269.689C114.273 264.12 114.548 258.552 114.558 252.974C114.558 246.389 114.463 239.813 114.406 233.228C114.282 216.751 114.054 200.283 114.054 183.815C114.054 173.641 114.247 163.461 114.634 153.275C114.88 146.727 113.475 141.577 106.972 138.308C103.525 136.579 100.819 133.338 97.7812 130.782C103.725 135.638 112.545 136.826 115.82 145.036C115.82 190.743 115.82 236.456 115.82 282.175C115.984 283.998 116.301 285.803 116.77 287.573L116.779 289.463Z" fill="#351190"/>
<path d="M45.5723 95.6136C57.9148 103.852 70.3143 112.053 82.5999 120.32C87.1002 123.351 91.4486 126.62 95.8919 129.822C94.1639 129.195 92.2366 128.872 90.727 127.922C81.2327 121.802 71.8524 115.502 62.3771 109.354C57.1553 105.952 51.81 102.702 46.5217 99.4431C46.2084 98.1413 45.8951 96.925 45.5723 95.6136Z" fill="#35118E"/>
<path d="M161.403 0.72229C164.384 1.31144 167.365 2.36621 170.356 2.40422C179.309 2.50875 188.271 2.19517 197.224 2.09064C208.931 1.9481 220.628 1.73905 232.353 1.75806C244.924 1.75806 257.494 2.10014 270.074 2.13815C275.59 2.13815 281.116 1.78656 286.641 1.58701C285.084 4.34272 282.844 6.91788 282.103 9.87314C278.306 24.9535 274.812 40.1289 271.27 55.2758C270.027 60.6257 268.764 65.985 267.814 71.4299C267.207 74.9363 265.574 77.0079 262.118 78.0817C241.544 84.5338 220.989 91.0145 200.481 97.6852C182.091 103.662 163.776 109.886 145.414 116.006C141.987 117.146 138.616 118.572 135.113 119.36C130.29 120.444 128.666 123.351 129.113 127.912C129.236 129.167 129.113 130.45 129.113 131.713L127.214 128.863C127.309 127.447 126.948 125.755 127.594 124.672C129.492 121.432 128.628 119.645 125.514 117.887C120.33 114.951 115.317 111.692 110.323 108.442C99.8797 101.638 89.4361 94.8155 79.0778 87.8787C73.6471 84.2487 68.3588 80.3717 62.5293 76.2762C64.0294 74.9268 65.0833 73.8056 66.327 72.9028C76.296 65.4909 86.3599 58.2121 96.2624 50.7241C110.13 40.2144 123.932 29.6192 137.667 18.9385C142.86 14.8999 147.788 10.5193 152.858 6.29072L157.415 1.39696L161.403 0.72229Z" fill="#6E26FE"/>
<path d="M152.858 6.29065C147.816 10.5192 142.889 14.8999 137.667 18.9384C123.919 29.6191 110.102 40.2144 96.2151 50.7241C86.3126 58.212 76.2771 65.4909 66.2797 72.9028C65.0549 73.853 64.001 74.9268 62.482 76.2761C68.3589 80.3717 73.6472 84.2487 79.0874 87.8881C89.4552 94.8249 99.8799 101.648 110.333 108.451C115.327 111.701 120.34 114.961 125.524 117.897C128.638 119.655 129.53 121.441 127.603 124.682C126.958 125.765 127.318 127.456 127.223 128.872H126.274C127.442 123.665 125.325 120.168 120.853 117.536C116.011 114.685 111.444 111.416 106.668 108.461C105.823 107.938 104.561 108.109 103.488 107.967L101.589 107.017C101.138 106.391 100.615 105.82 100.032 105.316C87.6892 97.039 75.4132 88.6198 62.8427 80.6758C59.947 78.8703 59.8141 77.2739 60.7635 74.7082L63.6118 70.9072L64.5612 69.957C72.8497 68.142 78.2425 62.3551 83.4263 56.245C83.3874 56.2145 83.3568 56.1747 83.3373 56.1292C83.3179 56.0838 83.3101 56.0341 83.3149 55.9849C83.3196 55.9357 83.3366 55.8884 83.3644 55.8475C83.3922 55.8066 83.4298 55.7734 83.4738 55.7509L87.5943 52.7196L89.3602 50.9426C90.8224 50.5435 92.5503 50.515 93.6896 49.6788C99.8799 45.1366 105.928 40.4044 112.023 35.7387C119.913 29.8947 127.765 23.9937 135.711 18.2352C141.36 14.1587 147.161 10.2722 152.858 6.29065Z" fill="#6824FD"/>
<path d="M101.589 107.017L103.488 107.967C108.463 111.701 113.372 115.521 118.441 119.123C121.632 121.384 125.087 123.18 124.518 128.055C124.385 129.205 125.648 130.497 126.274 131.723C126.91 133.937 127.537 136.161 128.173 138.375C126.626 135.524 125.211 132.55 123.492 129.822C121.774 127.095 120.359 123.893 117.9 122.221C102.539 111.806 86.987 101.781 71.4543 91.6987C70.4709 91.2647 69.4273 90.9828 68.3592 90.8625L58.8649 85.161C58.1054 85.5316 56.9661 85.9497 56.3205 85.4651C55.4565 84.8474 56.1306 83.3175 55.428 82.2437C54.9058 81.436 53.4817 80.7044 49.3896 81.2935L63.631 70.8408L60.7828 74.6418C57.2224 78.3477 57.5927 79.9347 62.5202 83.118C71.948 89.209 81.2809 95.4711 90.7752 101.42C96.5951 105.154 50.7948 81.5406 101.589 107.017Z" fill="#6021FB"/>
<path d="M70.2579 107.967L55.067 98.4644C54.4689 97.4096 54.1176 95.6992 53.1682 95.4236C46.7216 93.3616 47.1678 88.2492 47.3957 83.1559L48.3451 82.2057C49.0287 85.294 48.6584 89.8076 50.5668 91.214C61.2478 98.816 72.4795 105.658 83.5214 112.756L109.156 129.86L112.004 131.761L115.802 136.512C114.473 135.704 113.124 134.916 111.814 134.089C104.586 129.515 97.3703 124.938 90.1674 120.358C84.9265 116.776 79.7237 113.146 74.4259 109.658C73.0989 108.951 71.702 108.385 70.2579 107.967Z" fill="#4416B6"/>
<path d="M54.165 77.6064C55.4372 80.3051 54.5637 84.3437 58.9121 85.2084C59.8615 86.3392 60.5926 87.7361 61.7604 88.5533C68.4064 93.2095 75.0524 97.7421 81.6984 102.313C85.6005 105.059 89.5786 107.71 93.3858 110.589C96.2341 112.746 98.8925 115.198 101.636 117.517C99.4052 116.101 97.1835 114.666 94.9239 113.288C89.8603 110.247 84.8188 107.222 79.7995 104.213C71.6439 98.7019 63.5833 93.0384 55.2663 87.7836C52.551 86.0731 50.9274 84.3247 51.2218 81.1319L54.165 77.6064Z" fill="#551CE2"/>
<path d="M152.858 6.29061C147.161 10.2721 141.36 14.1586 135.768 18.2447C127.821 24.0032 119.969 29.9042 112.08 35.7482L111.966 33.5626C124.308 24.1552 136.49 14.6623 148.908 5.42589C151.386 3.58241 154.605 2.71769 157.453 1.39685L152.858 6.29061Z" fill="#6422FB"/>
<path d="M51.1741 81.0369C50.8798 84.2772 52.5033 86.0256 55.2187 87.6886C63.5357 92.9434 71.5963 98.6069 79.7519 104.118V105.069H76.9036L69.3082 100.317C64.6275 97.0675 60.1082 93.5136 55.1902 90.6818C51.307 88.4393 49.4936 85.7121 50.3386 81.2934C50.595 81.1477 50.8802 81.0601 51.1741 81.0369Z" fill="#4F1AD4"/>
<path d="M83.5493 112.718C72.5075 105.62 61.2758 98.8254 50.5947 91.2235C48.6959 89.8646 49.0566 85.3035 48.373 82.2152L49.3699 81.3409C49.3699 85.351 48.6579 89.2755 53.5664 91.6701C58.4749 94.0647 62.8043 97.4286 67.3901 100.365L83.5303 111.768L83.5493 112.718Z" fill="#4717BE"/>
<path d="M111.918 33.5626L112.032 35.7482C105.937 40.4139 99.8888 45.1461 93.6985 49.6883C92.5592 50.5245 90.8502 50.553 89.3691 50.9521C92.9295 47.8068 96.3379 44.4714 100.088 41.5827C103.838 38.6939 107.959 36.2138 111.918 33.5626Z" fill="#6322FA"/>
<path d="M83.4351 56.2545C78.2513 62.3361 72.8585 68.1516 64.5605 69.9665L83.4351 56.2545Z" fill="#6322FA"/>
<path d="M47.4716 83.1559C47.2437 88.2492 46.7975 93.3615 53.2441 95.4235C54.0986 95.6991 54.4973 97.4095 55.143 98.4643L45.6487 93.7131L42.4111 92.9624L47.4716 83.1559Z" fill="#3E14A8"/>
<path d="M67.4093 100.365C62.8236 97.4286 58.4468 94.0457 53.5857 91.6701C48.7246 89.2945 49.3702 85.351 49.3702 81.3409H50.3197C49.4557 85.7596 51.2691 88.4868 55.1712 90.7294C60.0893 93.5801 64.6085 97.115 69.2892 100.365H67.4093Z" fill="#4C19CC"/>
<path d="M87.6036 52.7291C87.1617 53.552 86.6436 54.3314 86.056 55.0572C85.2546 56.0351 84.329 56.904 83.3027 57.6419C74.4414 63.7044 69.8936 66.5805 69.6594 66.2701C69.4252 65.9597 75.0047 61.2686 86.3978 52.197C92.4805 47.3824 95.5883 45.048 95.7212 45.1937C95.8541 45.3394 93.1482 47.8512 87.6036 52.7291Z" fill="#5E22F2"/>
<path d="M377.872 216.295L366.479 219.145H364.58C361.836 217.245 359.757 217.948 357.867 220.59C355.237 224.267 352.294 227.717 349.645 231.375C338.594 246.655 327.543 261.935 316.643 277.329C312.77 282.793 309.342 288.58 305.715 294.215C304.158 295.745 302.345 297.065 301.092 298.833C293.496 309.4 286.015 320.071 278.391 330.638C277.793 331.464 276.368 331.711 275.334 332.224C261.557 327.711 247.8 323.15 234.005 318.712C225.033 315.861 215.966 313.144 206.975 310.369L165.2 297.065L141.464 288.513C140.515 286.214 138.749 283.924 138.74 281.633C138.569 237.922 138.569 194.182 138.74 150.414C138.74 146.499 137.315 144.057 134.629 141.491C132.369 139.325 130.945 136.275 129.15 133.623H130.1C131.063 135.233 132.142 136.77 133.328 138.223C138.825 144.067 139.803 144.124 147.256 141.244C152.373 139.258 157.605 137.51 162.836 135.847C178.255 130.953 193.73 126.269 209.13 121.308C229.752 114.669 250.338 107.919 270.89 101.059C273.558 100.175 275.049 100.488 276.815 102.959C280.489 108.005 284.676 112.69 288.654 117.517L300.047 133.671C300.338 134.545 300.719 135.386 301.187 136.18C308.984 147.025 316.808 157.848 324.656 168.649C335.081 182.916 345.541 197.214 356.035 211.543C358.769 217.587 366.621 218.461 375.023 216.295H377.872Z" fill="#6A2CFE"/>
<path d="M290.524 2.48975C285.777 6.01515 286.148 11.6976 284.97 16.5629C280.907 33.3442 277.375 50.268 273.359 67.0683C272.409 71.0214 270.273 74.6703 268.688 78.4713C267.178 79.6781 265.839 81.322 264.13 81.9967C260.01 83.4981 255.642 84.3248 251.474 85.7216C237.328 90.4729 223.286 95.4806 209.102 100.07C190.721 106.019 172.245 111.663 153.807 117.431C147.085 119.408 140.325 121.232 133.67 123.484C132.815 123.76 132.521 125.736 131.97 126.934V128.834C129.957 125.499 130.669 122.8 134.154 121.641C146.981 117.384 159.845 113.222 172.701 109.05C183.619 105.496 194.544 101.961 205.475 98.4454C223.903 92.5254 242.294 86.4723 260.779 80.6948C266.713 78.7943 269.495 75.459 270.776 69.1969C274.27 52.0925 278.628 35.2162 282.606 18.2258C283.461 14.5959 283.688 10.7284 285.141 7.3645C286.005 5.34048 288.626 4.08616 290.524 2.48975Z" fill="#762DFD"/>
<path d="M288.626 117.469C284.647 112.642 280.46 107.967 276.786 102.911C275.02 100.488 273.53 100.175 270.862 101.011C250.297 107.846 229.71 114.596 209.102 121.261C193.702 126.221 178.226 130.906 162.808 135.799C157.576 137.462 152.364 139.211 147.227 141.197C139.774 144.048 138.797 144.048 133.299 138.175C132.113 136.722 131.034 135.185 130.071 133.576L131.97 130.725H132.92L133.869 133.576L137.667 140.228C138.54 140.598 139.566 141.472 140.268 141.273C148.813 138.821 157.472 136.379 165.969 133.604C176.109 130.288 186.106 126.525 196.237 123.152C216.384 116.5 236.562 109.946 256.772 103.491C262.877 101.591 269.115 100.08 275.334 98.3883C276.891 100.232 278.505 102.047 280.005 103.947C282.283 106.798 284.496 109.734 286.727 112.642L288.626 117.469Z" fill="#6F2FFD"/>
<path d="M129.122 133.623C130.916 136.275 132.34 139.325 134.6 141.491C137.287 144.057 138.72 146.499 138.711 150.414C138.559 194.125 138.559 237.865 138.711 281.633C138.711 283.924 140.486 286.214 141.436 288.513H138.588C137.951 286.157 136.774 283.762 136.774 281.443C136.66 237.732 136.698 194.097 136.651 150.424C136.487 148.601 136.17 146.795 135.701 145.026L128.106 139.325V138.375C127.47 136.161 126.843 133.937 126.207 131.723V128.872H127.156L129.055 131.723L129.122 133.623Z" fill="#6728FC"/>
<path d="M132.92 130.773H131.971V126.972C132.987 126.021 133.87 124.691 135.047 124.292C141.256 122.201 147.541 120.348 153.808 118.419L161.403 117.469C160.84 118.011 160.2 118.465 159.504 118.819C152.137 121.261 144.674 123.456 137.401 126.183C135.607 126.858 134.401 129.233 132.92 130.773Z" fill="#7A31FD"/>
<path d="M116.779 317.971C117.729 313.79 121.09 312.089 124.555 310.91C132.075 308.354 138.711 312.507 145.556 314.436C150.038 315.69 154.234 318.018 158.554 319.871C152.117 318.075 145.67 316.336 139.262 314.455C136.537 313.657 133.945 311.994 131.211 311.794C129.568 311.68 127.755 313.581 126.046 314.645C123.463 316.232 120.909 317.866 118.203 319.558L116.779 317.971Z" fill="#270D67"/>
<path d="M402.69 273.357L403.886 275.941L404.835 275.78V268.273H406.943L401.987 259.778L396.176 261.963L393.262 257.716L399.851 253.212L404.655 256.918L406.876 253.592L412.307 259.293L413.541 258.761L410.788 252.214C412.583 253.164 415.013 253.592 415.326 254.665C416.494 258.733 421.536 262.733 416.19 267.237C419.285 269.584 418.431 273.585 414.519 275.333L406.668 278.849C408.747 282.527 410.361 285.396 412.136 288.551C415.042 286.413 412.744 282.413 412.886 278.412L416.684 280.142L419.001 276.987L419.808 282.764L416.105 283.496C416.513 284.275 416.665 284.94 416.912 284.969C421.232 285.567 419.371 288.456 417.861 289.311C415.687 290.547 412.82 290.879 410.266 290.955C407.903 290.903 405.563 290.473 403.335 289.682C402.652 289.473 402.338 288.076 401.854 287.23C402.619 287.152 403.362 286.933 404.047 286.584C405.186 285.582 406.261 284.509 407.266 283.372L404.294 282.422C403.497 285.225 401.512 285.14 400.25 283.372C399.386 282.128 399.879 279.942 399.746 277.975L394.876 279.59L394.61 278.697L402.69 273.357Z" fill="#3B139B"/>
<path d="M320.906 412.054L314.336 415.855C312.067 416.445 310.709 416.302 310.339 413.271C309.826 409.004 308.564 404.833 307.614 400.613L313.311 399.739C312.361 393.344 315.4 389.239 319.549 390.788C318.799 392.688 318.988 393.487 319.321 393.819C319.653 394.152 319.824 394.133 320.726 394.769C320.973 394.94 321.182 395.093 321.305 395.197L316.045 396.461L321.324 400.433C321.826 399.955 322.182 399.343 322.35 398.67C322.518 397.997 322.491 397.29 322.273 396.632C322.057 396.052 321.705 395.533 321.248 395.117C320.79 394.7 320.24 394.399 319.644 394.237C320.115 393.834 320.651 393.512 321.229 393.287C322.706 392.745 324.328 392.745 325.805 393.287L327.552 394.076C329.992 395.188 331.16 395.682 332.641 395.492C332.735 395.484 332.827 395.465 332.916 395.435C334.044 395.107 335.03 394.411 335.717 393.458C336.088 393.002 337.132 393.088 337.977 392.897L336.458 396.432L341.205 394L339.164 391.082C343.037 391.928 346.892 392.983 345.658 387.177L350.291 388.203C341.803 394.855 333.306 401.421 324.856 408.082C323.471 409.336 322.152 410.662 320.906 412.054Z" fill="#3A139A"/>
<path d="M296.222 343.627L292.424 347.428L275.334 346.478C275.192 346.041 275.154 345.29 274.888 345.205C263.343 341.48 251.782 337.79 240.205 334.134L224.065 328.433C219.052 326.704 214.068 324.889 209.017 323.264C188.731 316.713 168.429 310.198 148.111 303.717C140.876 301.151 132.873 300.277 127.224 294.215V293.264L141.465 298.966C147.541 301.047 153.589 303.213 159.694 305.199C171.961 309.19 184.256 313.086 196.532 317.021C204.64 319.871 212.672 322.874 220.875 325.573C227.255 327.673 233.759 329.374 240.205 331.274L272.486 341.727H273.435C274.299 342.478 275.059 343.627 276.056 343.912C282.787 345.974 289.576 346.782 296.222 343.627Z" fill="#4115AD"/>
<path d="M378.822 231.499H390.215C389.911 234.796 390.386 238.454 389.075 241.277C387.917 243.776 384.765 245.353 382.496 247.339L380.768 245.933C382.05 243.662 383.341 241.4 384.945 238.568C382.657 238.511 382.752 242.626 380.113 239.87C379.344 239.081 376.021 241.638 376.685 243.928C377.92 248.204 376.097 248.736 372.603 248.441C371.416 248.337 370.172 248.974 368.596 249.392C370.837 255.093 369.897 259.778 364.295 262.201L359.833 256.233L368.378 243.88C369.351 243.025 370.276 242.118 371.15 241.163C373.752 237.951 376.268 234.71 378.822 231.499Z" fill="#3B139B"/>
<path d="M415.972 325.934L410.152 322.684C407.76 325.696 406.165 324.964 404.93 321.049C404.484 319.624 402.737 318.636 401.693 317.353C400.92 316.32 400.201 315.248 399.538 314.141L397.724 314.816C398.142 313.467 398.55 312.117 399.054 310.511C395.844 306.644 392.616 309.96 388.354 312.412C390.167 308.088 391.42 305.114 392.92 301.522C395.132 306.938 396.243 307.394 399.832 304.933L407.427 315.072L409.326 312.906C404.579 310.644 405.529 306.539 405.415 302.548C406.108 302.548 406.601 302.406 406.886 302.548C407.171 302.691 407.427 303.261 407.209 302.957L412.621 300.315L413.466 301.455C412.516 302.691 411.482 303.917 410.475 305.161L418.289 311.481C416.515 316.083 415.726 321.007 415.972 325.934Z" fill="#3B139B"/>
<path d="M334.198 292.314L327.552 303.565L328.625 304.401C329.945 302.824 331.265 301.247 332.518 299.764C333.306 304.905 339.525 310.853 344.917 311.167C344.993 309.922 345.069 308.677 345.174 306.948C345.867 307.461 346.342 307.613 346.427 307.898C346.873 309.371 347.576 310.901 347.5 312.374C347.424 313.847 346.968 316.013 345.895 316.85C344.585 317.866 342.174 318.75 341.822 315.196C341.822 314.835 337.398 313.923 336.411 314.807C333.562 317.334 331.189 317.078 329.461 315.985C328.454 312.507 327.714 309.932 326.964 307.357L325.91 307.642C325.758 310.492 325.616 313.296 325.492 315.662L319.957 313.22V311.319L332.3 293.264L334.198 292.314Z" fill="#3B139B"/>
<path d="M275.334 346.469L292.424 347.419C293.677 348.293 295.794 348.958 296.06 350.079C300.019 366.899 303.817 383.775 307.615 400.642C308.564 404.861 309.827 409.033 310.34 413.299C310.71 416.331 312.067 416.473 314.337 415.884L312.362 418.735C308.773 419.153 309.295 415.988 308.868 414.221C306.399 403.996 304.235 393.696 301.89 383.433C299.241 371.831 296.516 360.247 294.123 349.918C287.031 349.082 280.537 349.044 274.461 347.438C264.89 344.901 255.624 341.252 246.177 338.22C243.902 337.654 241.589 337.251 239.256 337.014L236.408 336.063L234.509 333.213L240.205 334.163L275.334 346.469Z" fill="#381298"/>
<path d="M296.221 343.627C289.575 346.782 282.796 345.974 276.065 343.922C275.068 343.618 274.308 342.487 273.444 341.736L277.242 342.687C280.374 343.451 283.543 344.057 286.736 344.502C288.635 344.692 291.645 344.758 292.49 343.637C297.807 336.548 302.658 329.108 307.681 321.781C308.63 320.831 309.684 319.881 310.529 318.835C313.377 315.405 316.226 311.937 319.074 308.478L318.124 312.279L296.288 342.687C296.221 343.038 296.221 343.304 296.221 343.627Z" fill="#4316B2"/>
<path d="M368.377 243.852L359.833 256.205L353.187 263.807V260.956L366.478 241.951H368.377V243.852Z" fill="#4115AD"/>
<path d="M296.221 342.677L318.058 312.269L319.956 311.319V313.22C318.836 314.664 317.678 316.07 316.595 317.543C310.899 325.145 305.345 332.852 299.601 340.425C298.832 341.442 297.37 341.936 296.221 342.677Z" fill="#3C139F"/>
<path d="M356.035 385.438L353.187 387.339H351.288C352.171 386.388 353.064 385.372 353.946 384.393L359.273 378.53L354.905 377.865C354.858 377.247 354.772 376.097 354.697 375.014L360.554 373.864C361.191 375.347 361.941 377.047 362.681 378.758L356.035 385.438Z" fill="#3A139A"/>
<path d="M356.035 385.438L362.681 378.786C369.004 374.197 375.318 369.598 381.67 365.046C382.579 364.484 383.531 363.994 384.518 363.583C384.176 364.533 383.834 365.483 383.502 366.433L370.277 375.936L356.035 385.438Z" fill="#34108B"/>
<path d="M334.199 292.314L332.3 293.264L334.199 288.513L343.693 275.21H344.642C342.829 278.45 341.11 281.728 339.193 284.902C337.655 287.439 335.87 289.824 334.199 292.314Z" fill="#3F15A9"/>
<path d="M344.642 275.2H343.692C344.006 273.613 344.328 272.036 344.642 270.449L353.187 260.947V263.797L344.642 275.2Z" fill="#4417B6"/>
<path d="M150.959 311.319L185.005 322.19L240.205 339.826L278.182 352.18L283.879 353.13V354.08C275.35 354.28 266.841 353.181 258.643 350.821C250.335 348.407 242.113 345.651 233.958 342.839C224.558 339.617 215.273 336.063 205.874 332.823C198.478 330.286 190.987 328.072 183.553 325.611C181.853 325.05 180.201 324.318 178.53 323.71C171.467 321.069 164.441 318.341 157.33 315.833C154.016 314.664 150.541 313.932 147.171 312.982C147.028 312.982 147.171 311.937 147.171 311.376L150.959 311.319Z" fill="#280D6A"/>
<path d="M283.879 354.08V353.13C287.677 352.322 287.857 355.325 288.379 357.625C292.652 376.544 296.763 395.501 301.111 414.402C301.833 417.528 303.523 420.436 304.766 423.448H306.665C303.636 425.671 302.041 424.227 301.329 421.196C298.946 410.99 296.725 400.747 294.285 390.56C292.604 383.528 290.601 376.582 288.844 369.569C287.743 365.16 286.889 360.694 285.749 356.266C285.531 355.458 284.525 354.812 283.879 354.08Z" fill="#290D6E"/>
<path d="M310.463 12.9424C314.621 16.1637 318.799 19.3755 322.948 22.6254C331.54 29.3626 340.038 36.2044 348.725 42.8466C353.121 46.2104 357.868 49.1087 362.311 52.406C367.837 56.5016 373.22 60.7872 378.651 65.0063C382.999 68.3796 386.93 72.6082 391.743 75.0408C403.811 81.2079 407.931 92.2688 411.586 104.023C414.283 112.709 417.549 121.213 420.587 129.794C424.878 141.9 429.132 154.025 433.509 166.112C436.718 174.95 440.088 183.73 443.383 192.539C443.231 193.489 443.335 194.658 442.86 195.446C442.011 197.117 440.817 198.587 439.357 199.76C438.702 200.188 435.768 198.601 435.806 198.43C436.927 194.097 433.319 193.783 430.917 192.539C430.205 192.177 429.018 191.816 428.534 192.149C428.049 192.482 428.021 193.688 427.755 194.496C427.299 195.845 427.024 198.183 426.274 198.354C422.336 199.186 418.35 199.77 414.34 200.102C410.542 200.483 409.725 198.307 410.096 194.22C412.365 198.972 412.365 198.972 415.052 197.812L410.153 191.864C412.052 191.313 413.704 191.807 415.422 192.215C417.14 192.624 418.489 196.9 421.119 192.862L416.552 190.134L414.302 182.238L403.858 188.823C400.203 184.176 397.772 189.612 395.627 190.153C395.256 193.004 394.971 195.247 394.611 198.04C390.053 194.715 387.775 196.301 386.427 200.692L384.689 197.565L377.872 202.041C374.916 197.974 371.964 193.91 369.014 189.849C360.241 177.743 351.45 165.656 342.762 153.493C341.813 152.163 341.462 150.395 340.864 148.827C342.425 149.206 344.011 149.472 345.611 149.626C346.646 149.626 348.62 149.131 348.611 148.894C348.554 146.043 348.193 143.192 347.889 140.142L350.785 138.147C354.26 140.779 356.073 140.655 357.706 137.842C359.102 135.438 360.934 133.281 362.862 130.64L357.611 127.466L355.523 130.164L343.949 128.026L344.405 129.632C342.079 130.83 339.534 131.751 337.474 133.319C335.784 134.612 334.626 136.664 333.287 138.375L321.894 123.171C321.771 122.553 321.372 121.821 321.571 121.346C322.938 118.153 322.635 115.645 320.252 112.709C318.666 110.808 319.682 107.653 317.451 104.993C315.761 102.988 317.384 98.2743 317.318 94.7679C317.318 94.2168 316.15 93.6846 315.352 93.0005L312.656 97.4761L307.956 93.7701L302.868 97.5141L296.222 88.9619C295.642 86.7478 294.209 84.3627 294.617 82.3102C296.81 71.2779 299.431 60.3216 301.966 49.3557C304.766 37.2401 307.615 25.096 310.463 12.9424Z" fill="#792CFE"/>
<path d="M377.872 202.041L384.727 197.565L386.464 200.692C387.812 196.302 390.091 194.715 394.648 198.04C395.009 195.247 395.294 192.985 395.664 190.153C397.81 189.612 400.24 184.176 403.896 188.823L414.339 182.238L416.589 190.134L421.156 192.862C418.498 196.9 417.245 192.643 415.46 192.215C413.675 191.788 412.051 191.313 410.19 191.864L415.099 197.812C412.412 199 412.412 199 410.143 194.22C409.773 198.307 410.58 200.483 414.387 200.103C418.388 199.768 422.364 199.184 426.293 198.354C427.043 198.183 427.318 195.845 427.774 194.496C428.04 193.688 428.011 192.51 428.552 192.149C429.093 191.788 430.223 192.149 430.935 192.539C433.337 193.783 436.945 194.097 435.825 198.43C435.825 198.601 438.721 200.188 439.376 199.76C440.836 198.587 442.03 197.117 442.879 195.446C443.354 194.658 443.249 193.546 443.401 192.539C444.189 195.228 444.977 197.926 446.003 201.404C438.664 201.765 431.761 202.269 424.849 202.355C418.403 202.459 411.947 202.06 405.5 202.032C398.693 202.032 391.876 202.412 385.088 202.127C381.375 201.974 379.552 203.077 379.211 206.783C379.154 207.438 378.347 208.037 377.891 208.683H376.941C377.236 206.479 377.559 204.303 377.872 202.041Z" fill="#792CFE"/>
<path d="M376.922 208.693H377.872V210.593C375.194 214.176 371.577 215.211 367.191 215.468C361.646 215.781 359.339 211.61 356.035 208.693L303.816 136.474L299.069 127.922L300.968 128.872C302.005 129.801 302.973 130.805 303.864 131.875C309.029 138.992 314.089 146.195 319.245 153.312C328.454 165.982 337.689 178.652 346.949 191.322C351.763 197.917 356.519 204.559 361.523 211.002C364.276 214.565 369.802 214.204 373.125 210.593L376.922 208.693Z" fill="#7634FD"/>
<path d="M310.462 12.9424C307.614 25.096 304.766 37.2401 301.965 49.3938C299.43 60.3596 296.809 71.3159 294.616 82.3482C294.208 84.3628 295.642 86.7479 296.221 88.9999C292.755 86.8334 292.309 83.498 293.107 79.9821C298.158 57.946 303.303 35.9383 308.392 13.9116C308.532 12.9681 308.589 12.0143 308.563 11.0609L310.462 12.9424Z" fill="#7D2EFE"/>
<path d="M356.035 208.693C359.339 211.61 361.646 215.781 367.191 215.468C371.577 215.211 375.195 214.176 377.872 210.593C380.008 214.043 376.286 214.546 375.024 216.295C366.621 218.461 358.77 217.587 356.035 211.543V208.693Z" fill="#712FFD"/>
<path d="M364.58 219.145H366.478V220.096C361.56 219.582 360.307 223.26 358.883 226.747C357.691 227.955 356.563 229.224 355.503 230.548C349.749 238.54 344.11 246.588 338.366 254.609C332.622 262.629 326.726 270.877 320.906 279.011H318.058C321.495 274.345 324.96 269.708 328.359 265.023C338.803 250.627 349.132 236.183 359.69 221.882C360.696 220.504 362.918 220.039 364.58 219.145Z" fill="#6428F8"/>
<path d="M358.883 226.747C360.307 223.26 361.56 219.582 366.478 220.096L380.72 218.195L375.023 221.046C368.823 220.628 362.681 220.343 358.883 226.747Z" fill="#6227F5"/>
<path d="M70.2578 337.926C73.8846 334.866 77.3215 331.531 81.2047 328.832C83.8821 326.932 87.1766 325.981 90.1958 324.622C88.0054 326.812 85.6947 328.877 83.2745 330.809C79.4767 333.555 75.3752 335.968 71.3686 338.458C71.2072 338.572 70.6376 338.116 70.2578 337.926Z" fill="#290E6D"/>
<path d="M124.375 299.916L128.173 302.767C119.932 300.619 113.723 304.933 107.418 309.2C98.9875 314.902 90.4426 320.451 81.9453 326.076C74.3499 331.075 66.8494 336.149 59.159 341.024C58.0672 341.717 56.4152 341.518 55.0195 341.727C58.0957 339.256 61.0864 336.653 64.2859 334.344C68.0836 331.607 72.0238 329.117 75.9069 326.523C78.252 324.442 83.0561 324.803 82.5529 319.871C85.8189 322.19 86.3506 318.731 88.2495 317.496C94.4872 313.334 101.333 310.046 107.409 305.665C112.65 301.912 117.729 298.804 124.375 299.916Z" fill="#2B0E71"/>
<path d="M124.375 299.916C117.729 298.804 112.65 301.912 107.447 305.665C101.37 310.046 94.5251 313.334 88.2874 317.496C86.436 318.731 85.8663 322.19 82.5908 319.871C86.0277 317.068 89.3033 314.046 92.9301 311.528C99.0919 307.262 105.33 303.071 111.814 299.346C114.34 297.892 117.625 297.788 120.568 297.065L124.375 299.916Z" fill="#2C0E74"/>
<path d="M82.5999 319.871C83.1031 324.803 78.299 324.442 75.954 326.523C75.5837 326.323 75.2039 325.924 74.8526 325.962C73.9433 326.094 73.0429 326.282 72.1562 326.523L82.5999 319.871Z" fill="#2C0E74"/>
<path d="M353.186 260.947L344.641 270.449L340.844 271.399L341.793 269.499L344.641 265.698L361.731 241.942L364.579 238.141C366.714 235.77 368.977 233.517 371.358 231.394C373.257 229.845 375.688 228.904 377.871 227.688C371.843 230.653 369.384 236.478 366.478 241.942L353.186 260.947Z" fill="#4919C1"/>
<path d="M368.378 243.852V241.951C370.543 239.006 372.593 235.946 374.938 233.152C375.888 232.002 377.511 231.394 378.822 230.548V231.499C376.268 234.71 373.752 237.951 371.15 241.134C370.276 242.09 369.351 242.997 368.378 243.852Z" fill="#3D14A3"/>
<path d="M303.816 9.14135H304.766C303.18 15.394 301.5 21.6276 300.019 27.9087C296.629 42.3429 293.145 56.7486 290.164 71.2588C289.385 75.0598 287.315 79.3739 290.515 83.2604H288.616C283.603 77.3309 277.944 76.9793 273.425 82.3102H271.526V81.3599C271.84 80.0961 272.162 78.8228 272.476 77.5589H273.425L276.274 76.6087C278.704 76.9318 279.824 76.0671 280.385 73.4539C282.483 63.7614 284.923 54.1544 287.182 44.4999C289.784 33.3821 292.224 22.2357 294.939 11.1464C296.316 5.53043 297.36 5.28336 302.601 8.40016C303.019 8.63772 303.418 8.89429 303.816 9.14135Z" fill="#8534FE"/>
<path d="M161.402 117.469L153.807 118.42V117.469C172.245 111.701 190.72 106.066 209.101 100.108C223.286 95.5186 237.328 90.4919 251.474 85.7596C255.642 84.3628 260.019 83.5361 264.13 82.0347C265.849 81.4075 267.178 79.7161 268.687 78.5093H269.637C269.323 79.7731 269.001 81.0464 268.687 82.3103C258.547 85.6456 248.379 88.9144 238.306 92.3353C231.66 94.5874 225.014 97.0866 218.368 99.4146C212.244 101.315 206.111 103.216 199.996 105.116C187.122 109.228 174.257 113.345 161.402 117.469Z" fill="#7A30FD"/>
<path d="M276.283 76.6087L273.435 77.559C276.767 63.1438 280.081 48.7191 283.432 34.3228C285.54 25.343 287.885 16.4202 289.926 7.43094C290.667 4.1811 292.831 4.23812 295.271 4.39016C294.474 5.51144 293.297 6.52821 292.936 7.77303C291.455 12.7998 290.088 17.8646 288.948 22.9769C286.214 35.3301 283.774 47.7878 280.973 60.141C279.71 65.6999 277.859 71.1258 276.283 76.6087Z" fill="#7F30FE"/>
<path d="M276.283 76.6087C277.859 71.1258 279.711 65.6999 280.973 60.141C283.774 47.7878 286.214 35.3491 288.949 22.9769C290.069 17.8646 291.455 12.7998 292.936 7.77301C293.297 6.52819 294.474 5.51142 295.272 4.39014L303.817 7.24087V9.14136C303.418 8.89429 303.019 8.63773 302.611 8.40017C297.37 5.28337 296.326 5.54943 294.949 11.1464C292.234 22.2357 289.794 33.3821 287.192 44.4999C284.932 54.1639 282.492 63.7614 280.394 73.4539C279.834 76.0671 278.714 76.9698 276.283 76.6087Z" fill="#8332FE"/>
<path d="M268.688 82.3102C269.001 81.0464 269.324 79.773 269.637 78.5092L272.486 77.559L271.536 81.3599C269.818 83.422 268.498 86.5673 266.314 87.356C255.282 91.3565 244.069 94.8914 232.828 98.3028C226.514 100.203 220.03 101.591 213.621 103.216L220.267 99.4146C235.828 94.5018 251.399 89.6176 266.941 84.6193C267.738 84.3722 268.109 83.0989 268.688 82.3102Z" fill="#7D34FE"/>
<path d="M364.579 238.15L361.731 241.951L358.883 243.852L363.63 235.3C364.779 233.608 366.051 231.993 367.048 230.206C368.614 227.356 371.026 226.529 374.036 225.455C387.385 220.704 401.056 223.602 414.548 223.003C426.036 222.49 437.571 222.927 449.078 222.946C447.472 223.414 445.825 223.732 444.16 223.897C425.647 223.963 407.133 223.726 388.628 224.03C379.78 224.172 370.912 225.17 366.886 235.214C366.254 236.293 365.478 237.281 364.579 238.15Z" fill="#501CD2"/>
<path d="M289.575 83.2605H290.525L291.474 84.2107L296.221 90.8625C297.076 92.4874 297.835 94.1788 298.823 95.7182C301.054 99.2056 303.408 102.617 305.715 106.066C306.94 107.872 308.089 109.744 309.409 111.473C313.843 117.298 318.333 123.076 322.805 128.872C324.818 131.999 326.745 135.191 328.872 138.232C337.575 150.661 346.313 163.062 355.086 175.434V176.384C351.611 171.956 348.05 167.595 344.642 163.081C337.303 153.293 330.059 143.43 322.805 133.623C316.292 124.406 309.513 115.36 303.342 105.933C298.5 98.5499 291.189 92.6109 289.575 83.2605Z" fill="#8436FD"/>
<path d="M291.474 84.2106L290.525 83.2604C287.344 79.3739 289.395 75.0788 290.174 71.2588C293.155 56.7486 296.639 42.3429 300.029 27.9087C301.5 21.6276 303.181 15.394 304.776 9.14136C305.127 10.4432 306.001 11.8496 305.725 13.0279C303.409 24.4308 300.883 35.7007 298.472 47.0371C297.171 53.1662 296.06 59.3333 294.674 65.4433C293.914 68.8452 292.623 72.095 292.006 75.5634C291.652 78.4322 291.474 81.3201 291.474 84.2106Z" fill="#8332FE"/>
<path d="M305.715 106.066C303.408 102.617 301.053 99.2055 298.822 95.7182C297.873 94.1788 297.075 92.4873 296.221 90.8624V88.9619L302.867 97.5141C304.424 99.6807 305.952 101.866 307.538 104.004C312.304 110.403 317.076 116.791 321.855 123.171L333.248 138.375L337.995 146.927C336.704 145.606 335.309 144.38 334.141 142.955C330.343 138.299 326.545 133.576 322.805 128.872C318.779 122.772 314.848 116.605 310.652 110.627C309.399 108.832 307.386 107.568 305.715 106.066Z" fill="#7D2FFD"/>
<path d="M368.377 224.847L361.731 236.25L323.754 288.513L321.855 289.463L323.754 284.712C326.669 280.664 329.641 276.654 332.48 272.559C336.894 266.192 341.224 259.759 345.591 253.354L358.883 234.349L363.63 226.747L368.377 224.847Z" fill="#5720E0"/>
<path d="M323.755 288.513L361.732 236.25L363.631 235.3L358.884 243.852C357.697 245.667 356.5 247.482 355.314 249.306L344.642 265.707L341.794 269.508C341.044 269.651 339.895 269.508 339.591 269.964C334.569 277.053 329.651 284.218 324.704 291.364L321.856 296.115L319.957 297.065L323.755 288.513Z" fill="#521DD5"/>
<path d="M368.378 224.847L363.631 226.747C363.954 226.111 364.267 225.483 364.58 224.847C367.59 224.21 370.609 223.649 373.59 222.946C375.717 222.424 377.768 221.616 379.885 221.046C382.23 220.381 384.632 219.297 386.968 219.278C408.311 219.145 429.645 219.202 450.978 219.202C449.44 219.829 447.902 221.008 446.364 221.017C429.141 221.15 411.9 221.483 394.696 220.932C386.787 220.685 379.562 222.832 372.109 224.438C370.884 224.647 369.622 224.695 368.378 224.847Z" fill="#5820E3"/>
<path d="M450.978 219.145C429.644 219.145 408.311 219.088 386.968 219.221C384.603 219.221 382.22 220.324 379.885 220.989C377.768 221.578 375.717 222.386 373.59 222.889C370.609 223.63 367.59 224.191 364.58 224.79C365.871 223.84 367.03 222.5 368.473 222.034C370.623 221.501 372.814 221.151 375.024 220.989L380.72 218.138C383.177 217.672 385.659 217.354 388.154 217.188C409.412 217.112 430.66 217.188 451.918 217.188L450.978 219.145Z" fill="#5C23E9"/>
<path d="M239.256 336.976C241.589 337.213 243.902 337.616 246.177 338.182C255.624 341.214 264.89 344.834 274.461 347.4C280.537 349.006 287.031 349.044 294.123 349.88C296.516 360.209 299.241 371.793 301.89 383.395C304.235 393.658 306.399 403.958 308.868 414.183C309.295 415.95 308.773 419.115 312.362 418.697L310.463 420.597C309.362 419.647 307.672 418.83 307.263 417.623C306.247 414.535 305.868 411.237 305.118 408.054C303.466 401.06 301.614 394.114 300.076 387.101C297.646 375.964 295.405 364.78 293.098 353.614C292.566 351.039 291.133 350.184 288.436 350.193C284.078 350.193 279.711 349.642 275.344 349.329L256.355 343.627L250.658 341.727L239.256 336.976Z" fill="#34118C"/>
<path d="M250.649 341.727L256.345 343.627L275.334 350.279C279.075 350.593 282.815 351.182 286.556 351.144C289.271 351.144 290.639 352.094 291.199 354.603C292.851 362.249 294.531 369.895 296.24 377.542C299.297 391.159 302.487 404.747 305.412 418.402C305.972 421.015 307.092 421.88 309.513 421.566L306.665 423.467H304.766C300.038 403.03 295.307 382.594 290.572 362.157C288.246 352.18 288.189 352.199 278.182 352.199L240.205 339.845L250.649 341.727Z" fill="#2D0E79"/>
<path d="M309.513 421.547C307.092 421.861 305.972 420.996 305.412 418.383C302.488 404.747 299.298 391.159 296.24 377.523C294.519 369.883 292.838 362.236 291.199 354.584C290.639 352.028 289.3 351.096 286.556 351.125C282.815 351.125 279.075 350.574 275.334 350.26V349.31C279.701 349.623 284.069 350.184 288.427 350.175C291.123 350.175 292.557 351.02 293.088 353.595C295.395 364.761 297.636 375.945 300.067 387.082C301.605 394.095 303.456 401.041 305.108 408.035C305.858 411.218 306.238 414.516 307.254 417.604C307.662 418.811 309.352 419.599 310.453 420.578L309.513 421.547Z" fill="#321086"/>
<path d="M127.223 293.264V294.215C122.163 291.544 118.546 288.342 118.574 281.681C118.773 237.609 118.688 193.536 118.64 149.464C118.477 147.644 118.159 145.842 117.691 144.076C113.466 134.507 103.298 132.112 96.0726 126.164C93.5661 124.092 90.8697 122.258 88.2588 120.32H90.1576C97.3733 124.9 104.589 129.477 111.805 134.051C113.115 134.878 114.463 135.666 115.792 136.474C116.295 137.795 116.466 139.41 117.359 140.37C120.805 144.124 120.587 148.59 120.577 153.198C120.511 195.275 120.691 237.352 120.378 279.429C120.368 285.71 122.248 289.977 127.223 293.264Z" fill="#3E14A8"/>
<path d="M234.508 333.175L236.407 336.025C228.479 333.498 220.58 330.885 212.614 328.423C203.443 325.62 194.139 323.207 185.024 320.213C168.751 314.882 152.516 309.409 136.385 303.651C128.571 300.876 121.726 296.372 116.779 289.444V287.544H117.729C125.324 297.797 136.157 302.187 148.11 304.648C149.516 305.276 150.883 306.036 152.345 306.549C169.501 312.25 186.657 317.885 203.851 323.425C210.497 325.582 217.324 327.407 224.065 329.383L234.508 333.175Z" fill="#371193"/>
<path d="M148.11 304.667C136.157 302.206 125.324 297.816 117.729 287.563V144.076C118.197 145.842 118.515 147.644 118.678 149.464C118.725 193.536 118.811 237.609 118.611 281.681C118.611 288.333 122.2 291.544 127.261 294.215C132.91 300.277 140.914 301.151 148.148 303.717L148.11 304.667Z" fill="#3C14A0"/>
<path d="M116.779 287.563C116.311 285.794 115.993 283.988 115.83 282.166C115.779 236.453 115.779 190.739 115.83 145.026C116.299 146.795 116.617 148.601 116.779 150.424C116.779 196.131 116.779 241.844 116.779 287.563Z" fill="#371193"/>
<path d="M90.1958 120.32H88.2969L70.2578 107.967C71.7103 108.37 73.1167 108.925 74.4543 109.62C79.7521 113.079 84.9549 116.738 90.1958 120.32Z" fill="#3E14A8"/>
<path d="M101.588 107.017C97.9709 105.192 94.1732 103.634 90.7552 101.486C81.261 95.5186 71.9281 89.2755 62.5003 83.1844C57.5728 80.0011 57.2025 78.4332 60.7629 74.7083C59.8134 77.2739 59.9464 78.8513 62.8421 80.6758C75.4125 88.6198 87.6696 97.039 100.031 105.316C100.615 105.82 101.137 106.391 101.588 107.017Z" fill="#6422FC"/>
<path d="M126.274 128.872V131.723C125.647 130.497 124.375 129.205 124.517 128.055C125.058 123.18 121.669 121.403 118.441 119.123C113.371 115.521 108.462 111.701 103.487 107.967C104.56 108.109 105.823 107.967 106.668 108.461C111.415 111.416 116.01 114.704 120.852 117.536C125.324 120.168 127.441 123.665 126.274 128.872Z" fill="#6623FD"/>
<path d="M128.172 138.375V141.225C125.64 136.791 123.109 132.356 120.577 127.922C119.435 126.537 118.163 125.264 116.779 124.121C105.756 116.766 94.6575 109.516 83.5492 102.265C82.5998 101.458 81.7548 100.593 80.7769 99.8707C76.6564 96.8395 72.4979 93.8557 68.3584 90.8624C69.4265 90.9827 70.4701 91.2647 71.4535 91.6986C86.9862 101.781 102.566 111.806 117.899 122.192C120.359 123.855 121.821 127.105 123.492 129.794C125.163 132.483 126.625 135.505 128.172 138.375Z" fill="#5B1EF0"/>
<path d="M68.3585 90.8624C72.498 93.8556 76.6565 96.8394 80.777 99.8707C81.7265 100.593 82.6759 101.458 83.5494 102.265H81.6505C75.0045 97.6946 68.3016 93.1239 61.7125 88.5057C60.5542 87.6885 59.8137 86.2917 58.8643 85.1609L68.3585 90.8624Z" fill="#591EED"/>
<path d="M112.032 131.723L109.184 129.822C108.359 128.61 107.404 127.492 106.336 126.487C102.282 123.399 98.1042 120.472 93.9932 117.479C95.4381 117.997 96.8384 118.633 98.1801 119.379C104.418 123.446 110.589 127.618 116.779 131.732C118.783 135.068 120.197 139.021 122.922 141.605C126.283 144.789 126.302 148.257 126.302 152.182C126.255 194.829 126.359 237.466 126.16 280.104C126.16 285.254 127.413 288.96 131.97 291.373C133.208 292.455 134.55 293.41 135.977 294.224C138.996 295.64 142.158 296.761 145.262 298.025H141.465C137.05 295.697 132.663 293.321 128.22 291.05C124.584 289.197 123.245 286.451 123.34 282.251C123.694 264.862 123.856 247.463 123.824 230.054C123.824 204.483 123.539 178.903 123.454 153.322C123.454 148.419 123.967 143.515 119.219 140.085C118.346 139.448 118.422 137.605 117.605 136.74C115.906 134.935 113.931 133.376 112.032 131.723Z" fill="#4A18C6"/>
<path d="M112.032 131.723C113.931 133.376 115.906 134.916 117.605 136.731C118.422 137.595 118.346 139.439 119.219 140.076C123.967 143.506 123.444 148.409 123.454 153.312C123.539 178.893 123.796 204.474 123.824 230.045C123.824 247.44 123.663 264.839 123.34 282.242C123.245 286.442 124.584 289.188 128.22 291.041C132.663 293.312 137.05 295.688 141.464 298.016V298.966L127.223 293.264C122.248 289.977 120.368 285.71 120.416 279.429C120.729 237.352 120.549 195.275 120.615 153.198C120.615 148.59 120.843 144.124 117.396 140.37C116.504 139.42 116.333 137.795 115.83 136.474L112.032 131.723Z" fill="#4516B8"/>
<path d="M93.9935 117.469C98.1235 120.463 102.301 123.389 106.336 126.478C107.404 127.482 108.359 128.601 109.184 129.813L83.5498 112.709V111.758L93.9935 117.46V117.469Z" fill="#4717C0"/>
<path d="M131.97 291.364C127.413 288.95 126.141 285.244 126.16 280.094C126.359 237.457 126.255 194.819 126.302 152.172C126.302 148.238 126.302 144.779 122.922 141.596C120.198 139.011 118.783 135.058 116.78 131.723C115.773 130.421 114.985 128.815 113.703 127.922C110.399 125.537 106.82 123.532 103.431 121.27C95.5124 115.93 87.6417 110.494 79.752 105.116V104.166C84.8156 107.188 89.857 110.212 94.8763 113.241C97.136 114.618 99.3576 116.091 101.589 117.469L105.386 119.37C105.992 120.06 106.656 120.695 107.371 121.27C113.665 125.508 120.663 128.996 122.562 137.424C122.808 138.517 123.986 139.524 124.945 140.275C128.325 143.012 129.17 146.509 129.151 150.728C129.037 193.878 129.151 237.029 128.961 280.18C128.961 285.748 130.803 289.188 135.73 291.259V292.21L131.97 291.364Z" fill="#501BD6"/>
<path d="M105.386 119.37L101.588 117.469C98.8445 115.151 96.1956 112.718 93.3378 110.542C89.5401 107.691 85.5525 105.012 81.6504 102.265H83.5492C94.6196 109.544 105.718 116.795 116.779 124.121C118.163 125.264 119.435 126.537 120.577 127.922L105.386 119.37Z" fill="#561DE6"/>
<path d="M79.7516 105.116C87.6413 110.495 95.5121 115.892 103.43 121.223C106.82 123.503 110.399 125.508 113.703 127.874C114.985 128.825 115.773 130.402 116.779 131.675C110.589 127.542 104.437 123.37 98.18 119.322C96.8382 118.576 95.4379 117.94 93.993 117.422C93.1223 116.584 92.2096 115.791 91.2587 115.046C86.5115 111.692 81.6884 108.394 76.9033 105.069L79.7516 105.116Z" fill="#4D19CD"/>
<path d="M76.9034 105.116C81.6506 108.442 86.4927 111.768 91.2588 115.094C92.2098 115.839 93.1224 116.632 93.9931 117.469L83.5494 111.768L67.4092 100.365H69.308L76.9034 105.116Z" fill="#4A18C6"/>
<path d="M356.035 208.693V211.543C345.566 197.214 335.097 182.9 324.628 168.602C316.754 157.832 308.931 147.009 301.158 136.132C300.691 135.338 300.309 134.497 300.019 133.623L303.816 136.474L356.035 208.693Z" fill="#6F2FFD"/>
<path d="M364.58 219.145C362.919 220.039 360.697 220.504 359.681 221.882C349.133 236.183 338.794 250.627 328.35 265.023C324.951 269.708 321.486 274.345 318.049 279.011L308.554 292.314L305.706 294.215C309.333 288.58 312.76 282.812 316.634 277.329C327.533 261.935 338.585 246.655 349.636 231.375C352.285 227.717 355.228 224.267 357.858 220.59C359.757 217.948 361.836 217.273 364.58 219.145Z" fill="#662AFC"/>
<path d="M305.716 294.215L308.564 292.314C308.283 293.196 307.911 294.047 307.453 294.851C301.567 303.014 295.68 311.186 289.68 319.273C285.949 324.299 282.018 329.184 278.182 334.125L275.334 333.175V332.224C276.369 331.711 277.793 331.464 278.391 330.638C285.987 320.071 293.468 309.4 301.092 298.833C302.345 297.084 304.159 295.745 305.716 294.215Z" fill="#662AFB"/>
<path d="M275.333 332.224V333.175H272.485L262.991 330.324C261.761 329.671 260.493 329.094 259.193 328.594C241.781 322.804 224.374 317.046 206.975 311.319V310.369C215.985 313.143 225.014 315.833 234.005 318.712C247.8 323.15 261.557 327.711 275.333 332.224Z" fill="#6227F5"/>
<path d="M206.975 310.369V311.319L187.986 305.618C185.404 304.667 182.822 303.717 180.249 302.767L165.2 297.065L206.975 310.369Z" fill="#6227F4"/>
<path d="M303.816 136.474L300.019 133.623L288.625 117.469L286.727 112.718L299.069 127.922L303.816 136.474Z" fill="#7231FD"/>
<path d="M138.616 288.513H141.464L165.2 297.065L138.616 288.513Z" fill="#6227F4"/>
<path d="M153.808 117.469V118.419C147.541 120.32 141.256 122.22 135.047 124.292C133.86 124.691 132.987 126.05 131.971 126.972C132.521 125.774 132.816 123.798 133.67 123.522C140.326 121.318 147.086 119.446 153.808 117.469Z" fill="#772EFD"/>
<path d="M299.069 127.922L286.727 112.718C284.496 109.81 282.284 106.883 280.005 104.023C278.505 102.123 276.891 100.308 275.334 98.4643C273.093 95.5471 270.34 97.229 268.004 97.9797C260.409 100.422 252.899 103.301 245.284 105.791C229.619 110.903 213.896 115.863 198.202 120.89L137.667 140.275L133.869 133.623H134.819V134.574C135.141 134.887 135.455 135.201 135.768 135.524L136.717 136.474C137.297 137.063 138.085 138.261 138.417 138.147C145.158 135.771 151.851 133.262 158.554 130.773L185.138 122.22L209.823 114.618C210.739 113.851 211.755 113.212 212.842 112.718C217.77 111.207 222.811 110.048 227.701 108.423C240.537 104.175 253.335 99.8707 266.067 95.2905C269.438 94.0742 272.296 93.8461 275.334 95.5946L279.131 97.4951L289.575 111.749C290.525 113.184 291.474 114.599 292.423 116.044L300.968 128.853L299.069 127.922Z" fill="#7734FD"/>
<path d="M137.667 140.275L198.202 120.89C213.896 115.863 229.619 110.903 245.285 105.791C252.88 103.301 260.38 100.422 268.004 97.9797C270.34 97.2291 273.093 95.5471 275.334 98.4644C269.144 100.156 262.877 101.619 256.773 103.567C236.562 110.023 216.384 116.576 196.237 123.228C186.107 126.573 176.109 130.336 165.969 133.68C157.472 136.455 148.88 138.897 140.268 141.349C139.566 141.52 138.54 140.636 137.667 140.275Z" fill="#7231FD"/>
<path d="M134.819 133.623H133.869L132.92 130.773C134.401 129.195 135.607 126.858 137.42 126.183C144.693 123.456 152.155 121.261 159.523 118.819C160.219 118.465 160.859 118.011 161.422 117.469C174.29 113.364 187.154 109.246 200.016 105.116C206.13 103.216 212.264 101.315 218.387 99.4146H220.286L213.64 103.216L197.5 108.917C191.689 109.031 186.183 110.2 181.36 113.668C173.014 116.576 164.678 119.512 156.314 122.372C150.817 124.273 145.386 126.829 139.727 127.57C135.18 128.169 134.629 130.183 134.819 133.623Z" fill="#7C33FD"/>
<path d="M138.616 288.513L165.2 297.065L180.249 302.767C182.822 303.717 185.404 304.667 187.987 305.618H185.138C181.834 304.667 178.492 303.717 175.236 302.71C163.558 298.966 151.861 295.307 140.249 291.364C132.768 288.817 131.923 287.335 131.98 279.21C132.084 264.12 132.303 249.04 132.379 233.95C132.445 219.041 132.379 204.131 132.379 189.222C132.379 184.214 132.806 179.216 132.796 174.208C132.796 167.842 132.648 161.478 132.35 155.118C132.122 150.167 134.249 144.399 128.135 141.225V139.325L135.73 145.026C135.272 146.998 134.971 149.003 134.828 151.022C134.828 170.645 135.075 190.258 135.066 209.871C135.066 234.397 134.809 258.932 134.942 283.458C134.942 285.149 137.316 286.831 138.578 288.513H138.616Z" fill="#5F25F0"/>
<path d="M138.616 288.513C137.354 286.831 134.99 285.149 134.98 283.458C134.847 258.932 135.094 234.397 135.104 209.871C135.104 190.258 134.895 170.645 134.866 151.022C135.009 149.003 135.31 146.998 135.768 145.026C136.237 146.795 136.554 148.601 136.718 150.424C136.718 194.135 136.718 237.77 136.841 281.443C136.803 283.8 137.98 286.157 138.616 288.513Z" fill="#6227F4"/>
<path d="M324.049 394.646C323.099 396.642 322.425 398.152 321.362 400.471L316.083 396.499L324.049 394.646Z" fill="#3A149A"/>
<path d="M277.233 342.677L273.435 341.727H272.486C270.805 340.71 269.239 339.37 267.426 338.724C261.824 336.757 256.146 335.018 250.478 333.27C247.079 332.215 243.633 331.303 240.205 330.324C236.36 329.051 232.506 327.815 228.679 326.523C218.584 323.064 208.501 319.58 198.431 316.07C201.165 316.65 203.966 317.021 206.634 317.857C215.948 320.708 225.223 323.625 234.509 326.523L282.93 342.677H277.233Z" fill="#4A1AC2"/>
<path d="M148.11 304.667V303.717C168.415 310.23 188.717 316.742 209.016 323.254C214.067 324.879 219.052 326.694 224.064 328.424V329.374C217.324 327.397 210.535 325.573 203.851 323.416C186.657 317.876 169.501 312.193 152.345 306.539C150.883 306.055 149.516 305.295 148.11 304.667Z" fill="#3C14A1"/>
<path d="M141.465 298.966V298.016H145.263L163.302 303.717C169.701 305.941 176.138 308.079 182.499 310.416C187.246 312.165 191.86 314.17 196.532 316.07V317.021C184.256 313.086 171.96 309.19 159.694 305.199C153.589 303.213 147.541 301.047 141.465 298.966Z" fill="#4718BC"/>
<path d="M196.531 317.021V316.07H198.43C208.513 319.548 218.596 323.032 228.679 326.523C232.477 327.834 236.36 329.07 240.205 330.324V331.274C233.758 329.374 227.255 327.663 220.875 325.573C212.672 322.874 204.639 319.881 196.531 317.021Z" fill="#4417B5"/>
<path d="M240.205 331.274V330.324C243.633 331.274 247.079 332.224 250.478 333.27C256.174 335.018 261.824 336.757 267.425 338.724C269.239 339.37 270.805 340.71 272.486 341.727L240.205 331.274Z" fill="#4718BB"/>
<path d="M275.334 346.469L240.205 334.115C251.769 337.796 263.33 341.486 274.888 345.186C275.153 345.281 275.191 346.031 275.334 346.469Z" fill="#3C14A2"/>
<path d="M224.064 329.374V328.423L240.205 334.125L234.508 333.175L224.064 329.374Z" fill="#3C14A2"/>
<path d="M334.198 288.513L332.299 293.264L319.956 311.319L318.058 312.269C318.371 310.996 318.694 309.732 319.007 308.468L321.855 303.717C322.521 303.094 323.155 302.438 323.754 301.75C327.277 297.341 330.732 292.922 334.198 288.513Z" fill="#4015AC"/>
<path d="M321.856 303.708L319.007 308.459C316.159 311.918 313.368 315.386 310.463 318.816C309.58 319.862 308.564 320.783 307.614 321.762L308.564 317.961L321.856 298.956L323.755 298.006C323.118 299.916 322.492 301.817 321.856 303.708Z" fill="#4718BD"/>
<path d="M277.232 342.677H282.929C288.626 344.768 290.714 344.026 293.971 339.579C298.386 333.545 303.057 327.692 307.614 321.772C302.611 329.098 297.759 336.539 292.423 343.627C291.578 344.749 288.626 344.682 286.67 344.492C283.496 344.045 280.346 343.44 277.232 342.677Z" fill="#4718BD"/>
<path d="M321.855 303.708C322.492 301.807 323.118 299.907 323.754 298.006L336.097 279.952C337.692 277.101 339.274 274.25 340.844 271.399L344.642 270.449C344.328 272.036 344.006 273.613 343.692 275.2L334.198 288.504C330.733 292.913 327.277 297.332 323.754 301.731C323.155 302.422 322.522 303.082 321.855 303.708Z" fill="#4618BB"/>
<path d="M278.182 352.18C288.189 352.18 288.246 352.18 290.572 362.138C295.338 382.568 300.069 403.005 304.766 423.448C303.522 420.436 301.832 417.528 301.11 414.402C296.762 395.501 292.651 376.544 288.378 357.624C287.856 355.325 287.666 352.322 283.878 353.13L278.182 352.18Z" fill="#2C0E75"/>
<path d="M337.996 146.927L333.249 138.375C334.626 136.664 335.746 134.574 337.436 133.319C339.496 131.751 342.041 130.83 344.367 129.632L343.911 128.026L355.485 130.184L357.573 127.485L362.824 130.659C360.925 133.3 359.026 135.457 357.668 137.862C356.035 140.712 354.222 140.798 350.747 138.166L347.851 140.161C348.155 143.249 348.516 146.081 348.573 148.913C348.573 149.15 346.607 149.692 345.573 149.645C343.973 149.491 342.387 149.225 340.825 148.846L337.996 146.927Z" fill="#792DFE"/>
<path d="M321.856 123.171C317.083 116.785 312.311 110.396 307.538 104.004C305.953 101.866 304.424 99.6807 302.867 97.5141L307.918 93.7702L312.618 97.4761L315.314 93.0005C316.112 93.6847 317.27 94.2168 317.279 94.7679C317.346 98.2743 315.722 102.988 317.412 104.993C319.644 107.653 318.628 110.78 320.213 112.709C322.596 115.616 322.9 118.153 321.533 121.346C321.334 121.821 321.732 122.582 321.856 123.171Z" fill="#792DFE"/>
<path d="M337.996 146.927L340.844 148.827C341.461 150.395 341.793 152.163 342.743 153.493C351.43 165.656 360.222 177.743 368.994 189.849C371.938 193.916 374.89 197.98 377.852 202.041C377.539 204.255 377.216 206.479 376.903 208.693L373.105 210.593V208.693C376.419 206.27 376.675 203.571 374.169 200.293C369.991 194.819 366.032 189.184 361.883 183.701C359.728 180.851 357.345 178.18 355.066 175.434C346.338 163.005 337.606 150.604 328.872 138.232C326.745 135.191 324.817 131.998 322.805 128.872C326.602 133.576 330.315 138.299 334.141 142.955C335.309 144.38 336.704 145.606 337.996 146.927Z" fill="#8134FD"/>
<path d="M373.125 209.643V210.593C369.802 214.204 364.276 214.565 361.523 211.002C356.519 204.559 351.763 197.917 346.949 191.322C337.695 178.652 328.461 165.982 319.245 153.312C314.089 146.195 309.029 138.992 303.864 131.875C302.973 130.805 302.005 129.802 300.968 128.872L292.424 116.063C291.474 114.628 290.525 113.212 289.575 111.768L279.132 97.5141L275.334 95.6136L272.486 91.8126C272.172 90.8624 271.849 89.9122 271.536 88.9619C273.435 90.7199 275.4 92.4873 277.347 94.2453C280.195 96.7919 283.546 98.9395 285.759 101.942C297.636 118.096 309.219 134.441 320.887 150.728L335.129 170.683L344.623 183.986L351.269 192.539C354.545 197.29 357.735 202.041 361.115 206.735C365.529 212.769 366.479 212.921 373.125 209.643Z" fill="#7E39FD"/>
<path d="M375.023 221.046C372.814 221.208 370.622 221.558 368.472 222.091C367.029 222.557 365.871 223.897 364.579 224.847C364.266 225.483 363.953 226.111 363.63 226.747L358.883 234.349L348.439 246.702C347.402 247.411 346.446 248.233 345.591 249.154C339.894 256.699 334.407 264.358 328.72 271.884C324.922 276.873 320.982 281.709 317.099 286.613C318.365 284.079 319.63 281.545 320.896 279.011C326.713 270.877 332.533 262.743 338.356 254.608C344.053 246.588 349.749 238.54 355.493 230.548C356.554 229.224 357.682 227.955 358.873 226.747C362.681 220.343 368.823 220.628 375.023 221.046Z" fill="#6026F2"/>
<path d="M320.906 279.011C319.64 281.545 318.374 284.079 317.108 286.613C316.159 288.038 315.209 289.463 314.26 290.889C310.158 296.749 306.044 302.608 301.917 308.468C300.541 309.609 298.879 310.53 297.854 311.927C292.926 318.579 288.265 325.459 283.299 332.091C282.207 333.536 281.03 336.386 278.182 334.125C281.979 329.184 285.948 324.299 289.679 319.273C295.68 311.186 301.566 303.014 307.452 294.851C307.91 294.047 308.283 293.196 308.563 292.314L318.058 279.011H320.906Z" fill="#6327F6"/>
<path d="M340.844 271.409L336.097 279.961C334.958 280.579 333.572 280.968 332.746 281.861C329.954 284.921 327.372 288.171 324.704 291.364C329.651 284.218 334.569 277.053 339.591 269.964C339.904 269.518 341.044 269.651 341.794 269.508L340.844 271.409Z" fill="#4F1CCF"/>
<path d="M344.642 265.707L355.313 249.306C356.5 247.482 357.696 245.667 358.883 243.852L361.731 241.951L344.642 265.707Z" fill="#4C1AC9"/>
<path d="M271.536 88.9619C271.849 89.9122 272.172 90.8624 272.485 91.8127C264.785 94.0933 257.057 96.2598 249.405 98.6829C236.426 102.797 223.504 107.074 210.564 111.302C197.319 115.616 184.094 119.978 170.84 124.273C159.162 128.074 147.465 131.77 135.768 135.524C135.454 135.201 135.141 134.887 134.818 134.574C135.625 133.167 136.129 130.906 137.277 130.497C142.898 128.492 148.67 126.981 154.367 125.318C158.488 124.121 162.656 123.047 166.71 121.726C170.298 120.567 173.84 119.227 177.343 117.811C182.157 115.911 186.913 113.792 191.699 111.768L197.395 108.917L213.535 103.216C219.944 101.591 226.429 100.222 232.742 98.3028C243.983 94.8915 255.196 91.3566 266.229 87.356C268.412 86.5673 269.732 83.422 271.45 81.36V88.9619H271.536Z" fill="#7E37FE"/>
<path d="M271.536 88.9619V82.3102H273.435V84.2107C273.34 88.8099 276.074 91.1189 279.929 92.9434C282.522 94.0814 284.84 95.7632 286.727 97.8752C290.582 102.55 293.943 107.615 297.465 112.566C304.022 121.777 310.57 131.013 317.109 140.275L325.653 151.678C331.179 159.584 336.61 167.557 342.278 175.368C344.718 178.731 347.633 181.753 350.339 184.937C350.502 185.655 350.754 186.351 351.089 187.008C355.38 193.204 359.586 199.447 364.096 205.471C365.729 207.666 367.893 209.994 371.226 207.742H372.175C368.036 211.353 366.897 211.325 363.725 207.391C362.054 205.319 360.564 203.105 358.845 201.072C356.396 198.221 353.813 195.37 351.25 192.519L344.604 183.967L335.11 170.664L320.868 150.709C309.181 134.422 297.598 118.068 285.74 101.923C283.527 98.9204 280.157 96.7729 277.328 94.2262C275.4 92.4873 273.435 90.7198 271.536 88.9619Z" fill="#853CFD"/>
<path d="M289.575 83.2605C291.189 92.6109 298.5 98.5499 303.342 105.933C309.532 115.36 316.292 124.406 322.805 133.623L325.654 140.275C322.122 135.818 318.846 131.134 314.992 126.972C312.143 123.874 311.82 118.496 306.665 117.469C303.048 111.701 299.411 105.943 295.813 100.165C293.705 96.7635 291.655 93.3331 289.575 89.9122C289.262 87.6981 288.939 85.4746 288.626 83.2605H289.575Z" fill="#883BFD"/>
<path d="M288.625 83.2604C288.939 85.4745 289.262 87.6981 289.575 89.9121L287.676 88.9619L285.777 84.2107L284.828 83.2604C281.372 80.7043 278.182 80.6853 275.333 84.2107H273.435V82.3102C277.954 76.9698 283.612 77.3309 288.625 83.2604Z" fill="#8B3BFD"/>
<path d="M220.267 99.4146H218.368C225.014 97.0485 231.603 94.5873 238.306 92.3353C248.418 88.9144 258.586 85.6835 268.688 82.3102C268.109 83.0989 267.691 84.3722 266.941 84.6193C251.399 89.6176 235.828 94.5018 220.267 99.4146Z" fill="#7B33FD"/>
<path d="M325.653 140.275L322.805 133.623C330.087 143.449 337.331 153.312 344.642 163.081C348.021 167.576 351.582 171.937 355.085 176.384C360.649 184.328 366.032 192.415 371.881 200.141C373.865 202.754 374.729 204.892 373.124 207.742H371.225C370.998 206.26 371.225 204.512 370.475 203.343C367.399 198.373 364.038 193.584 360.782 188.738L348.439 171.633L345.591 167.832L336.097 154.529L325.653 140.275Z" fill="#883BFD"/>
<path d="M373.125 207.742C374.72 204.892 373.866 202.744 371.881 200.14C366.033 192.424 360.65 184.338 355.086 176.384V175.434C357.365 178.18 359.748 180.85 361.903 183.701C366.052 189.184 370.011 194.819 374.188 200.292C376.695 203.571 376.439 206.27 373.125 208.693V207.742Z" fill="#8436FD"/>
<path d="M305.716 106.066C307.387 107.568 309.4 108.831 310.653 110.627C314.849 116.604 318.78 122.772 322.806 128.872C318.334 123.076 313.843 117.298 309.409 111.473C308.089 109.744 306.941 107.872 305.716 106.066Z" fill="#8134FD"/>
<path d="M301.918 308.468C306.032 302.608 310.146 296.749 314.26 290.889C315.21 289.482 316.159 288.038 317.109 286.613C320.992 281.709 324.961 276.873 328.73 271.884C334.426 264.358 339.942 256.68 345.601 249.154C346.456 248.233 347.412 247.411 348.449 246.702L345.601 253.354C341.234 259.759 336.904 266.192 332.489 272.559C329.641 276.654 326.679 280.664 323.764 284.712C322.527 285.656 321.388 286.723 320.365 287.895C313.254 297.807 306.304 307.851 299.136 317.695C297.94 319.349 295.956 320.432 294.332 321.772C295.49 319.824 296.677 317.885 297.797 315.909C299.184 313.448 300.541 310.948 301.918 308.468Z" fill="#5D24EA"/>
<path d="M323.754 288.513L319.956 297.065C318.228 299.26 316.339 301.351 314.82 303.717C311.374 309.048 308.108 314.493 304.766 319.871C303.493 321.449 302.231 323.036 300.968 324.622C298.436 327.79 295.904 330.957 293.372 334.125C292.688 334.407 292.048 334.788 291.474 335.256C285.673 341.746 284.904 341.907 276.511 338.544C274.916 337.897 273.254 337.422 271.631 336.871L246.851 328.423H249.699L259.193 330.324L272.485 335.075C280.081 340.073 285.255 340.178 288.872 335.189C299.905 319.985 310.899 304.743 321.855 289.463L323.754 288.513Z" fill="#541FD9"/>
<path d="M321.856 289.463C310.868 304.718 299.873 319.96 288.872 335.189C285.255 340.178 280.062 340.073 272.485 335.075H274.384C277.935 335.417 282.996 337.403 284.742 335.788C288.787 332.034 291.227 326.551 294.322 321.772C295.946 320.432 297.93 319.349 299.126 317.695C306.294 307.822 313.244 297.807 320.355 287.895C321.379 286.723 322.517 285.656 323.754 284.712L321.856 289.463Z" fill="#5821E1"/>
<path d="M345.592 253.354L348.44 246.702L358.884 234.349L345.592 253.354Z" fill="#5C23E9"/>
<path d="M304.766 319.871C308.108 314.464 311.412 309.019 314.82 303.717C316.339 301.379 318.228 299.289 319.956 297.065L321.855 296.115V298.966L308.563 317.971L304.766 319.871Z" fill="#4D1BCA"/>
<path d="M321.855 298.966V296.115L324.704 291.364C327.372 288.181 329.954 284.931 332.745 281.861C333.571 280.959 334.958 280.569 336.097 279.961C331.976 285.979 327.862 291.997 323.754 298.016L321.855 298.966Z" fill="#4C1AC9"/>
<path d="M275.334 349.329V350.279L256.346 343.627L275.334 349.329Z" fill="#2F0F80"/>
<path d="M128.172 141.225C134.315 144.399 132.16 150.167 132.388 155.118C132.685 161.453 132.834 167.816 132.834 174.208C132.834 179.216 132.435 184.214 132.416 189.222C132.35 204.131 132.416 219.041 132.416 233.95C132.34 249.04 132.122 264.12 132.017 279.21C131.96 287.335 132.805 288.817 140.287 291.364C151.898 295.307 163.595 298.966 175.273 302.71C178.549 303.755 181.919 304.61 185.176 305.618L187.075 307.518H181.378C180.571 306.663 179.916 305.342 178.938 305.019C164.583 300.391 150.189 295.897 135.806 291.364C130.878 289.292 129.008 285.852 129.036 280.284C129.255 237.133 129.112 193.983 129.226 150.832C129.226 146.585 128.4 143.088 125.02 140.38C124.071 139.61 122.884 138.603 122.637 137.529C120.738 129.072 113.703 125.584 107.446 121.375C106.731 120.8 106.067 120.164 105.462 119.474L120.653 128.026C123.134 132.385 125.64 136.785 128.172 141.225Z" fill="#551CE1"/>
<path d="M163.302 303.717L145.263 298.016C142.158 296.78 138.996 295.659 135.977 294.215C134.55 293.4 133.208 292.445 131.971 291.364L135.768 292.314C139.813 293.892 143.829 295.564 147.921 297.065C155.241 299.679 162.609 302.159 169.948 304.667L163.302 303.717Z" fill="#4E1CCC"/>
<path d="M169.947 304.667C162.608 302.121 155.24 299.641 147.92 297.065C143.828 295.602 139.812 293.93 135.768 292.314V291.364C150.151 295.897 164.545 300.391 178.9 305.019C179.849 305.342 180.533 306.663 181.34 307.518L169.947 304.667Z" fill="#541FDA"/>
<path d="M294.322 321.772C291.227 326.523 288.787 332.034 284.742 335.788C282.996 337.403 277.935 335.417 274.384 335.075C273.748 334.439 273.121 333.802 272.485 333.175H275.334L278.182 334.125C281.03 336.425 282.207 333.545 283.299 332.091C288.265 325.44 292.927 318.598 297.854 311.927C298.879 310.53 300.541 309.609 301.918 308.468C300.541 310.949 299.183 313.448 297.788 315.909C296.667 317.885 295.48 319.824 294.322 321.772Z" fill="#5E25EE"/>
<path d="M187.038 307.518L185.139 305.618H187.987L206.975 311.319C224.388 317.071 241.794 322.83 259.194 328.594C260.494 329.094 261.762 329.671 262.992 330.324H259.194L249.7 328.423C247.794 327.379 245.821 326.462 243.794 325.677C224.894 319.577 205.975 313.524 187.038 307.518Z" fill="#5C23EA"/>
<path d="M259.193 330.324H262.991L272.485 333.175C273.121 333.802 273.748 334.439 274.384 335.075H272.485L259.193 330.324Z" fill="#5C23E9"/>
<path d="M135.768 135.524C147.465 131.723 159.161 128.055 170.839 124.273C184.131 119.978 197.319 115.616 210.563 111.302C223.504 107.074 236.426 102.797 249.404 98.6829C257.057 96.2598 264.785 94.0932 272.485 91.8126L275.333 95.6136C272.295 93.8651 269.437 94.0932 266.067 95.3095C253.364 99.9277 240.537 104.194 227.701 108.442C222.811 110.067 217.77 111.226 212.842 112.737C211.754 113.231 210.739 113.87 209.823 114.637L185.138 122.239L158.554 130.792C156.759 131.21 154.946 131.58 153.171 132.055C147.683 133.509 142.205 135.011 136.717 136.493L135.768 135.524Z" fill="#7B36FE"/>
<path d="M191.784 111.768C187.037 113.792 182.242 115.873 177.428 117.811C173.925 119.227 170.384 120.567 166.795 121.726C162.703 123.047 158.535 124.121 154.452 125.318C148.756 126.981 142.936 128.492 137.363 130.497C136.214 130.906 135.711 133.167 134.904 134.574V133.623C134.714 130.136 135.264 128.169 139.793 127.57C145.49 126.829 150.883 124.245 156.38 122.373C164.744 119.522 173.08 116.576 181.426 113.668L191.784 111.768Z" fill="#7E36FE"/>
<path d="M136.718 136.474C142.205 134.992 147.684 133.49 153.171 132.037C154.947 131.561 156.76 131.191 158.555 130.773C151.852 133.262 145.158 135.771 138.417 138.147C138.085 138.261 137.297 137.063 136.718 136.474Z" fill="#7834FD"/>
<path d="M191.785 111.768L181.341 113.668C186.164 110.2 191.671 109.031 197.481 108.917L191.785 111.768Z" fill="#7D34FE"/>
<path d="M169.948 304.667L181.341 307.518H183.24L192.734 311.319L224.065 321.772L232.61 324.623C233.237 325.259 233.873 325.886 234.509 326.523C225.223 323.625 215.947 320.67 206.634 317.857C203.966 317.049 201.165 316.65 198.431 316.07H196.532C191.861 314.17 187.227 312.165 182.499 310.416C176.138 308.079 169.701 305.941 163.302 303.717L169.948 304.667Z" fill="#4D1BC9"/>
<path d="M234.508 326.523C233.872 325.886 233.236 325.259 232.609 324.622L246.851 328.423L271.612 336.871C273.235 337.422 274.897 337.897 276.492 338.544C284.885 341.917 285.654 341.746 291.455 335.256C292.029 334.788 292.669 334.407 293.354 334.125C292.718 335.702 292.091 337.289 291.455 338.876C289.556 342.221 286.594 343.295 282.91 342.677L234.508 326.523Z" fill="#501DD0"/>
<path d="M282.929 342.677C286.612 343.295 289.575 342.221 291.474 338.876L300.968 324.622C302.231 323.045 303.493 321.458 304.766 319.871L308.563 317.971L307.614 321.772C303.057 327.692 298.385 333.545 293.971 339.579C290.714 343.988 288.625 344.768 282.929 342.677Z" fill="#4A1AC2"/>
<path d="M373.125 207.742V209.643C366.479 212.921 365.529 212.769 361.134 206.735C357.754 202.079 354.564 197.233 351.288 192.539C353.814 195.389 356.396 198.174 358.883 201.091C360.602 203.124 362.093 205.338 363.764 207.41C366.935 211.344 368.074 211.372 372.213 207.761L373.125 207.742Z" fill="#823BFD"/>
<path d="M360.782 188.738C364.039 193.584 367.428 198.373 370.476 203.343C371.207 204.512 370.998 206.26 371.226 207.742C367.903 209.994 365.729 207.666 364.096 205.471C359.586 199.447 355.38 193.204 351.089 187.008C350.754 186.351 350.502 185.655 350.339 184.937C348.44 181.829 346.75 178.617 344.699 175.634C339.952 168.773 335.205 161.96 330.211 155.27C329.1 153.769 327.192 152.856 325.654 151.678L322.805 145.026C323.299 144.437 324.305 143.762 324.21 143.287C323.413 139.106 318.4 138.28 317.156 133.699C316.207 130.222 311.64 127.855 309.257 124.577C307.823 122.62 307.491 119.826 306.665 117.469C311.82 118.515 312.105 123.893 314.992 126.972C318.846 131.115 322.122 135.799 325.654 140.275L336.097 154.529L345.592 167.832L348.44 171.633L360.782 188.738Z" fill="#8A3EFE"/>
<path d="M306.665 117.469C307.491 119.864 307.823 122.62 309.256 124.577C311.64 127.855 316.206 130.221 317.156 133.699C318.399 138.28 323.412 139.106 324.21 143.287C324.305 143.762 323.261 144.437 322.805 145.026L317.108 140.275C310.557 131.013 304.003 121.761 297.446 112.518C293.923 107.568 290.524 102.503 286.727 97.8752C284.84 95.7826 282.529 94.1174 279.948 92.9909C276.093 91.1665 273.359 88.8574 273.454 84.2582H275.352C275.561 88.5248 277.735 91.6131 281.894 92.0502C283.698 92.2402 285.749 90.0927 287.695 89.0094L289.594 89.9596C291.673 93.3805 293.724 96.8109 295.832 100.213C299.411 105.943 303.047 111.701 306.665 117.469Z" fill="#893EFE"/>
<path d="M325.653 151.678C327.191 152.856 329.1 153.769 330.211 155.27C335.176 161.922 339.98 168.773 344.699 175.634C346.75 178.617 348.497 181.829 350.338 184.937C347.633 181.753 344.718 178.731 342.278 175.368C336.61 167.557 331.179 159.584 325.653 151.678Z" fill="#873EFE"/>
<path d="M317.108 140.275L322.805 145.026L325.653 151.678L317.108 140.275Z" fill="#873EFE"/>
<path d="M287.677 88.9619C285.73 90.0452 283.679 92.1927 281.876 92.0027C277.717 91.5655 275.543 88.4773 275.334 84.2107C278.182 80.6853 281.372 80.7043 284.828 83.2604C282.227 83.764 278.61 81.6925 277.299 86.7573L283.85 89.608L285.749 84.1631L287.677 88.9619Z" fill="#8D41FD"/>
<path d="M285.777 84.2107L283.878 89.6556L277.327 86.8048C278.637 81.74 282.255 83.8115 284.856 83.3079L285.777 84.2107Z" fill="#9142FE"/>
<path d="M246.851 328.423L232.609 324.622L224.065 321.772C221.594 320.54 219.058 319.443 216.469 318.484C208.608 315.985 200.671 313.733 192.734 311.319L183.239 307.518H187.037C205.962 313.555 224.881 319.608 243.794 325.677C245.82 326.462 247.793 327.379 249.699 328.423H246.851Z" fill="#541FDA"/>
<path d="M300.968 324.613L291.474 338.867C292.11 337.28 292.736 335.693 293.372 334.115C295.904 330.948 298.436 327.78 300.968 324.613Z" fill="#4E1BCD"/>
<path d="M192.733 311.319C200.633 313.695 208.57 315.985 216.469 318.484C219.058 319.443 221.593 320.54 224.064 321.772L192.733 311.319Z" fill="#521ED6"/>
</svg>
