<svg width="62" height="60" viewBox="0 0 62 60" fill="none" xmlns="http://www.w3.org/2000/svg">
<g id="Asset 6 3" clip-path="url(#clip0_255_103)">
<g id="Layer 2">
<g id="Layer 1">
<path id="Vector" d="M0 30.3049V29.513C0.712091 29.9921 0.641922 29.1765 0.721187 28.9614C1.18379 27.6812 1.53074 26.3588 1.97644 25.072C2.54819 23.4209 3.18232 21.7923 3.78136 20.1505C4.28121 18.7806 4.77586 17.4089 5.26532 16.0354C5.45503 15.5075 5.7552 14.9796 5.77599 14.4372C5.79549 13.929 5.97871 13.8327 6.36724 13.8076C7.09102 14.2656 7.82261 14.7117 8.5373 15.1842C9.83673 16.0381 11.118 16.9131 12.4174 17.763C12.624 17.895 12.8878 17.9425 13.1243 18.027L13.3842 18.1589C13.8 18.514 14.1704 18.964 14.642 19.2042C15.5322 19.6582 15.7245 20.3735 15.6907 21.2829C15.6387 22.6968 15.6123 24.1107 15.6114 25.5247C15.6114 27.8132 15.6426 30.1003 15.6595 32.3875C15.6673 33.3021 15.6829 34.2154 15.6803 35.13C15.6803 35.9048 15.6413 36.6781 15.6491 37.4515C15.6569 38.3239 15.6985 39.195 15.7245 40.066V40.198C15.3632 39.8839 15.1124 40.198 14.8487 40.3683C14.3497 40.7022 13.8689 41.0638 13.3673 41.3911C12.2875 42.0945 11.1907 42.7716 10.1187 43.483C8.9856 44.2326 7.85509 44.9901 6.75187 45.7847C6.20871 46.1806 6.00989 45.9443 5.81758 45.4362C5.49791 44.6087 5.14447 43.7957 4.80791 42.9748C4.52594 42.2476 4.23746 41.5231 3.96588 40.7932C3.78786 40.3155 3.63582 39.8271 3.47339 39.3415C2.9991 37.9372 2.5313 36.5316 2.04401 35.13C1.70486 34.1494 1.3748 33.1636 0.979775 32.2067C0.710792 31.5508 0.331356 30.9384 0 30.3049Z" fill="#30107F"/>
<path id="Vector_2" d="M0 30.3049C0.331356 30.9384 0.710792 31.5507 0.983673 32.2093C1.3735 33.1662 1.70876 34.152 2.04791 35.1326C2.5313 36.5343 2.9991 37.9398 3.47729 39.3441C3.63972 39.8271 3.79175 40.3154 3.96978 40.7958C4.24136 41.527 4.52983 42.2476 4.81181 42.9774C4.8365 43.2071 4.82091 43.4512 4.89498 43.6624C5.23023 44.6245 5.59018 45.5774 5.9878 46.657C6.61413 46.2795 7.27554 45.9126 7.90317 45.4929C9.55865 44.3856 11.192 43.2414 12.8501 42.1381C13.7922 41.5112 14.7668 40.9357 15.7271 40.3379L16.1169 40.8658C15.5763 41.1218 15.0033 41.3264 14.5004 41.6431C13.2504 42.435 12.0315 43.2717 10.8035 44.0927C9.70549 44.8265 8.62176 45.5853 7.50684 46.2914C6.96368 46.6346 6.47639 47.1532 5.74221 47.0688L3.0017 39.3296C2.50921 37.9332 1.53463 35.2686 0.259887 31.5877C0.150735 31.2696 0.0597741 31.007 0 30.8301V30.3049Z" fill="#2E107A"/>
<path id="Vector_3" d="M39.9789 0.143858L40.3103 0.275837L39.7632 0.345785C39.5033 0.567509 39.1447 0.74172 39.0264 1.02283C38.8276 1.49004 38.7964 2.02719 38.6795 2.53135C38.135 4.89112 37.5386 7.23901 37.0604 9.61067C36.8849 10.4804 36.5042 10.9502 35.6921 11.2076C33.1621 12.01 30.645 12.8507 28.1228 13.6782C26.6276 14.1692 25.1324 14.6602 23.6372 15.1511C21.8778 15.7305 20.117 16.3086 18.3615 16.8998C17.8846 17.0608 17.7871 17.4357 18.0626 17.8989V18.1629L17.8027 18.5588H17.6728V18.2948C17.6728 18.1193 17.6871 17.9411 17.6728 17.7669C17.6117 17.1295 17.8339 16.7256 18.494 16.5791C18.9735 16.4696 19.4348 16.2716 19.9039 16.1132C22.4144 15.2633 24.921 14.3975 27.4406 13.5687C30.2474 12.6448 33.0607 11.7421 35.8766 10.846C36.3509 10.6955 36.5744 10.4078 36.6562 9.92213C36.7862 9.16986 36.959 8.4255 37.1292 7.6785C37.6139 5.57477 38.0882 3.46707 38.6119 1.37258C38.7145 0.962124 39.0199 0.604463 39.233 0.221725L39.2564 0.203248L39.541 0.122742L39.9789 0.143858Z" fill="#7129FD"/>
<path id="Vector_4" d="M1.27215 25.5061C1.78586 24.3367 2.2251 23.135 2.58718 21.9084C3.693 18.1417 4.6156 16.1436 5.72532 13.0329C5.78379 12.8692 5.96831 12.7504 6.09436 12.6105L6.23729 13.0144C6.23729 13.1028 6.23729 13.1912 6.23729 13.2783C6.28147 13.4539 6.32436 13.6294 6.36724 13.8063C5.97741 13.8313 5.79549 13.9277 5.77599 14.4358C5.7552 14.9743 5.45503 15.5035 5.26532 16.0341C4.77413 17.4066 4.27948 18.7783 3.78136 20.1491C3.18232 21.7909 2.54819 23.4196 1.97644 25.0706C1.53074 26.3574 1.18379 27.6798 0.721187 28.96C0.641921 29.1751 0.712091 29.9908 0 29.5117C0.423616 28.1769 0.847665 26.8418 1.27215 25.5061Z" fill="#321183"/>
<path id="Vector_5" d="M22.0908 0.10031L23.3318 0.0765538C31.1375 -0.0976577 33.93 0.0765538 38.5196 0.087112C38.7665 0.105992 39.0115 0.144382 39.2525 0.201933L39.2291 0.22041C38.4728 0.248126 37.7165 0.299597 36.9616 0.296958C35.2398 0.296958 33.5194 0.246806 31.7989 0.244166C30.1967 0.244166 28.5958 0.270562 26.991 0.290359C25.7656 0.304876 24.539 0.348429 23.3136 0.333912C22.9069 0.328632 22.4988 0.182136 22.0908 0.10031Z" fill="#6A23FD"/>
<path id="Vector_6" d="M21.1811 59.7361C20.4014 59.2425 19.5867 58.8043 18.8577 58.2473C15.2037 55.456 11.5744 52.6343 7.94244 49.8218C7.89597 49.7783 7.85255 49.7316 7.8125 49.6819C8.2842 49.4312 8.78708 49.2293 9.21849 48.9204C10.1281 48.2724 11.1585 47.8316 11.972 47.0015C12.5308 46.43 13.3377 46.1093 14.0342 45.6751C14.5878 45.3293 15.1504 44.9954 15.6884 44.6259C15.8287 44.5295 15.895 44.3197 15.995 44.1626L16.19 44.3804C16.5603 44.1455 16.9099 43.9185 17.2633 43.698C17.4972 43.5529 17.7454 43.2889 17.9702 43.3021C18.3444 43.3298 18.6992 43.5661 19.0721 43.6717C19.9492 43.9356 20.8316 44.1745 21.7126 44.4239H21.8425C21.9205 44.515 21.9803 44.6562 22.0764 44.6879C23.4239 45.1366 24.7753 45.5721 26.1268 46.0077C27.3131 46.3917 28.5047 46.7599 29.6872 47.1585C30.5033 47.4344 31.2998 47.7722 32.1172 48.0428C33.0826 48.3648 34.0546 48.6749 35.0383 48.9336C35.7881 49.1303 36.5638 49.2253 37.3227 49.389C37.5969 49.4483 37.9477 49.4972 38.1024 49.6872C38.3064 49.938 38.3713 50.3168 38.4545 50.652C38.5 50.8394 38.4623 51.0479 38.4623 51.2987C38.7534 51.4214 39.1757 52.9471 38.9821 53.4856L39.3719 53.7865L39.1978 53.8221V54.9096H39.3277L39.4577 54.7103C39.5656 54.9341 39.6203 55.1804 39.6175 55.4296C39.65 55.9351 39.533 56.5356 39.763 56.9223C40.0931 57.4792 40.0788 58.0217 40.1438 58.601C40.1919 59.0418 40.3543 59.4787 40.9884 59.3203C41.169 59.2755 41.3899 59.3942 41.5913 59.4378L40.9325 59.7374C40.8273 59.6621 40.7246 59.5262 40.6168 59.5223C39.8137 59.4959 39.0081 59.4813 38.205 59.4919C37.0615 59.5064 35.9206 59.5698 34.7784 59.5684C33.0528 59.5684 31.3284 59.5051 29.6027 59.5011C27.45 59.4959 25.296 59.5099 23.1407 59.5434C22.487 59.5552 21.8308 59.6687 21.1811 59.7361Z" fill="#260D66"/>
<path id="Vector_7" d="M56.9324 45.2686C56.6478 46.0908 56.3749 46.9184 56.0682 47.7313C55.9916 47.9333 55.8084 48.0916 55.6667 48.2698L52.6273 50.4976C52.4923 50.5548 52.362 50.6227 52.2375 50.7009C51.3695 51.333 50.5054 51.9718 49.6386 52.6093C49.5373 52.3717 49.4346 52.1355 49.3476 51.9296L48.5458 52.0893C48.5562 52.2358 48.5679 52.3955 48.5744 52.4852L49.1721 52.5776L48.4432 53.3919C48.3223 53.5239 48.2002 53.6638 48.0793 53.801L47.9494 53.933L47.3152 53.7905C47.4842 54.5916 46.9566 54.4504 46.4264 54.3329L46.7058 54.7381L46.0561 55.0759L46.264 54.585C46.1484 54.6114 46.0041 54.5995 45.9547 54.6628C45.6052 55.1023 45.2335 54.973 44.8372 54.7486C44.3447 54.4715 43.9029 54.5295 43.5378 54.9888C43.6067 54.7552 43.6755 54.5229 43.747 54.2841C43.1791 54.0689 42.7581 54.6391 42.8933 55.5273L42.1136 55.6487C41.5938 53.3061 41.0741 50.9622 40.5309 48.6275C40.4945 48.4717 40.2047 48.3794 40.0332 48.2579L40.553 47.73C40.553 47.6851 40.553 47.6416 40.553 47.598C40.7089 47.4951 40.909 47.4265 41.0143 47.2853C41.8004 46.2294 42.5658 45.1736 43.3403 44.1072C43.4884 43.904 43.6469 43.7113 43.8003 43.5067L44.5578 43.8459C44.5747 43.5173 44.5942 43.124 44.615 42.732L44.7593 42.6924C44.8619 43.0501 44.9633 43.4077 45.101 43.8908C45.3375 44.0425 45.6676 44.0782 46.0522 43.7271C46.1821 43.6044 46.7877 43.7271 46.7929 43.7812C46.841 44.2748 47.171 44.1521 47.3503 44.0109C47.4972 43.8947 47.5569 43.6057 47.5699 43.3893C47.5829 43.1728 47.4842 42.9722 47.4231 42.7676C47.4114 42.728 47.3464 42.7069 47.2516 42.6357C47.2373 42.8759 47.2269 43.0487 47.2165 43.2216C46.4784 43.1781 45.6273 42.3519 45.5194 41.6379C45.3479 41.8438 45.1673 42.0629 44.9867 42.2819L44.8398 42.1658L45.7494 40.6032C45.9781 40.26 46.2224 39.9261 46.4329 39.5724C46.6928 39.1316 46.9306 38.6763 47.1788 38.2263L48.3483 36.6425L49.2579 35.5867L49.8686 36.4155C50.6353 36.079 50.7639 35.423 50.4573 34.6364C50.673 34.5823 50.8471 34.4939 51.0056 34.5045C51.4838 34.5454 51.7333 34.4715 51.5644 33.8776C51.4734 33.5595 51.9282 33.2045 52.0335 33.314C52.3947 33.6968 52.3817 33.1253 52.6949 33.1332C52.4753 33.5291 52.2986 33.8406 52.1232 34.156L52.3597 34.3514C52.6702 34.0755 53.1016 33.8565 53.2602 33.5093C53.4395 33.1134 53.3745 32.6093 53.4161 32.1513C54.2789 32.1988 55.1418 32.2424 56.0033 32.2938C56.2918 32.311 56.5789 32.373 56.8661 32.3664C58.1655 32.3374 59.465 32.2859 60.7579 32.2608C60.8385 32.2608 60.9229 32.4047 60.9035 32.3928L61.6246 32.0734C60.2091 36.3988 58.6771 40.7611 57.0285 45.1604C56.8466 45.6434 56.6647 46.1243 56.4828 46.6029C56.5755 45.815 56.7289 45.0358 56.9415 44.2722C57.0402 43.9198 57.1468 43.5872 57.2585 43.2731L56.1891 42.3955C56.3268 42.2226 56.4633 42.0523 56.5984 41.8807L56.4828 41.7224L55.7421 42.0893C55.772 42.1315 55.7421 42.0642 55.6979 42.0325C55.6537 42.0008 55.5914 42.0325 55.4965 42.0325C55.5095 42.5868 55.386 43.157 56.0319 43.4711L55.772 43.772L54.7324 42.3638C54.2412 42.7056 54.0827 42.6423 53.7864 41.89C53.5811 42.3889 53.4096 42.8019 53.1614 43.4024C53.7449 43.0606 54.1867 42.6 54.6259 43.1385C54.557 43.3615 54.4959 43.5489 54.444 43.7364L54.6921 43.6426C54.7829 43.7964 54.8814 43.9453 54.9871 44.0887C55.1301 44.2669 55.3692 44.4042 55.4302 44.6021C55.5992 45.1459 55.8201 45.2475 56.1449 44.8291L56.9324 45.2686ZM55.1132 37.9729L54.0073 38.7106L54.0437 38.8347L54.7103 38.6103C54.7285 38.8835 54.661 39.1871 54.7792 39.36C54.952 39.6107 55.2236 39.6239 55.3328 39.228L55.7395 39.36C55.602 39.5179 55.4549 39.6669 55.299 39.806C55.2052 39.8545 55.1035 39.8849 54.9988 39.8958C55.0651 40.0132 55.108 40.2073 55.2015 40.2363C55.5064 40.3461 55.8267 40.4058 56.1501 40.4131C56.5049 40.4026 56.8973 40.3564 57.1897 40.1848C57.3937 40.066 57.6484 39.6648 57.0597 39.5817C57.0259 39.5817 57.0051 39.4853 56.9493 39.3771L57.456 39.2755L57.3456 38.4731L57.0285 38.9112L56.5088 38.671C56.4893 39.2267 56.8037 39.7823 56.4061 40.0792C56.1631 39.6411 55.9422 39.2425 55.6576 38.7317L56.7323 38.2434C57.2676 38.0006 57.382 37.4449 56.961 37.119C57.6925 36.4934 57.0025 35.9377 56.8427 35.3729C56.7998 35.2237 56.4672 35.1591 56.2216 35.0324L56.5984 35.9417L56.4295 36.0156L55.6862 35.2238L55.3821 35.6857L54.7246 35.171L53.8228 35.7965L54.2217 36.3865L55.017 36.0829L55.6953 37.2628H55.4068V38.3054L55.2769 38.3279L55.1132 37.9729Z" fill="#3A149A"/>
<path id="Vector_8" d="M41.5818 59.4431C41.3804 59.3995 41.1595 59.2807 40.9789 59.3256C40.3448 59.484 40.1823 59.0471 40.1343 58.6063C40.0693 58.0269 40.0836 57.4845 39.7535 56.9275C39.5235 56.5409 39.6405 55.9403 39.608 55.4349C39.6108 55.1857 39.556 54.9394 39.4482 54.7156L39.3182 54.9149H39.1883V53.8274L39.3624 53.7917L38.9726 53.4908C39.1688 52.9524 38.7465 51.4267 38.4528 51.304C38.4528 51.0545 38.4905 50.8447 38.445 50.6573C38.3618 50.322 38.2969 49.9433 38.0929 49.6925C37.9395 49.5024 37.5887 49.4536 37.3132 49.3942C36.5543 49.2306 35.7786 49.1303 35.0288 48.9389C34.0451 48.6749 33.0731 48.3701 32.1076 48.048C31.2903 47.7775 30.4937 47.4396 29.6777 47.1638C28.4952 46.7679 27.3036 46.397 26.1172 46.0129C24.7658 45.5761 23.4144 45.1406 22.0669 44.6932C21.9707 44.6615 21.911 44.5203 21.833 44.4292C22.4243 44.5797 23.0116 44.7433 23.6067 44.8753C23.8799 44.9198 24.1554 44.9472 24.4319 44.9571C24.6606 45.0469 24.8867 45.1485 25.1193 45.2211C26.1367 45.5576 27.162 45.8704 28.1743 46.2228C29.4607 46.6728 30.7315 47.1664 32.018 47.6138C33.1394 48.0098 34.2647 48.3872 35.3965 48.7225C36.5193 49.0514 37.6848 49.205 38.853 49.1778C38.9414 49.2794 39.0791 49.3691 39.1129 49.4866C39.2688 50.0963 39.3858 50.7166 39.5365 51.3343C39.7769 52.3083 40.0563 53.2731 40.2811 54.2497C40.6151 55.6645 40.9191 57.0872 41.2453 58.5047C41.3427 58.9257 41.561 59.1263 41.9756 58.8175H42.381L41.5818 59.4431Z" fill="#270D67"/>
<path id="Vector_9" d="M42.0498 1.09412C42.4929 1.40163 43.1634 1.86883 43.9704 2.45085C48.5054 5.72392 48.1286 5.64341 50.3116 7.34329C51.9576 8.62788 53.5957 9.92567 55.2261 11.2367C55.3989 11.3686 55.4951 11.6102 55.6263 11.8002C55.6503 11.9281 55.6811 12.0545 55.7186 12.179C56.5372 14.5071 57.3576 16.8334 58.1797 19.158C59.0971 21.7474 60.0184 24.3359 60.9436 26.9236C61.1203 27.4251 61.2854 27.9319 61.4777 28.4994C60.9436 28.5813 60.5252 28.7 60.1055 28.6987C57.8639 28.6987 55.6211 28.6631 53.3796 28.6472C53.0411 28.6246 52.7012 28.6441 52.3673 28.7053C52.1334 28.7634 51.9359 28.9693 51.7176 29.1171V28.9851C51.78 28.898 51.8904 28.8149 51.8982 28.7211C51.945 28.2064 52.1945 28.0533 52.7026 28.0745C53.6317 28.114 54.5647 28.0573 55.4964 28.0613C56.3787 28.0613 57.2623 28.1206 58.1446 28.1061C59.0893 28.0903 60.0353 28.0203 61.0398 27.9742C60.8994 27.4911 60.7916 27.1163 60.6837 26.7428C60.2328 25.5194 59.7741 24.2999 59.3323 23.0725C58.7333 21.3937 58.1511 19.7097 57.5638 18.0283C57.148 16.8405 56.7009 15.6526 56.3319 14.449C55.8316 12.8164 55.2677 11.2815 53.6161 10.4237C52.9573 10.0818 52.4193 9.49982 51.8242 9.02997C51.0809 8.44399 50.3441 7.84877 49.5878 7.27994C48.9797 6.82198 48.33 6.41944 47.7283 5.95224C46.542 5.02839 45.3764 4.07947 44.2004 3.14374C43.6325 2.69237 43.0608 2.24629 42.4916 1.79888L42.2317 1.53492L42.0498 1.09412Z" fill="#762BFE"/>
<path id="Vector_10" d="M51.718 29.1171C51.9324 28.9746 52.1299 28.7634 52.3677 28.7053C52.7015 28.6441 53.0415 28.6246 53.3799 28.6473C55.6215 28.6631 57.8643 28.6974 60.1058 28.6987C60.5255 28.6987 60.944 28.5813 61.478 28.4995C61.2857 27.9319 61.1207 27.4251 60.944 26.9236C60.0248 24.3351 59.1048 21.7466 58.184 19.158C57.3601 16.8343 56.5397 14.508 55.7228 12.179C55.6854 12.0545 55.6546 11.9281 55.6306 11.8002C56.0555 12.7544 56.5285 13.6902 56.8962 14.6668C57.6148 16.5739 58.2801 18.5008 58.9584 20.4224C59.6367 22.344 60.2916 24.2498 60.9622 26.1568C61.2025 26.8405 61.4585 27.5189 61.708 28.1999C61.6924 29.1079 61.1337 29.1422 60.4164 29.1316C57.8864 29.0934 55.3564 29.1316 52.8264 29.1079C52.3248 29.1079 52.0467 29.2649 51.9817 29.777C51.8947 29.8641 51.8089 29.9525 51.7219 30.041H51.332C51.5049 29.7981 52.0142 29.7282 51.7219 29.2491L51.718 29.1171Z" fill="#6D27FC"/>
<path id="Vector_11" d="M24.4297 44.9545C24.1533 44.9446 23.8777 44.9172 23.6046 44.8727C23.0095 44.7407 22.4221 44.5771 21.8309 44.4266H21.7009C21.1097 44.1692 20.5314 43.8459 19.922 43.6717C18.9851 43.4077 18.0768 42.827 17.0476 43.182C16.5734 43.3457 16.1095 43.578 15.9834 44.1626C15.7391 44.1534 15.4311 44.0465 15.2635 44.1626C14.9309 44.3857 14.71 44.7777 14.3812 45.0099C13.4911 45.6355 12.5737 46.2175 11.6524 46.8062C11.143 47.1348 10.5609 47.3737 10.1165 47.7736C9.50539 48.334 8.77385 48.7416 7.98018 48.964C7.79956 49.0142 7.67871 49.286 7.53058 49.4563L6.88086 48.9152C6.93284 48.8479 6.99261 48.7159 7.03679 48.7212C8.11792 48.8334 8.79493 47.9821 9.60188 47.5254C10.9013 46.7903 12.0708 45.8203 13.3053 44.9624C13.9953 44.482 14.71 44.0386 15.3961 43.5529C16.2394 42.955 17.1191 42.4971 18.1899 42.5736L20.139 43.2335C20.139 43.3114 20.1156 43.4513 20.139 43.4566C20.6003 43.5965 21.0759 43.6928 21.5294 43.8525C22.5014 44.2128 23.463 44.5876 24.4297 44.9545Z" fill="#280D6A"/>
<path id="Vector_12" d="M21.1807 59.7361C21.8304 59.6687 22.4879 59.5552 23.1428 59.5434C25.2973 59.5073 27.4513 59.4932 29.6049 59.5011C31.3306 59.5011 33.0549 59.5645 34.7806 59.5684C35.9228 59.5684 37.0637 59.5064 38.2072 59.4919C39.0102 59.4813 39.8159 59.4919 40.6189 59.5223C40.7268 59.5223 40.8294 59.6621 40.9347 59.7374C40.4994 59.8245 40.0628 59.9868 39.6275 59.9881C33.8943 60.0057 28.1617 60.0057 22.4294 59.9881C22.011 59.9868 21.5952 59.8245 21.1807 59.7361Z" fill="#260D63"/>
<path id="Vector_13" d="M51.7175 30.0409C51.8046 29.9525 51.8904 29.8641 51.9774 29.777C52.2373 29.4312 52.5791 29.352 52.9923 29.3731C53.7057 29.4101 54.4217 29.4061 55.1364 29.4074C57.2761 29.4074 59.4128 29.4074 61.5465 29.4074C61.6504 29.1158 61.744 28.8544 61.8388 28.5918L61.9688 29.7796C61.5166 29.868 61.0592 30.0277 60.6109 30.0317C58.0224 30.0554 55.4352 30.0317 52.848 30.0554C52.6012 30.0554 52.3569 30.2191 52.1113 30.3062L50.1621 30.5702V30.4382L51.7175 30.0409Z" fill="#6624FD"/>
<path id="Vector_14" d="M18.1918 42.5789C17.121 42.497 16.2426 42.9603 15.398 43.5582C14.7119 44.0452 13.9972 44.482 13.3072 44.9677C12.074 45.8255 10.9045 46.7956 9.60379 47.5307C8.79684 47.9874 8.11984 48.8386 7.0387 48.7264C6.99452 48.7264 6.93475 48.8584 6.88277 48.9204L6.38379 48.3859C7.08548 48.4809 7.66113 48.2394 8.2108 47.7907C8.63311 47.4462 9.14379 47.2153 9.61549 46.9342C9.66746 46.9606 9.74543 47.0239 9.76752 47.0081C10.3159 46.6623 10.8733 46.3271 11.397 45.9456C11.7283 45.6774 12.0445 45.3905 12.3443 45.0865C12.929 44.5467 13.6697 44.2378 14.2662 43.7007C14.7288 43.2823 15.3213 43.0184 15.8255 42.6449C16.1708 42.4011 16.5786 42.265 16.9989 42.2533C17.4193 42.2415 17.8338 42.3547 18.1918 42.5789Z" fill="#290E6C"/>
<path id="Vector_15" d="M18.1925 42.5789C17.8347 42.3545 17.4202 42.2411 16.9999 42.2526C16.5795 42.2641 16.1717 42.4 15.8263 42.6436C15.3221 43.0184 14.7295 43.2823 14.2669 43.6994C13.6705 44.2365 12.9298 44.5454 12.3451 45.0852C11.9318 45.2752 11.4809 45.4112 11.1145 45.6698C10.583 46.0447 10.1126 46.5079 9.61625 46.9329C9.14455 47.214 8.63387 47.4449 8.21156 47.7894C7.6619 48.2381 7.08625 48.4796 6.38455 48.3846C6.37546 48.3675 6.36766 48.349 6.35856 48.3305C6.32784 48.2668 6.30135 48.2011 6.2793 48.1339C6.40598 48.1295 6.53207 48.1141 6.65613 48.0877C6.68885 48.0759 6.72291 48.0683 6.75749 48.0652C7.17981 48.0586 7.44619 47.8884 7.53715 47.4608C7.72817 47.4317 7.95427 47.4608 8.10371 47.3631C9.14325 46.6861 10.1828 45.9813 11.2224 45.2871C12.3918 44.5058 13.5613 43.7363 14.7087 42.9432C15.5716 42.3506 16.4214 41.7554 17.5493 42.0497C18.1782 42.2687 18.8098 42.4799 19.4322 42.7096C19.8506 42.8666 20.2573 43.0567 20.668 43.2375H20.1482L18.1925 42.5789Z" fill="#2A0E6F"/>
<path id="Vector_16" d="M5.73828 47.0661C6.47246 47.1506 6.95975 46.6319 7.50292 46.2888C8.61783 45.5827 9.70156 44.8238 10.7996 44.09C12.0276 43.2691 13.2464 42.4297 14.4965 41.6405C14.9994 41.3238 15.5724 41.1192 16.113 40.8632L16.5028 41.2591C16.1 41.3594 15.6504 41.3739 15.3047 41.5758C14.4172 42.0932 13.5635 42.6752 12.7202 43.2678C12.2238 43.6175 11.7755 44.0372 11.3051 44.4266L9.87569 45.3504C9.66039 45.4356 9.4515 45.5366 9.25066 45.6527C8.19941 46.3627 7.20534 47.1744 5.93839 47.4779L5.73828 47.0661Z" fill="#2D0F77"/>
<path id="Vector_17" d="M61.9834 30.9622L61.8379 31.4901C61.4415 31.6221 61.0465 31.8623 60.6476 31.8675C57.9902 31.9005 55.3316 31.8807 52.673 31.89C52.3971 31.9126 52.1235 31.9567 51.8543 32.0219C51.675 32.1394 51.4541 32.2239 51.3228 32.3836C51.0019 32.7716 50.7212 33.1966 50.4249 33.6057H50.165C50.5627 32.8468 50.8992 32.0378 51.7244 31.626C52.0619 31.5612 52.403 31.5172 52.7457 31.494C55.3212 31.4835 57.8993 31.4742 60.4748 31.494C61.0595 31.5099 61.5754 31.436 61.9834 30.9622Z" fill="#4417B6"/>
<path id="Vector_18" d="M39.7631 0.345786L40.1529 0.234924C40.5054 0.311117 40.8494 0.423434 41.1795 0.570149C41.4546 0.692163 41.7189 0.837871 41.9696 1.00568H41.5823L40.4128 0.609743C40.0789 0.588626 39.7826 0.580708 39.6813 1.03207C39.4019 2.28059 39.0809 3.51987 38.7924 4.76706C38.3298 6.76653 37.8828 8.76997 37.4241 10.7721H37.2942L36.9044 10.9041H36.7744C36.9914 10.3761 37.2838 9.86407 37.4137 9.32032C37.966 6.98694 38.4468 4.6364 39.0029 2.30566C39.1641 1.62466 39.1134 0.835426 39.7631 0.345786Z" fill="#7B2DFE"/>
<path id="Vector_19" d="M7.53711 49.4616C7.68525 49.2913 7.80609 49.0195 7.98671 48.9693C8.78366 48.7448 9.51759 48.3334 10.1295 47.7683C10.5739 47.3724 11.156 47.1295 11.6654 46.8009C12.575 46.2123 13.4976 45.6302 14.3942 45.0047C14.723 44.7724 14.9439 44.3804 15.2766 44.1574C15.4442 44.0465 15.7521 44.1574 15.9964 44.1574C15.8964 44.3144 15.8301 44.5243 15.6898 44.6206C15.1518 44.9901 14.5891 45.3241 14.0356 45.6698C13.3391 46.104 12.5321 46.4248 11.9734 46.9962C11.1599 47.8264 10.1282 48.2672 9.21988 48.9152C8.78847 49.224 8.28558 49.4259 7.81389 49.6767L7.53711 49.4616Z" fill="#270D67"/>
<path id="Vector_20" d="M61.9835 30.9621C61.582 31.4359 61.0661 31.5098 60.4749 31.5032C57.8994 31.4782 55.3213 31.4874 52.7458 31.5032C52.4031 31.5264 52.062 31.5705 51.7245 31.6352C51.4256 31.8042 51.0956 31.9348 50.8331 32.1499C50.5072 32.4449 50.1975 32.7577 49.9053 33.087C50.0286 32.9646 50.1349 32.8256 50.221 32.6739C50.772 31.2789 51.9857 31.1403 53.1967 31.1205C55.7293 31.0783 58.2645 31.1113 60.7971 31.102C61.025 31.0792 61.2504 31.035 61.4703 30.9701L62.0069 30.8381L61.9835 30.9621Z" fill="#4B19C6"/>
<path id="Vector_21" d="M41.5818 1.00568H41.9626L42.2316 1.28019V1.53359C42.2351 1.66601 42.2272 1.79848 42.2082 1.92952C41.5117 4.98878 40.8074 8.0454 40.1161 11.106C40.0069 11.5943 40.068 12.0575 40.5423 12.3585V12.6224L39.8926 11.6986C39.8952 11.2969 39.9221 10.8958 39.9731 10.4976C40.0576 10.0224 40.233 9.56447 40.3383 9.09199C40.5228 8.24337 40.6748 7.38683 40.8581 6.53557C41.1881 4.96107 41.5338 3.38921 41.8508 1.81206C41.8846 1.64841 41.7651 1.45308 41.7209 1.27227H41.5909L41.5818 1.00568Z" fill="#8030FD"/>
<path id="Vector_22" d="M51.8477 32.0206C52.1168 31.9554 52.3905 31.9112 52.6663 31.8886C55.3249 31.8794 57.9836 31.8992 60.6409 31.8662C61.0399 31.8662 61.4349 31.6207 61.8312 31.4887C61.7585 31.6805 61.6866 31.8719 61.6155 32.0628L60.8943 32.3822C60.9138 32.4007 60.8294 32.2502 60.7488 32.2502C59.4494 32.2753 58.1499 32.3268 56.857 32.3558C56.5698 32.3624 56.2826 32.3004 55.9942 32.2832C55.1326 32.2317 54.2698 32.1882 53.407 32.1407H51.8477V32.0206Z" fill="#3B149C"/>
<path id="Vector_23" d="M62.0003 30.8302L61.4636 30.9621C59.8887 30.9621 58.3099 30.8988 56.7376 30.9701C54.8911 31.0532 53.0199 30.6533 51.1929 31.3106C50.7809 31.4597 50.4509 31.5745 50.2365 31.9705C50.1 32.2186 49.9259 32.4429 49.7687 32.6779L49.5088 32.8098L50.4184 31.2261C50.5886 31.205 50.7614 31.1984 50.9291 31.1614C51.9491 30.9384 52.938 30.6401 54.0204 30.6744C56.375 30.751 58.7348 30.7048 61.092 30.6863C61.3025 30.6863 61.513 30.5213 61.7235 30.4342L61.8534 30.1703L62.0003 29.8997V30.8302Z" fill="#531ED9"/>
<path id="Vector_24" d="M61.839 28.5931C61.7441 28.8571 61.6505 29.1211 61.5466 29.4088C59.4172 29.4088 57.2805 29.4088 55.1365 29.4088C54.4218 29.4088 53.7071 29.4088 52.9924 29.3745C52.5792 29.3533 52.2348 29.4325 51.9775 29.7783C52.0386 29.2662 52.3206 29.1052 52.8222 29.1092C55.3522 29.129 57.8822 29.0947 60.4122 29.1329C61.1295 29.1435 61.6882 29.1092 61.7038 28.2012C61.7493 28.3305 61.7935 28.4625 61.839 28.5931Z" fill="#6A26FE"/>
<path id="Vector_25" d="M5.93848 47.4779C7.20543 47.1744 8.1995 46.3627 9.25074 45.6527C9.45158 45.5367 9.66047 45.4356 9.87577 45.3504C9.99712 45.3169 10.1204 45.2909 10.2448 45.2726C10.2929 45.2726 10.3449 45.3227 10.3955 45.3504C9.86407 45.7108 9.32221 46.0565 8.80503 46.4366C8.36712 46.7573 7.9578 47.119 7.53678 47.4621L6.1074 47.8475L5.93848 47.4779Z" fill="#2C0F73"/>
<path id="Vector_26" d="M47.9495 53.929L48.0794 53.7971H48.3393V54.0742L45.8834 56.046C45.6891 56.1026 45.5006 56.1782 45.3207 56.2717C44.8438 56.5765 44.3838 56.9078 43.916 57.2298C44.089 57.0403 44.2716 56.8601 44.4631 56.69C45.6248 55.7649 46.7878 54.8489 47.9495 53.929Z" fill="#34118D"/>
<path id="Vector_27" d="M61.9984 29.901L61.8529 30.1716C58.9434 30.1716 56.0353 30.1716 53.1259 30.1716C52.7844 30.1947 52.4446 30.2388 52.1084 30.3036C52.354 30.2165 52.5983 30.0541 52.8452 30.0528C55.4324 30.033 58.0195 30.0528 60.608 30.0291C61.0615 30.0291 61.5176 29.8654 61.9659 29.777C61.9805 29.8172 61.9914 29.8588 61.9984 29.901Z" fill="#6227F5"/>
<path id="Vector_28" d="M52.6273 50.4976L55.6667 48.2632C55.2938 48.6446 54.952 49.0669 54.5427 49.4008C53.893 49.9287 53.1939 50.4092 52.5156 50.908L52.4883 50.8882C52.5338 50.7576 52.5805 50.6282 52.6273 50.4976Z" fill="#30117C"/>
<path id="Vector_29" d="M43.9208 57.2298C44.3886 56.9078 44.8486 56.5765 45.3255 56.2716C45.5055 56.1781 45.6939 56.1026 45.8882 56.046C45.0539 56.7059 44.2197 57.3816 43.3816 58.0454C43.0515 58.3094 42.7124 58.5601 42.3771 58.8175H41.9717L42.3615 58.5535L42.4915 58.4216L42.7513 58.1576L43.0216 57.7617L43.9208 57.2298Z" fill="#290D6E"/>
<path id="Vector_30" d="M48.3389 54.0742V53.7971L48.7287 53.5331L50.6779 52.2133C50.6779 52.2621 50.6779 52.311 50.6779 52.3598L48.3389 54.0742Z" fill="#290B6F"/>
<path id="Vector_31" d="M6.10742 47.8475L7.5368 47.4621C7.44584 47.8897 7.17946 48.06 6.75714 48.0666C6.6272 48.0666 6.49725 48.1985 6.35821 48.2724L6.10742 47.8475Z" fill="#2B0E71"/>
<path id="Vector_32" d="M50.6777 52.3598C50.6777 52.3109 50.6777 52.2621 50.6777 52.2133L52.4878 50.8935L52.5151 50.9133L50.6777 52.3598Z" fill="#280C6E"/>
<path id="Vector_33" d="M6.2373 13.2797C6.2373 13.1913 6.2373 13.1029 6.2373 13.0157L7.53674 13.6756L9.61584 14.9954L12.0848 16.7111C12.4421 16.9751 12.8112 17.2391 13.1542 17.5228C14.1431 18.349 15.5348 18.6816 16.113 20.0106V39.9393H15.9831C15.9831 33.5894 15.9831 27.2404 15.9831 20.8922C15.9608 20.639 15.9173 20.3883 15.8531 20.1426C15.4035 19.0023 14.1964 18.8373 13.3842 18.1629L13.1243 18.0309C12.5201 17.5928 11.9249 17.1388 11.3051 16.7111C9.62364 15.5629 7.92657 14.424 6.2373 13.2797Z" fill="#3B139E"/>
<path id="Vector_34" d="M16.5033 41.2591L16.1135 40.8632L15.7236 40.3352V40.0713L15.9835 40.2033C16.6605 41.1654 17.5974 41.787 18.6669 42.1763C20.8759 42.9761 23.0966 43.7363 25.3239 44.4767C26.5713 44.8925 27.8448 45.2277 29.1 45.617C30.1903 45.9549 31.2714 46.3178 32.3564 46.6728L32.7462 46.8048L34.3056 47.4647L32.8762 47.2008L25.3213 44.7512L20.6615 43.2388C20.2509 43.0619 19.8441 42.8719 19.4257 42.7109C18.8033 42.4773 18.1718 42.2661 17.5428 42.051L17.0231 41.655L16.5033 41.2591Z" fill="#2F0F80"/>
<path id="Vector_35" d="M15.7229 40.2033V40.3353C14.7626 40.9331 13.788 41.5086 12.8459 42.1355C11.1878 43.2388 9.55446 44.3791 7.89898 45.4903C7.27135 45.91 6.60994 46.2822 5.98361 46.6544C5.58598 45.5748 5.22604 44.6219 4.89078 43.6598C4.81671 43.4486 4.83231 43.2045 4.80762 42.9748C5.14417 43.7957 5.49762 44.6114 5.81338 45.4415C6.0057 45.9496 6.20321 46.1832 6.74768 45.7899C7.8509 44.9981 8.98141 44.2379 10.1145 43.4882C11.1891 42.7769 12.2859 42.0998 13.3631 41.3964C13.8647 41.0691 14.3455 40.7075 14.8445 40.3735C15.1108 40.198 15.3616 39.8892 15.7229 40.2033Z" fill="#2F107D"/>
<path id="Vector_36" d="M15.983 40.2033L15.7231 40.0713C15.6971 39.2002 15.6555 38.3292 15.6477 37.4568C15.6399 36.6834 15.6776 35.91 15.6789 35.1353C15.6789 34.2207 15.6659 33.3074 15.6581 32.3928C15.6412 30.1043 15.61 27.8171 15.61 25.5299C15.61 24.1168 15.6365 22.7029 15.6893 21.2881C15.7231 20.3788 15.5308 19.6635 14.6407 19.2095C14.169 18.9693 13.7986 18.5192 13.3828 18.1642C14.1963 18.8386 15.4034 19.0036 15.8517 20.1439C15.8517 26.492 15.8517 32.8411 15.8517 39.191C15.8741 39.4441 15.9176 39.6949 15.9817 39.9406L15.983 40.2033Z" fill="#351190"/>
<path id="Vector_37" d="M6.2373 13.2797C7.92657 14.4239 9.62364 15.5629 11.3051 16.7111C11.921 17.1321 12.5162 17.5861 13.1243 18.0309C12.8878 17.9438 12.624 17.8989 12.4174 17.7669C11.118 16.917 9.83414 16.042 8.53731 15.1881C7.82262 14.7156 7.09103 14.2642 6.36725 13.8115C6.32437 13.6307 6.28149 13.4618 6.2373 13.2797Z" fill="#35118E"/>
<path id="Vector_38" d="M22.0899 0.100342C22.498 0.182168 22.906 0.328664 23.3153 0.333943C24.5407 0.348461 25.7673 0.304908 26.9927 0.290391C28.5949 0.270594 30.1958 0.241559 31.8006 0.244198C33.5211 0.244198 35.2415 0.29171 36.9633 0.29699C37.7183 0.29699 38.4745 0.248158 39.2308 0.220442C39.0177 0.603179 38.711 0.960841 38.6097 1.37129C38.0899 3.46579 37.6117 5.57348 37.127 7.67722C36.9568 8.42026 36.784 9.16461 36.654 9.92085C36.5709 10.4079 36.3474 10.6956 35.8744 10.8447C33.0585 11.7408 30.2452 12.6409 27.4384 13.5674C24.9214 14.3976 22.4148 15.262 19.9017 16.112C19.4326 16.2703 18.9713 16.4683 18.4918 16.5778C17.8317 16.7283 17.6095 17.1321 17.6706 17.7656C17.6875 17.9399 17.6706 18.118 17.6706 18.2936L17.4107 17.8976C17.4237 17.701 17.3743 17.4661 17.4627 17.3156C17.7225 16.8656 17.6043 16.6174 17.1781 16.3733C16.4686 15.9655 15.7825 15.5128 15.099 15.0614C13.6696 14.1164 12.2402 13.1688 10.8225 12.2054C10.0793 11.7012 9.35547 11.1628 8.55762 10.5939C8.76293 10.4065 8.90717 10.2508 9.07739 10.1254C10.4418 9.09599 11.8192 8.08503 13.1745 7.04504C15.0726 5.58536 16.9615 4.1138 18.8414 2.63037C19.5521 2.06946 20.2266 1.46104 20.9205 0.873735L21.5442 0.194046L22.0899 0.100342Z" fill="#6E26FE"/>
<path id="Vector_39" d="M20.9208 0.873718C20.2308 1.46102 19.5564 2.06944 18.8417 2.63035C16.9601 4.11379 15.069 5.58535 13.1684 7.04503C11.8131 8.08502 10.4396 9.09597 9.07126 10.1254C8.90364 10.2574 8.7594 10.4065 8.55149 10.5939C9.35584 11.1627 10.0796 11.7012 10.8242 12.2067C12.2432 13.1701 13.67 14.1177 15.1006 15.0627C15.7842 15.5141 16.4703 15.9668 17.1797 16.3746C17.606 16.6187 17.7281 16.8669 17.4643 17.3169C17.376 17.4674 17.4253 17.7023 17.4123 17.8989H17.2824C17.4422 17.1757 17.1525 16.69 16.5404 16.3244C15.8777 15.9285 15.2527 15.4745 14.5991 15.064C14.4834 14.9914 14.3106 15.0152 14.1638 14.9954L13.9039 14.8634C13.8421 14.7765 13.7706 14.6972 13.6908 14.6272C12.0015 13.4777 10.3213 12.3083 8.60087 11.205C8.20454 10.9542 8.18635 10.7325 8.31629 10.3762L8.70612 9.84825L8.83607 9.71627C9.97047 9.46419 10.7086 8.66044 11.418 7.81182C11.4127 7.80758 11.4085 7.80205 11.4059 7.79574C11.4032 7.78943 11.4021 7.78254 11.4028 7.7757C11.4034 7.76886 11.4058 7.7623 11.4096 7.75662C11.4134 7.75094 11.4185 7.74632 11.4245 7.74319L11.9885 7.32218L12.2302 7.07538C12.4303 7.01995 12.6668 7.01599 12.8227 6.89985C13.67 6.26899 14.4977 5.61174 15.3319 4.96373C16.4118 4.15206 17.4864 3.33247 18.574 2.53269C19.3472 1.9665 20.1412 1.42671 20.9208 0.873718Z" fill="#6824FD"/>
<path id="Vector_40" d="M13.9041 14.8634L14.164 14.9954C14.8449 15.5141 15.5167 16.0446 16.2106 16.5448C16.6472 16.8589 17.1202 17.1084 17.0422 17.7854C17.024 17.9451 17.1968 18.1246 17.2826 18.2948C17.3697 18.6024 17.4554 18.9112 17.5425 19.2187C17.3307 18.8228 17.1371 18.4097 16.9019 18.0309C16.6667 17.6521 16.4731 17.2073 16.1365 16.9751C14.034 15.5286 11.9055 14.1362 9.77966 12.7359C9.64505 12.6756 9.50222 12.6365 9.35604 12.6198L8.0566 11.8279C7.95265 11.8794 7.79672 11.9374 7.70835 11.8701C7.59011 11.7844 7.68237 11.5719 7.58621 11.4227C7.51474 11.3105 7.31982 11.2089 6.75977 11.2908L8.70892 9.83899L8.31909 10.3669C7.8318 10.8816 7.88248 11.102 8.55689 11.5441C9.84723 12.3901 11.1246 13.2599 12.424 14.0861C13.2206 14.6047 6.95208 11.3251 13.9041 14.8634Z" fill="#6021FB"/>
<path id="Vector_41" d="M9.61629 14.9954L7.53719 13.6756C7.45533 13.5291 7.40725 13.2916 7.2773 13.2533C6.39499 12.9669 6.45606 12.2569 6.48725 11.5495L6.61719 11.4175C6.71075 11.8464 6.66007 12.4733 6.92126 12.6686C8.38312 13.7245 9.92036 14.6747 11.4316 15.6606L14.9401 18.0362L15.3299 18.3002L15.8497 18.96C15.6678 18.8479 15.4832 18.7383 15.3039 18.6235C14.3146 17.9882 13.327 17.3525 12.3412 16.7164C11.6239 16.2189 10.9118 15.7147 10.1867 15.2303C10.0051 15.1322 9.81394 15.0534 9.61629 14.9954Z" fill="#4416B6"/>
<path id="Vector_42" d="M7.41337 10.7787C7.5875 11.1535 7.46795 11.7144 8.06309 11.8345C8.19303 11.9916 8.29309 12.1856 8.45292 12.2991C9.36253 12.9458 10.2721 13.5753 11.1817 14.2101C11.7158 14.5915 12.2603 14.9598 12.7813 15.3597C13.1712 15.6592 13.535 15.9998 13.9106 16.3218C13.6052 16.1251 13.3011 15.9258 12.9919 15.7345C12.2988 15.3121 11.6088 14.892 10.9219 14.4741C9.80564 13.7086 8.70241 12.922 7.56411 12.1922C7.19247 11.9546 6.97027 11.7118 7.01055 11.2683L7.41337 10.7787Z" fill="#551CE2"/>
<path id="Vector_43" d="M20.9209 0.873719C20.1412 1.42671 19.3473 1.9665 18.5819 2.53401C17.4943 3.3338 16.4196 4.15338 15.3398 4.96505L15.3242 4.6615C17.0135 3.35491 18.6807 2.03645 20.3803 0.753619C20.7195 0.497581 21.16 0.377481 21.5498 0.194031L20.9209 0.873719Z" fill="#6422FB"/>
<path id="Vector_44" d="M7.00358 11.2551C6.9633 11.7052 7.1855 11.948 7.55714 12.179C8.69545 12.9088 9.79867 13.6954 10.9149 14.4609V14.5929H10.5251L9.4855 13.933C8.84488 13.4816 8.22635 12.988 7.55324 12.5947C7.02177 12.2832 6.77358 11.9045 6.88923 11.2908C6.92432 11.2705 6.96335 11.2584 7.00358 11.2551Z" fill="#4F1AD4"/>
<path id="Vector_45" d="M11.4355 15.6553C9.92426 14.6694 8.38703 13.7258 6.92516 12.6699C6.66527 12.4812 6.71465 11.8477 6.62109 11.4188L6.75753 11.2974C6.75753 11.8543 6.66008 12.3994 7.33189 12.732C8.00369 13.0646 8.59624 13.5318 9.22386 13.9396L11.4329 15.5233L11.4355 15.6553Z" fill="#4717BE"/>
<path id="Vector_46" d="M15.3176 4.6615L15.3332 4.96505C14.499 5.61306 13.6712 6.27032 12.824 6.90117C12.6681 7.01731 12.4342 7.02127 12.2314 7.0767C12.7187 6.63985 13.1852 6.17661 13.6985 5.7754C14.2118 5.37418 14.7757 5.02972 15.3176 4.6615Z" fill="#6322FA"/>
<path id="Vector_47" d="M11.4192 7.81311C10.7097 8.65777 9.97164 9.46548 8.83594 9.71756L11.4192 7.81311Z" fill="#6322FA"/>
<path id="Vector_48" d="M6.49729 11.5494C6.4661 12.2568 6.40503 12.9669 7.28734 13.2533C7.40429 13.2916 7.45887 13.5291 7.54723 13.6756L6.2478 13.0157L5.80469 12.9115L6.49729 11.5494Z" fill="#3E14A8"/>
<path id="Vector_49" d="M9.22575 13.9396C8.59812 13.5318 7.99908 13.0619 7.33377 12.732C6.66846 12.402 6.75682 11.8543 6.75682 11.2974H6.88677C6.76852 11.9111 7.01671 12.2898 7.55078 12.6013C8.22389 12.9972 8.84242 13.4882 9.48304 13.9396H9.22575Z" fill="#4C19CC"/>
<path id="Vector_50" d="M11.9901 7.32348C11.9296 7.43776 11.8587 7.54602 11.7783 7.64683C11.6686 7.78265 11.5419 7.90333 11.4015 8.00581C10.1887 8.84783 9.56622 9.24729 9.53417 9.20417C9.50212 9.16106 10.2658 8.50953 11.8251 7.24957C12.6576 6.58088 13.0829 6.25666 13.1011 6.27689C13.1193 6.29713 12.749 6.64599 11.9901 7.32348Z" fill="#5E22F2"/>
<path id="Vector_51" d="M51.7171 30.0409L50.1578 30.4369H49.8979C49.5224 30.1729 49.2378 30.2706 48.9792 30.6375C48.6193 31.1482 48.2164 31.6273 47.8539 32.1354C46.3413 34.2576 44.8288 36.3799 43.337 38.5179C42.8069 39.2768 42.3378 40.0805 41.8414 40.8632C41.6283 41.0756 41.3801 41.2591 41.2086 41.5046C40.169 42.9722 39.1451 44.4543 38.1016 45.9219C38.0198 46.0367 37.8248 46.071 37.6832 46.1423C35.7977 45.5154 33.9148 44.8819 32.0268 44.2656C30.7988 43.8696 29.5578 43.4922 28.3273 43.1068L22.6097 41.2591L19.3612 40.0713C19.2312 39.7519 18.9895 39.4338 18.9882 39.1158C18.9648 33.0448 18.9648 26.9698 18.9882 20.8909C18.9882 20.3471 18.7933 20.0079 18.4256 19.6516C18.1163 19.3507 17.9214 18.927 17.6758 18.5588H17.8057C17.9375 18.7823 18.0852 18.9958 18.2475 19.1976C18.9999 20.0093 19.1337 20.0172 20.1538 19.6173C20.8542 19.3414 21.5702 19.0986 22.2862 18.8676C24.3965 18.188 26.5145 17.5373 28.6222 16.8484C31.4446 15.9263 34.2622 14.9888 37.0751 14.0359C37.4402 13.9132 37.6442 13.9567 37.8859 14.2999C38.3888 15.0007 38.9618 15.6513 39.5063 16.3218L41.0656 18.5654C41.1054 18.6868 41.1576 18.8036 41.2216 18.9138C42.2888 20.4201 43.3596 21.9234 44.4338 23.4235C45.8606 25.405 47.2921 27.3908 48.7284 29.381C49.1026 30.2204 50.1773 30.3418 51.3273 30.0409H51.7171Z" fill="#6A2CFE"/>
<path id="Vector_52" d="M39.763 0.345825C39.1133 0.835465 39.164 1.6247 39.0029 2.30042C38.4467 4.63116 37.9633 6.9817 37.4137 9.31507C37.2837 9.8641 36.9913 10.3709 36.7743 10.8988C36.5677 11.0664 36.3845 11.2948 36.1506 11.3885C35.5866 11.597 34.9889 11.7118 34.4184 11.9058C32.4823 12.5657 30.5604 13.2612 28.6191 13.8987C26.1034 14.7249 23.5747 15.5088 21.0512 16.3099C20.1312 16.5844 19.206 16.8378 18.295 17.1506C18.1781 17.1889 18.1378 17.4634 18.0624 17.6297V17.8937C17.787 17.4304 17.8844 17.0556 18.3613 16.8946C20.1169 16.3033 21.8776 15.7253 23.637 15.1459C25.1314 14.6523 26.6266 14.1613 28.1227 13.673C30.6449 12.8508 33.1619 12.0101 35.6919 11.2076C36.504 10.9437 36.8848 10.4804 37.0602 9.61071C37.5384 7.2351 38.1348 4.89116 38.6793 2.53139C38.7963 2.02723 38.8274 1.49008 39.0262 1.02287C39.1445 0.74176 39.5031 0.567549 39.763 0.345825Z" fill="#762DFD"/>
<path id="Vector_53" d="M39.5033 16.3152C38.9589 15.6447 38.3858 14.9954 37.8829 14.2933C37.6412 13.9567 37.4372 13.9132 37.0721 14.0293C34.2575 14.9787 31.4399 15.9161 28.6192 16.8418C26.5116 17.5307 24.3935 18.1813 22.2832 18.861C21.5672 19.092 20.8538 19.3348 20.1508 19.6107C19.1308 20.0066 18.9969 20.0066 18.2445 19.191C18.0822 18.9892 17.9346 18.7757 17.8027 18.5522L18.0626 18.1563H18.1926L18.3225 18.5522L18.8423 19.476C18.9618 19.5275 19.1022 19.6489 19.1983 19.6212C20.3678 19.2807 21.5529 18.9415 22.7159 18.5562C24.1037 18.0956 25.472 17.5729 26.8585 17.1044C29.6159 16.1805 32.3776 15.2703 35.1437 14.3738C35.9792 14.1098 36.833 13.9 37.6841 13.665C37.8972 13.9211 38.1181 14.1732 38.3234 14.4371C38.6353 14.833 38.9381 15.2409 39.2434 15.6447L39.5033 16.3152Z" fill="#6F2FFD"/>
<path id="Vector_54" d="M17.6724 18.5588C17.918 18.927 18.1129 19.3507 18.4221 19.6516C18.7899 20.0079 18.9861 20.3471 18.9848 20.8909C18.964 26.9619 18.964 33.0368 18.9848 39.1158C18.9848 39.4338 19.2278 39.7519 19.3577 40.0713H18.9679C18.8808 39.744 18.7197 39.4114 18.7197 39.0894C18.7041 33.0184 18.7093 26.9579 18.7028 20.8922C18.6805 20.639 18.637 20.3883 18.5729 20.1426L17.5333 19.3507V19.2187C17.4463 18.9112 17.3605 18.6024 17.2734 18.2949V17.8989H17.4034L17.6633 18.2949L17.6724 18.5588Z" fill="#6728FC"/>
<path id="Vector_55" d="M18.1924 18.1629H18.0625V17.635C18.2015 17.503 18.3224 17.3182 18.4835 17.2628C19.3333 16.9724 20.1936 16.7151 21.0512 16.4472L22.0908 16.3152C22.0137 16.3904 21.9261 16.4535 21.8309 16.5026C20.8225 16.8418 19.8011 17.1466 18.8058 17.5254C18.5602 17.6191 18.3952 17.9491 18.1924 18.1629Z" fill="#7A31FD"/>
<path id="Vector_56" d="M15.9834 44.1626C16.1133 43.5819 16.5733 43.3457 17.0476 43.182C18.0768 42.827 18.9851 43.4037 19.922 43.6717C20.5353 43.8459 21.1097 44.1692 21.7009 44.4266C20.8199 44.1771 19.9376 43.9356 19.0605 43.6743C18.6875 43.5634 18.3328 43.3325 17.9585 43.3048C17.7337 43.2889 17.4855 43.5529 17.2516 43.7007C16.8982 43.9211 16.5487 44.1481 16.1783 44.383L15.9834 44.1626Z" fill="#270D67"/>
<path id="Vector_57" d="M55.1146 37.9662L55.2783 38.3252L55.4082 38.3028V37.2602H55.6967L55.0184 36.0803L54.2231 36.3838L53.8242 35.7939L54.726 35.1683L55.3835 35.683L55.6876 35.2211L56.4309 36.013L56.5998 35.9391L56.223 35.0297C56.4686 35.1617 56.8012 35.2211 56.8441 35.3702C57.0039 35.9351 57.6939 36.4907 56.9624 37.1163C57.386 37.4423 57.269 37.9979 56.7337 38.2408L55.659 38.7291C55.9436 39.2398 56.1645 39.6384 56.4075 40.0766C56.8051 39.7796 56.4907 39.224 56.5102 38.6684L57.0299 38.9086L57.347 38.4704L57.4574 39.2728L56.9507 39.3744C57.0065 39.4827 57.0273 39.5751 57.0611 39.579C57.6524 39.6622 57.3977 40.0634 57.1911 40.1822C56.8935 40.3537 56.5011 40.3999 56.1515 40.4105C55.8281 40.4032 55.5078 40.3435 55.2029 40.2336C55.1094 40.2046 55.0665 40.0106 55.0002 39.8931C55.1049 39.8822 55.2066 39.8518 55.3004 39.8034C55.4563 39.6642 55.6034 39.5152 55.7409 39.3573L55.3342 39.2253C55.225 39.6146 54.9534 39.6028 54.7806 39.3573C54.6624 39.1844 54.7299 38.8809 54.7117 38.6077L54.0451 38.832L54.0087 38.708L55.1146 37.9662Z" fill="#3B139B"/>
<path id="Vector_58" d="M43.9208 57.2298L43.0216 57.7577C42.711 57.8395 42.5252 57.8197 42.4745 57.3987C42.4043 56.8061 42.2315 56.2268 42.1016 55.6408L42.8812 55.5194C42.7513 54.6311 43.1671 54.061 43.735 54.2761C43.6323 54.5401 43.6583 54.6509 43.7038 54.6971C43.7492 54.7433 43.7726 54.7407 43.8961 54.8291C43.9299 54.8529 43.9585 54.874 43.9754 54.8885L43.2555 55.064L43.9779 55.6157C44.0467 55.5493 44.0954 55.4644 44.1184 55.3709C44.1414 55.2774 44.1377 55.1792 44.1079 55.0878C44.0782 55.0073 44.0301 54.9351 43.9675 54.8773C43.9049 54.8195 43.8296 54.7776 43.7479 54.7552C43.8125 54.6991 43.8858 54.6545 43.965 54.6232C44.1671 54.5479 44.3891 54.5479 44.5913 54.6232L44.8304 54.7328C45.1643 54.8872 45.3242 54.9558 45.5269 54.9294C45.5397 54.9283 45.5524 54.9256 45.5646 54.9215C45.7189 54.876 45.8539 54.7794 45.9479 54.647C45.9986 54.5836 46.1415 54.5955 46.2572 54.5691L46.0493 55.0601L46.699 54.7222L46.4196 54.317C46.9498 54.4345 47.4773 54.581 47.3084 53.7746L47.9425 53.9171C46.7808 54.841 45.6178 55.753 44.4613 56.6781C44.2717 56.8522 44.0913 57.0364 43.9208 57.2298Z" fill="#3A139A"/>
<path id="Vector_59" d="M40.5421 47.7261L40.0223 48.254L37.6833 48.122C37.6638 48.0613 37.6586 47.957 37.6222 47.9451C36.0421 47.4278 34.4598 46.9153 32.8754 46.4076L30.6664 45.6157C29.9803 45.3755 29.2981 45.1234 28.6068 44.8978C25.8303 43.988 23.0517 43.0831 20.2709 42.183C19.2807 41.8266 18.1853 41.7052 17.4121 40.8632V40.7312L19.3613 41.5231C20.1929 41.8121 21.0206 42.113 21.8562 42.3888C23.5351 42.9432 25.2178 43.4843 26.898 44.0307C28.0077 44.4266 29.107 44.8436 30.2297 45.2185C31.103 45.5101 31.9931 45.7464 32.8754 46.0103L37.2935 47.4621H37.4234C37.5417 47.5664 37.6456 47.7261 37.7821 47.7657C38.7034 48.052 39.6325 48.1642 40.5421 47.7261Z" fill="#4115AD"/>
<path id="Vector_60" d="M51.8479 32.1526H53.4072C53.3656 32.6106 53.4306 33.1187 53.2513 33.5106C53.0928 33.8577 52.6613 34.0768 52.3508 34.3527L52.1143 34.1573C52.2897 33.8419 52.4664 33.5278 52.686 33.1345C52.3729 33.1266 52.3859 33.6981 52.0246 33.3153C51.9194 33.2058 51.4646 33.5608 51.5555 33.8789C51.7244 34.4728 51.475 34.5467 50.9968 34.5058C50.8343 34.4912 50.6641 34.5797 50.4484 34.6377C50.7551 35.4296 50.6264 36.0803 49.8598 36.4168L49.249 35.588L50.4185 33.8723C50.5516 33.7535 50.6783 33.6275 50.798 33.4948C51.154 33.0487 51.4983 32.5987 51.8479 32.1526Z" fill="#3B139B"/>
<path id="Vector_61" d="M56.9324 45.2686L56.1358 44.8172C55.8084 45.2356 55.5901 45.134 55.4212 44.5902C55.3601 44.3922 55.121 44.255 54.9781 44.0768C54.8723 43.9333 54.7738 43.7844 54.6831 43.6307L54.4349 43.7244C54.4921 43.537 54.5479 43.3496 54.6168 43.1266C54.1776 42.5894 53.7358 43.05 53.1523 43.3905C53.4005 42.79 53.5721 42.3769 53.7774 41.8781C54.0801 42.6303 54.2322 42.6937 54.7234 42.3519L55.7629 43.7601L56.0228 43.4592C55.3731 43.1451 55.503 42.5749 55.4874 42.0206C55.5823 42.0206 55.6499 42.0008 55.6888 42.0206C55.7278 42.0404 55.7629 42.1196 55.733 42.0773L56.4737 41.7104L56.5894 41.8688C56.4594 42.0404 56.3178 42.2106 56.18 42.3835L57.2495 43.2612C57.0067 43.9004 56.8986 44.5843 56.9324 45.2686Z" fill="#3B139B"/>
<path id="Vector_62" d="M45.7402 40.5992L44.8306 42.1618L44.9774 42.2779C45.158 42.0589 45.3386 41.8398 45.5102 41.6339C45.618 42.3479 46.4692 43.1741 47.2072 43.2176C47.2176 43.0447 47.228 42.8718 47.2423 42.6316C47.3372 42.7029 47.4021 42.724 47.4138 42.7636C47.4749 42.9682 47.5711 43.1807 47.5607 43.3852C47.5503 43.5898 47.4879 43.8907 47.3411 44.0069C47.1618 44.1481 46.8317 44.2708 46.7836 43.7772C46.7836 43.7271 46.1781 43.6004 46.0429 43.7231C45.6531 44.0742 45.3282 44.0385 45.0918 43.8868C44.954 43.4037 44.8527 43.0461 44.75 42.6884L44.6058 42.728C44.585 43.1239 44.5655 43.5133 44.5486 43.8419L43.791 43.5027V43.2387L45.4803 40.7312L45.7402 40.5992Z" fill="#3B139B"/>
<path id="Vector_63" d="M37.6833 48.1206L40.0223 48.2526C40.1938 48.374 40.4836 48.4664 40.5199 48.6222C41.0618 50.9582 41.5816 53.3021 42.1014 55.6447C42.2313 56.2307 42.4041 56.8101 42.4743 57.4027C42.525 57.8237 42.7108 57.8435 43.0214 57.7617L42.7511 58.1576C42.2599 58.2157 42.3314 57.7762 42.2729 57.5307C41.935 56.1106 41.6388 54.68 41.3178 53.2546C40.9553 51.6431 40.5823 50.0343 40.2549 48.5997C39.2842 48.4836 38.3954 48.4783 37.5637 48.2553C36.2539 47.9029 34.9857 47.3961 33.6927 46.9751C33.3813 46.8964 33.0647 46.8404 32.7454 46.8075L32.3556 46.6755L32.0957 46.2795L32.8754 46.4115L37.6833 48.1206Z" fill="#381298"/>
<path id="Vector_64" d="M40.5422 47.7261C39.6325 48.1642 38.7047 48.052 37.7834 47.767C37.647 47.7247 37.5431 47.5677 37.4248 47.4634L37.9446 47.5954C38.3733 47.7016 38.807 47.7857 39.244 47.8475C39.5039 47.8739 39.9158 47.8831 40.0315 47.7274C40.7592 46.7428 41.4232 45.7094 42.1106 44.6919C42.2405 44.5599 42.3848 44.4279 42.5004 44.2827C42.8902 43.8063 43.2801 43.3246 43.6699 42.8442L43.54 43.3721L40.5512 47.5954C40.5422 47.6442 40.5422 47.6812 40.5422 47.7261Z" fill="#4316B2"/>
<path id="Vector_65" d="M50.418 33.8683L49.2485 35.584L48.3389 36.6399V36.2439L50.1581 33.6044H50.418V33.8683Z" fill="#4115AD"/>
<path id="Vector_66" d="M40.542 47.5941L43.5307 43.3707L43.7906 43.2388V43.5027C43.6372 43.7033 43.4787 43.8987 43.3306 44.1032C42.5509 45.1591 41.7908 46.2294 41.0046 47.2813C40.8993 47.4225 40.6992 47.4911 40.542 47.5941Z" fill="#3C139F"/>
<path id="Vector_67" d="M48.7288 53.5331L48.339 53.7971H48.0791C48.1999 53.6651 48.3221 53.5239 48.4429 53.3879L49.1719 52.5736L48.5742 52.4812C48.5677 52.3954 48.556 52.2357 48.5456 52.0853L49.3474 51.9256C49.4344 52.1315 49.5371 52.3677 49.6384 52.6053L48.7288 53.5331Z" fill="#3A139A"/>
<path id="Vector_68" d="M48.7285 53.5331L49.6381 52.6092C50.5035 51.9718 51.3677 51.333 52.237 50.7008C52.3614 50.6227 52.4918 50.5547 52.6268 50.4976C52.58 50.6295 52.5333 50.7615 52.4878 50.8935L50.6777 52.2133L48.7285 53.5331Z" fill="#34108B"/>
<path id="Vector_69" d="M45.7404 40.5992L45.4805 40.7312L45.7404 40.0713L47.0398 38.2236H47.1697C46.9215 38.6736 46.6863 39.1289 46.4239 39.5698C46.2134 39.9221 45.9691 40.2534 45.7404 40.5992Z" fill="#3F15A9"/>
<path id="Vector_70" d="M47.17 38.2223H47.04C47.0829 38.0019 47.1271 37.7828 47.17 37.5624L48.3395 36.2426V36.6385L47.17 38.2223Z" fill="#4417B6"/>
<path id="Vector_71" d="M20.6609 43.2388L25.3207 44.7486L32.8756 47.1981L38.0734 48.9138L38.853 49.0458V49.1778C37.6858 49.2056 36.5212 49.0529 35.3991 48.7251C34.2621 48.3899 33.1368 48.0071 32.0206 47.6165C30.7342 47.1691 29.4633 46.6755 28.1769 46.2254C27.1646 45.8731 26.1394 45.5655 25.1219 45.2237C24.8893 45.1459 24.6632 45.0442 24.4345 44.9598C23.4677 44.5929 22.5061 44.2141 21.5329 43.8657C21.0793 43.7033 20.6038 43.6017 20.1425 43.4697C20.123 43.4697 20.1425 43.3246 20.1425 43.2467L20.6609 43.2388Z" fill="#280D6A"/>
<path id="Vector_72" d="M38.8535 49.1778V49.0458C39.3733 48.9336 39.398 49.3507 39.4694 49.6701C40.0542 52.2978 40.6168 54.9307 41.212 57.5558C41.3107 57.99 41.542 58.3938 41.7123 58.8122H41.9722C41.5576 59.121 41.3393 58.9204 41.2419 58.4994C40.9157 57.082 40.6117 55.6593 40.2777 54.2445C40.0477 53.2678 39.7735 52.3031 39.5331 51.329C39.3824 50.7167 39.2654 50.0964 39.1095 49.4814C39.0796 49.3692 38.9419 49.2794 38.8535 49.1778Z" fill="#290D6E"/>
<path id="Vector_73" d="M42.4911 1.79755C43.0603 2.24495 43.632 2.69104 44.1999 3.14241C45.3759 4.07813 46.5389 5.02838 47.7278 5.95091C48.3295 6.41811 48.9792 6.82064 49.5873 7.27861C50.3436 7.84743 51.0804 8.44266 51.8237 9.02864C52.4188 9.49716 52.9568 10.0845 53.6156 10.4223C55.2672 11.2789 55.8311 12.8151 56.3314 14.4477C56.7005 15.654 57.1475 16.8352 57.5633 18.0269C58.1506 19.7083 58.7328 21.3924 59.3318 23.0711C59.771 24.2985 60.2323 25.518 60.6832 26.7415C60.6624 26.8734 60.6767 27.0358 60.6118 27.1453C60.4956 27.3773 60.3321 27.5815 60.1323 27.7445C60.0426 27.8039 59.6411 27.5835 59.6463 27.5597C59.7996 26.9579 59.3058 26.9143 58.9771 26.7415C58.8796 26.6913 58.7172 26.6412 58.6509 26.6873C58.5846 26.7335 58.5807 26.9011 58.5444 27.0133C58.482 27.2007 58.4443 27.5254 58.3416 27.5492C57.8027 27.6647 57.2572 27.7458 56.7083 27.792C56.1885 27.8448 56.0767 27.5426 56.1274 26.9751C56.438 27.6349 56.438 27.6349 56.8057 27.4739L56.1352 26.6478C56.3951 26.5712 56.6212 26.6398 56.8564 26.6966C57.0916 26.7533 57.2761 27.3472 57.636 26.7863L57.011 26.4075L56.7031 25.3108L55.2737 26.2254C54.7734 25.58 54.4407 26.335 54.1471 26.4102C54.0964 26.8061 54.0574 27.1176 54.008 27.5056C53.3843 27.0437 53.0724 27.2641 52.8879 27.8738L52.6501 27.4396L51.7171 28.0612C51.3126 27.4964 50.9084 26.9319 50.5047 26.368C49.3041 24.6866 48.1008 23.0078 46.9118 21.3185C46.7819 21.1337 46.7338 20.8882 46.6519 20.6705C46.8656 20.723 47.0827 20.76 47.3016 20.7813C47.4433 20.7813 47.7136 20.7127 47.7123 20.6797C47.7045 20.2838 47.6551 19.8878 47.6135 19.4642L48.0098 19.187C48.4854 19.5526 48.7336 19.5354 48.9571 19.1448C49.1481 18.8109 49.3989 18.5113 49.6627 18.1444L48.9441 17.7036L48.6582 18.0784L47.0742 17.7814L47.1366 18.0045C46.8182 18.1708 46.47 18.2988 46.188 18.5166C45.9567 18.6961 45.7982 18.9811 45.615 19.2187L44.0556 17.107C44.0388 17.0212 43.9842 16.9196 44.0115 16.8536C44.1986 16.4102 44.157 16.0618 43.8308 15.654C43.6138 15.39 43.7529 14.9518 43.4475 14.5823C43.2162 14.3038 43.4384 13.6492 43.4293 13.1622C43.4293 13.0857 43.2695 13.0117 43.1603 12.9167L42.7913 13.5383L42.1481 13.0236L41.4516 13.5436L40.542 12.3558C40.4627 12.0483 40.2665 11.717 40.3224 11.432C40.6225 9.8997 40.9812 8.37799 41.3281 6.85496C41.7115 5.17223 42.1013 3.48555 42.4911 1.79755Z" fill="#792CFE"/>
<path id="Vector_74" d="M51.7172 28.0613L52.6554 27.4397L52.8932 27.8739C53.0777 27.2641 53.3896 27.0437 54.0133 27.5057C54.0627 27.1176 54.1017 26.8035 54.1523 26.4102C54.446 26.335 54.7787 25.5801 55.2789 26.2255L56.7083 25.3109L57.0163 26.4076L57.6413 26.7864C57.2775 27.3473 57.106 26.756 56.8617 26.6966C56.6174 26.6372 56.3952 26.5712 56.1405 26.6478L56.8123 27.474C56.4445 27.639 56.4445 27.639 56.134 26.9751C56.0833 27.5426 56.1937 27.8448 56.7148 27.792C57.2624 27.7456 57.8067 27.6645 58.3443 27.5492C58.447 27.5254 58.4847 27.2008 58.547 27.0134C58.5834 26.9012 58.5795 26.7375 58.6536 26.6874C58.7276 26.6372 58.8823 26.6874 58.9797 26.7415C59.3085 26.9144 59.8023 26.9579 59.6489 27.5598C59.6489 27.5835 60.0453 27.8039 60.1349 27.7445C60.3348 27.5816 60.4982 27.3773 60.6144 27.1454C60.6794 27.0358 60.6651 26.8814 60.6859 26.7415C60.7938 27.115 60.9016 27.4898 61.0419 27.9729C60.0375 28.023 59.0928 28.093 58.1468 28.1048C57.2645 28.1194 56.3809 28.0639 55.4986 28.06C54.5669 28.06 53.6339 28.1128 52.7048 28.0732C52.1967 28.052 51.9472 28.2051 51.9004 28.7199C51.8926 28.8109 51.7822 28.8941 51.7198 28.9838H51.5898C51.6301 28.6776 51.6743 28.3754 51.7172 28.0613Z" fill="#792CFE"/>
<path id="Vector_75" d="M51.588 28.9851H51.7179V29.2491C51.3515 29.7466 50.8564 29.8905 50.2561 29.9261C49.4972 29.9697 49.1814 29.3903 48.7292 28.9851L41.5823 18.9548L40.9326 17.767L41.1925 17.8989C41.3344 18.028 41.4668 18.1674 41.5888 18.316C42.2957 19.3045 42.9883 20.3049 43.6939 21.2934C44.9544 23.0531 46.2183 24.8129 47.4857 26.5726C48.1445 27.4885 48.7955 28.411 49.4803 29.3058C49.8571 29.8008 50.6134 29.7506 51.0682 29.2491L51.588 28.9851Z" fill="#7634FD"/>
<path id="Vector_76" d="M42.4911 1.79757C42.1013 3.48558 41.7114 5.17226 41.3281 6.86026C40.9812 8.38329 40.6225 9.905 40.3223 11.4373C40.2665 11.7171 40.4627 12.0483 40.542 12.3611C40.0677 12.0602 40.0066 11.597 40.1157 11.1086C40.807 8.04807 41.5113 4.99145 42.2078 1.93219C42.2269 1.80115 42.2347 1.66867 42.2312 1.53625L42.4911 1.79757Z" fill="#7D2EFE"/>
<path id="Vector_77" d="M48.7285 28.9851C49.1807 29.3903 49.4965 29.9697 50.2554 29.9261C50.8557 29.8905 51.3508 29.7466 51.7172 29.2491C52.0096 29.7281 51.5002 29.7981 51.3274 30.0409C50.1774 30.3418 49.1028 30.2204 48.7285 29.381V28.9851Z" fill="#712FFD"/>
<path id="Vector_78" d="M49.8985 30.4369H50.1584V30.5689C49.4853 30.4976 49.3137 31.0084 49.1188 31.4927C48.9557 31.6604 48.8013 31.8367 48.6562 32.0206C47.8688 33.1306 47.0969 34.2484 46.3107 35.3623C45.5246 36.4762 44.7176 37.6218 43.9211 38.7515H43.5312C44.0016 38.1035 44.4759 37.4595 44.9411 36.8088C46.3705 34.8093 47.7843 32.8033 49.2293 30.817C49.367 30.6256 49.6711 30.5609 49.8985 30.4369Z" fill="#6428F8"/>
<path id="Vector_79" d="M49.1191 31.4927C49.3141 31.0083 49.4856 30.4976 50.1587 30.5688L52.1078 30.3049L51.3282 30.7008C50.4797 30.6427 49.6389 30.6031 49.1191 31.4927Z" fill="#6227F5"/>
<path id="Vector_80" d="M9.61621 46.9342C10.1126 46.5092 10.583 46.046 11.1145 45.6711C11.4809 45.4072 11.9318 45.2752 12.345 45.0865C12.0452 45.3906 11.729 45.6774 11.3977 45.9457C10.878 46.3271 10.3166 46.6623 9.76824 47.0081C9.74615 47.0239 9.66819 46.9606 9.61621 46.9342Z" fill="#290E6D"/>
<path id="Vector_81" d="M17.0227 41.6551L17.5424 42.051C16.4145 41.7527 15.5647 42.3519 14.7019 42.9445C13.548 43.7364 12.3785 44.5071 11.2155 45.2884C10.1759 45.9826 9.14937 46.6874 8.09683 47.3644C7.94739 47.4608 7.72129 47.4331 7.53027 47.4621C7.95129 47.119 8.36061 46.7573 8.79852 46.4366C9.3183 46.0565 9.85756 45.7107 10.389 45.3504C10.71 45.0614 11.3675 45.1116 11.2986 44.4266C11.7456 44.7486 11.8184 44.2682 12.0783 44.0967C12.932 43.5186 13.8689 43.0619 14.7006 42.4535C15.4179 41.9322 16.1131 41.5006 17.0227 41.6551Z" fill="#2B0E71"/>
<path id="Vector_82" d="M17.0225 41.655C16.1129 41.5006 15.4177 41.9322 14.7056 42.4535C13.874 43.0619 12.9371 43.5186 12.0834 44.0966C11.83 44.2682 11.752 44.7486 11.3037 44.4266C11.7741 44.0372 12.2224 43.6175 12.7188 43.2678C13.5621 42.6752 14.4159 42.0932 15.3034 41.5758C15.649 41.3739 16.0986 41.3594 16.5015 41.2591L17.0225 41.655Z" fill="#2C0E74"/>
<path id="Vector_83" d="M11.3054 44.4266C11.3742 45.1115 10.7167 45.0614 10.3958 45.3504C10.3451 45.3227 10.2931 45.2673 10.245 45.2726C10.1206 45.2909 9.99732 45.3169 9.87598 45.3504L11.3054 44.4266Z" fill="#2C0E74"/>
<path id="Vector_84" d="M48.3387 36.2426L47.1692 37.5624L46.6494 37.6944L46.7794 37.4304L47.1692 36.9025L49.5082 33.603L49.898 33.0751C50.1902 32.7458 50.4999 32.433 50.8258 32.1381C51.0857 31.9229 51.4183 31.7923 51.7172 31.6234C50.8921 32.0351 50.5555 32.8442 50.1579 33.603L48.3387 36.2426Z" fill="#4919C1"/>
<path id="Vector_85" d="M50.418 33.8683V33.6044C50.7142 33.1952 50.9949 32.7703 51.3159 32.3823C51.4458 32.2226 51.668 32.1381 51.8473 32.0206V32.1526C51.4978 32.5987 51.1535 33.0487 50.7974 33.4909C50.6778 33.6236 50.5511 33.7496 50.418 33.8683Z" fill="#3D14A3"/>
<path id="Vector_86" d="M41.5815 1.26964H41.7114C41.4944 2.13806 41.2644 3.00384 41.0617 3.87622C40.5978 5.88097 40.1209 7.88176 39.7129 9.89707C39.6063 10.425 39.3231 11.0242 39.761 11.564H39.5011C38.815 10.7404 38.0405 10.6916 37.422 11.432H37.1621V11.3C37.205 11.1245 37.2492 10.9476 37.2921 10.7721H37.422L37.8118 10.6401C38.1445 10.685 38.2978 10.5649 38.3745 10.2019C38.6617 8.85576 38.9956 7.52146 39.3049 6.18056C39.6609 4.63641 39.9949 3.0883 40.3665 1.54812C40.5549 0.768125 40.6979 0.733811 41.4152 1.1667C41.4723 1.19969 41.5269 1.23533 41.5815 1.26964Z" fill="#8534FE"/>
<path id="Vector_87" d="M22.0903 16.3152L21.0508 16.4471V16.3152C23.5743 15.5141 26.103 14.7314 28.6187 13.9039C30.5601 13.2665 32.4819 12.5683 34.4181 11.911C34.9885 11.717 35.5876 11.6022 36.1502 11.3937C36.3854 11.3066 36.5673 11.0717 36.774 10.9041H36.9039C36.861 11.0796 36.8168 11.2564 36.774 11.432C35.3862 11.8952 33.9945 12.3492 32.6158 12.8243C31.7062 13.1371 30.7966 13.4842 29.8869 13.8076C29.0488 14.0715 28.2094 14.3355 27.3725 14.5994C25.6105 15.1705 23.8498 15.7424 22.0903 16.3152Z" fill="#7A30FD"/>
<path id="Vector_88" d="M37.8137 10.6401L37.4238 10.7721C37.8799 8.77 38.3334 6.76657 38.7921 4.7671C39.0806 3.5199 39.4016 2.28063 39.6809 1.03211C39.7823 0.580746 40.0786 0.588665 40.4125 0.609781C40.3034 0.765516 40.1422 0.906733 40.0929 1.07962C39.8902 1.77779 39.703 2.48123 39.5471 3.19128C39.1729 4.907 38.8389 6.63723 38.4556 8.35295C38.2828 9.12503 38.0294 9.87862 37.8137 10.6401Z" fill="#7F30FE"/>
<path id="Vector_89" d="M37.8135 10.6401C38.0292 9.87858 38.2826 9.12499 38.4554 8.35291C38.8387 6.63719 39.1727 4.9096 39.5469 3.19124C39.7003 2.48119 39.89 1.77775 40.0927 1.07958C40.1421 0.906693 40.3032 0.765476 40.4123 0.609741L41.5818 1.00568V1.26963C41.5273 1.23532 41.4727 1.19968 41.4168 1.16669C40.6995 0.733801 40.5566 0.770755 40.3682 1.54811C39.9965 3.08829 39.6626 4.6364 39.3065 6.18055C38.9973 7.52277 38.6633 8.85575 38.3761 10.2019C38.2995 10.5649 38.1461 10.6902 37.8135 10.6401Z" fill="#8332FE"/>
<path id="Vector_90" d="M36.774 11.432C36.8169 11.2565 36.8611 11.0796 36.904 10.9041L37.2938 10.7721L37.1639 11.3C36.9287 11.5864 36.748 12.0232 36.4492 12.1328C34.9392 12.6884 33.4046 13.1794 31.8661 13.6532C31.0019 13.9171 30.1144 14.1098 29.2373 14.3355L30.1469 13.8076C32.2767 13.1253 34.4078 12.4469 36.5349 11.7527C36.6441 11.7184 36.6948 11.5415 36.774 11.432Z" fill="#7D34FE"/>
<path id="Vector_91" d="M49.8988 33.0764L49.509 33.6044L49.1191 33.8683L49.7689 32.6805C49.9261 32.4456 50.1002 32.2212 50.2367 31.9731C50.4511 31.5772 50.7811 31.4624 51.193 31.3132C53.02 30.6533 54.8912 31.0559 56.7377 30.9727C58.3101 30.9014 59.8889 30.9622 61.4638 30.9648C61.2439 31.0298 61.0186 31.074 60.7907 31.0968C58.2568 31.106 55.7229 31.073 53.1903 31.1152C51.9792 31.135 50.7655 31.2736 50.2146 32.6686C50.128 32.8185 50.0218 32.9557 49.8988 33.0764Z" fill="#501CD2"/>
<path id="Vector_92" d="M39.6328 11.564H39.7628L39.8927 11.6959L40.5424 12.6198C40.6594 12.8455 40.7633 13.0804 40.8985 13.2942C41.2038 13.7786 41.5261 14.2524 41.8419 14.7314C42.0095 14.9822 42.1667 15.2422 42.3473 15.4824C42.9542 16.2914 43.5688 17.0939 44.1808 17.8989C44.4563 18.3331 44.7201 18.7766 45.0112 19.1989C46.2023 20.9252 47.3982 22.6475 48.5989 24.3659V24.4978C48.1233 23.8828 47.636 23.277 47.1695 22.6501C46.1651 21.2908 45.1736 19.9208 44.1808 18.5588C43.2894 17.2786 42.3616 16.0222 41.517 14.713C40.8543 13.6875 39.8537 12.8626 39.6328 11.564Z" fill="#8436FD"/>
<path id="Vector_93" d="M39.893 11.6959L39.7631 11.564C39.3277 11.0242 39.6084 10.4276 39.715 9.89708C40.123 7.88177 40.5999 5.88098 41.0638 3.87623C41.2652 3.00385 41.4952 2.13807 41.7135 1.26965C41.7616 1.45046 41.8811 1.64579 41.8435 1.80944C41.5264 3.39319 41.1807 4.95845 40.8507 6.53295C40.6727 7.38421 40.5206 8.24075 40.3309 9.08937C40.227 9.56185 40.0502 10.0132 39.9658 10.4949C39.9173 10.8934 39.893 11.2945 39.893 11.6959Z" fill="#8332FE"/>
<path id="Vector_94" d="M41.8414 14.7314C41.5257 14.2524 41.2034 13.7786 40.898 13.2942C40.7681 13.0804 40.6589 12.8455 40.542 12.6198V12.3558L41.4516 13.5436C41.6647 13.8446 41.8739 14.1481 42.0909 14.4451C42.7432 15.3337 43.3964 16.221 44.0505 17.1071L45.6098 19.2187L46.2595 20.4065C46.0828 20.2231 45.8918 20.0528 45.7319 19.8548C45.2122 19.2082 44.6924 18.5522 44.1804 17.8989C43.6295 17.0516 43.0915 16.1951 42.5171 15.3649C42.3456 15.1155 42.0701 14.94 41.8414 14.7314Z" fill="#7D2FFD"/>
<path id="Vector_95" d="M50.418 31.2288L49.5084 32.8125L44.3107 40.0713L44.0508 40.2033L44.3107 39.5434C44.7096 38.9812 45.1163 38.4242 45.5049 37.8554C46.1091 36.9711 46.7016 36.0776 47.2994 35.1881L49.1186 32.5485L49.7683 31.4927L50.418 31.2288Z" fill="#5720E0"/>
<path id="Vector_96" d="M44.3108 40.0713L49.5085 32.8125L49.7684 32.6805L49.1187 33.8683C48.9563 34.1204 48.7925 34.3724 48.6301 34.6258L47.1695 36.9038L46.7797 37.4317C46.6771 37.4515 46.5198 37.4317 46.4782 37.4951C45.7908 38.4796 45.1177 39.4747 44.4407 40.4672L44.0509 41.1271L43.791 41.2591L44.3108 40.0713Z" fill="#521DD5"/>
<path id="Vector_97" d="M50.4183 31.2288L49.7686 31.4927C49.8127 31.4043 49.8556 31.3172 49.8985 31.2288C50.3104 31.1403 50.7236 31.0625 51.1317 30.9648C51.4227 30.8922 51.7034 30.78 51.9932 30.7008C52.3141 30.6085 52.6429 30.458 52.9626 30.4554C55.8837 30.4369 58.8035 30.4448 61.7234 30.4448C61.5129 30.5319 61.3024 30.6956 61.0918 30.6969C58.7347 30.7154 56.3749 30.7616 54.0203 30.685C52.9379 30.6507 51.949 30.949 50.929 31.172C50.7613 31.201 50.5885 31.2076 50.4183 31.2288Z" fill="#5820E3"/>
<path id="Vector_98" d="M61.7233 30.4368C58.8035 30.4368 55.8836 30.4289 52.9625 30.4474C52.6389 30.4474 52.3128 30.6005 51.9931 30.6929C51.7034 30.7747 51.4227 30.8869 51.1316 30.9568C50.7236 31.0598 50.3104 31.1377 49.8984 31.2208C50.0752 31.0888 50.2337 30.9027 50.4312 30.8381C50.7255 30.764 51.0254 30.7154 51.3278 30.6929L52.1075 30.2969C52.4437 30.2322 52.7835 30.1881 53.1249 30.165C56.0344 30.1544 58.9425 30.165 61.852 30.165L61.7233 30.4368Z" fill="#5C23E9"/>
<path id="Vector_99" d="M32.7461 46.8022C33.0654 46.8351 33.3819 46.8911 33.6934 46.9698C34.9863 47.3908 36.2546 47.8936 37.5644 48.25C38.396 48.473 39.2849 48.4783 40.2555 48.5945C40.583 50.0291 40.9559 51.6379 41.3185 53.2493C41.6394 54.6747 41.9357 56.1053 42.2736 57.5254C42.332 57.7709 42.2606 58.2104 42.7518 58.1523L42.4919 58.4163C42.3411 58.2843 42.1098 58.1708 42.054 58.0032C41.9149 57.5743 41.8629 57.1163 41.7603 56.6742C41.5342 55.7028 41.2808 54.738 41.0703 53.764C40.7376 52.2173 40.431 50.6639 40.1152 49.1131C40.0424 48.7555 39.8462 48.6367 39.4772 48.638C38.8807 48.638 38.283 48.5615 37.6853 48.5179L35.0864 47.726L34.3067 47.4621L32.7461 46.8022Z" fill="#34118C"/>
<path id="Vector_100" d="M34.3054 47.4621L35.085 47.726L37.6839 48.6499C38.1959 48.6934 38.7078 48.7752 39.2198 48.77C39.5915 48.77 39.7786 48.9019 39.8552 49.2504C40.0813 50.3124 40.3113 51.3743 40.5452 52.4363C40.9637 54.3276 41.4003 56.2149 41.8005 58.1114C41.8772 58.4743 42.0305 58.5944 42.3619 58.5509L41.972 58.8148H41.7121C41.065 55.9764 40.4175 53.138 39.7695 50.2996C39.4511 48.9138 39.4433 48.9165 38.0737 48.9165L32.876 47.2007L34.3054 47.4621Z" fill="#2D0E79"/>
<path id="Vector_101" d="M42.3616 58.5483C42.0302 58.5918 41.8769 58.4717 41.8002 58.1088C41.4 56.2149 40.9634 54.3276 40.545 52.4337C40.3093 51.3726 40.0793 50.3106 39.855 49.2477C39.7783 48.8927 39.5951 48.7634 39.2195 48.7673C38.7076 48.7673 38.1956 48.6908 37.6836 48.6472V48.5153C38.2813 48.5588 38.8791 48.6367 39.4755 48.6354C39.8446 48.6354 40.0408 48.7528 40.1135 49.1105C40.4293 50.6612 40.736 52.2146 41.0686 53.7614C41.2791 54.7354 41.5325 55.7002 41.7586 56.6715C41.8613 57.1136 41.9133 57.5716 42.0523 58.0005C42.1082 58.1682 42.3395 58.2777 42.4902 58.4136L42.3616 58.5483Z" fill="#321086"/>
<path id="Vector_102" d="M17.412 40.7312V40.8632C16.7194 40.4923 16.2243 40.0475 16.2282 39.1224C16.2555 33.0012 16.2438 26.8801 16.2373 20.7589C16.2149 20.5062 16.1715 20.2558 16.1074 20.0106C15.5291 18.6816 14.1374 18.349 13.1485 17.5228C12.8055 17.2351 12.4364 16.9804 12.0791 16.7111H12.339C13.3266 17.3473 14.3141 17.983 15.3017 18.6182C15.481 18.733 15.6655 18.8426 15.8475 18.9548C15.9163 19.1382 15.9397 19.3626 16.0619 19.4959C16.5336 20.0172 16.5037 20.6375 16.5024 21.2776C16.4933 27.1216 16.518 32.9656 16.4751 38.8096C16.4738 39.682 16.7311 40.2745 17.412 40.7312Z" fill="#3E14A8"/>
<path id="Vector_103" d="M32.0964 46.2742L32.3563 46.6702C31.2713 46.3191 30.1901 45.9562 29.0999 45.6144C27.8447 45.225 26.5712 44.8898 25.3237 44.4741C23.0965 43.7337 20.8745 42.9735 18.6667 42.1737C17.5973 41.7883 16.6604 41.1627 15.9834 40.2006V39.9366H16.1133C17.1529 41.3607 18.6355 41.9704 20.2715 42.3123C20.4639 42.3994 20.651 42.5049 20.8511 42.5762C23.1992 43.3681 25.5472 44.1507 27.9005 44.9201C28.8101 45.2197 29.7444 45.4731 30.667 45.7477L32.0964 46.2742Z" fill="#371193"/>
<path id="Vector_104" d="M20.2715 42.3149C18.6355 41.9731 17.1528 41.3633 16.1133 39.9393V20.0106C16.1774 20.2558 16.2209 20.5061 16.2432 20.7589C16.2497 26.88 16.2614 33.0012 16.2341 39.1223C16.2341 40.0462 16.7253 40.4923 17.4179 40.8631C18.1911 41.7052 19.2865 41.8266 20.2767 42.1829L20.2715 42.3149Z" fill="#3C14A0"/>
<path id="Vector_105" d="M15.9828 39.9393C15.9187 39.6936 15.8752 39.4429 15.8529 39.1897C15.8459 32.8407 15.8459 26.4916 15.8529 20.1426C15.9171 20.3883 15.9605 20.639 15.9828 20.8922C15.9828 27.2404 15.9828 33.5894 15.9828 39.9393Z" fill="#371193"/>
<path id="Vector_106" d="M12.345 16.7111H12.0851L9.61621 14.9954C9.815 15.0515 10.0075 15.1284 10.1906 15.2251C10.9156 15.7055 11.6277 16.2136 12.345 16.7111Z" fill="#3E14A8"/>
<path id="Vector_107" d="M13.9042 14.8634C13.4091 14.61 12.8894 14.3936 12.4216 14.0953C11.1221 13.2665 9.84478 12.3994 8.55444 11.5534C7.88003 11.1113 7.82935 10.8935 8.31664 10.3762C8.18669 10.7325 8.20489 10.9516 8.60121 11.205C10.3217 12.3083 11.9992 13.4777 13.6911 14.6272C13.771 14.6972 13.8425 14.7765 13.9042 14.8634Z" fill="#6422FC"/>
<path id="Vector_108" d="M17.2827 17.8989V18.2949C17.1969 18.1246 17.0228 17.9451 17.0423 17.7854C17.1164 17.1084 16.6525 16.8616 16.2107 16.5448C15.5168 16.0446 14.845 15.5141 14.1641 14.9954C14.3109 15.0152 14.4837 14.9954 14.5994 15.0641C15.2491 15.4745 15.878 15.9311 16.5407 16.3244C17.1528 16.69 17.4425 17.1757 17.2827 17.8989Z" fill="#6623FD"/>
<path id="Vector_109" d="M17.5419 19.2187V19.6147C17.1954 18.9988 16.8489 18.3829 16.5024 17.767C16.3461 17.5746 16.172 17.3978 15.9826 17.2391C14.4739 16.2175 12.9549 15.2105 11.4346 14.2036C11.3046 14.0914 11.189 13.9713 11.0551 13.871C10.4912 13.45 9.92202 13.0355 9.35547 12.6198C9.50165 12.6365 9.64448 12.6757 9.77909 12.736C11.905 14.1362 14.0373 15.5286 16.1359 16.9711C16.4725 17.2021 16.6726 17.6535 16.9013 18.027C17.13 18.4005 17.3301 18.8202 17.5419 19.2187Z" fill="#5B1EF0"/>
<path id="Vector_110" d="M9.35608 12.6198C9.92263 13.0355 10.4918 13.45 11.0557 13.871C11.1857 13.9713 11.3156 14.0914 11.4352 14.2036H11.1753C10.2657 13.5687 9.34828 12.9339 8.44647 12.2925C8.28794 12.179 8.18658 11.985 8.05664 11.8279L9.35608 12.6198Z" fill="#591EED"/>
<path id="Vector_111" d="M15.3332 18.2949L14.9434 18.0309C14.8304 17.8625 14.6997 17.7072 14.5535 17.5677C13.9987 17.1388 13.4269 16.7323 12.8643 16.3165C13.062 16.3886 13.2537 16.4768 13.4373 16.5805C14.291 17.1454 15.1357 17.7247 15.9829 18.2962C16.2571 18.7594 16.4507 19.3085 16.8236 19.6675C17.2836 20.1096 17.2862 20.5913 17.2862 21.1364C17.2797 27.0596 17.294 32.9814 17.2667 38.9033C17.2667 39.6186 17.4383 40.1333 18.062 40.4686C18.2314 40.6187 18.4151 40.7514 18.6104 40.8645C19.0236 41.0612 19.4563 41.2169 19.8812 41.3924H19.3614C18.7572 41.0691 18.1569 40.7391 17.5487 40.4237C17.051 40.1663 16.8678 39.7849 16.8808 39.2016C16.9293 36.7864 16.9514 34.3699 16.9471 31.952C16.9471 28.4005 16.9081 24.8476 16.8964 21.2948C16.8964 20.6137 16.9666 19.9327 16.3169 19.4563C16.1973 19.3679 16.2077 19.1118 16.096 18.9917C15.8634 18.741 15.5931 18.5245 15.3332 18.2949Z" fill="#4A18C6"/>
<path id="Vector_112" d="M15.333 18.2949C15.5929 18.5245 15.8632 18.7383 16.0958 18.9904C16.2075 19.1105 16.1971 19.3665 16.3167 19.455C16.9664 19.9314 16.8949 20.6124 16.8962 21.2934C16.9079 24.8463 16.943 28.3991 16.9469 31.9507C16.9469 34.3667 16.9248 36.7833 16.8806 39.2002C16.8676 39.7836 17.0509 40.165 17.5485 40.4224C18.1567 40.7378 18.757 41.0677 19.3613 41.3911V41.5231L17.4121 40.7312C16.7312 40.2745 16.4739 39.682 16.4804 38.8096C16.5233 32.9656 16.4986 27.1216 16.5077 21.2776C16.5077 20.6375 16.5389 20.0172 16.0672 19.4959C15.945 19.3639 15.9217 19.1382 15.8528 18.9548L15.333 18.2949Z" fill="#4516B8"/>
<path id="Vector_113" d="M12.864 16.3152C13.4292 16.7309 14.001 17.1374 14.5532 17.5663C14.6994 17.7058 14.8301 17.8612 14.943 18.0296L11.4346 15.654V15.522L12.864 16.3138V16.3152Z" fill="#4717C0"/>
<path id="Vector_114" d="M18.0619 40.4672C17.4382 40.132 17.2641 39.6173 17.2667 38.9019C17.294 32.9801 17.2797 27.0582 17.2862 21.135C17.2862 20.5886 17.2862 20.1082 16.8236 19.6661C16.4506 19.3071 16.257 18.7581 15.9828 18.2948C15.8451 18.114 15.7372 17.891 15.5618 17.7669C15.1096 17.4357 14.6197 17.1572 14.1558 16.8431C13.0721 16.1014 11.9949 15.3464 10.915 14.5994V14.4675C11.6081 14.8872 12.2981 15.3073 12.985 15.7279C13.2943 15.9192 13.5984 16.1238 13.9037 16.3152L14.4235 16.5791C14.5063 16.6749 14.5972 16.7633 14.6951 16.8431C15.5566 17.4317 16.5143 17.9161 16.7742 19.0867C16.808 19.2385 16.9691 19.3784 17.1004 19.4826C17.563 19.8627 17.6786 20.3484 17.676 20.9344C17.6604 26.9275 17.676 32.9207 17.65 38.9138C17.65 39.6872 17.9021 40.165 18.5765 40.4527V40.5847L18.0619 40.4672Z" fill="#501BD6"/>
<path id="Vector_115" d="M14.4234 16.5792L13.9036 16.3152C13.5281 15.9932 13.1655 15.6553 12.7744 15.3531C12.2546 14.9571 11.7089 14.585 11.1748 14.2036H11.4347C12.9498 15.2145 14.4689 16.2215 15.9827 17.2391C16.1721 17.3978 16.3462 17.5746 16.5025 17.767L14.4234 16.5792Z" fill="#561DE6"/>
<path id="Vector_116" d="M10.9152 14.5995C11.9951 15.3465 13.0723 16.0961 14.156 16.8365C14.6199 17.1533 15.1098 17.4318 15.562 17.7604C15.7374 17.8924 15.8453 18.1114 15.983 18.2883C15.1358 17.7142 14.2938 17.1348 13.4374 16.5726C13.2538 16.4689 13.0621 16.3806 12.8644 16.3086C12.7452 16.1923 12.6203 16.0822 12.4901 15.9787C11.8404 15.5128 11.1803 15.0548 10.5254 14.5929L10.9152 14.5995Z" fill="#4D19CD"/>
<path id="Vector_117" d="M10.525 14.5995C11.1747 15.0614 11.8375 15.5233 12.4898 15.9852C12.6199 16.0887 12.7448 16.1988 12.864 16.3152L11.4346 15.5233L9.22559 13.9396H9.48547L10.525 14.5995Z" fill="#4A18C6"/>
<path id="Vector_118" d="M48.7292 28.9851V29.3811C47.2963 27.3908 45.8635 25.4028 44.4306 23.417C43.353 21.9212 42.2822 20.418 41.2184 18.9073C41.1545 18.797 41.1022 18.6802 41.0625 18.5588L41.5823 18.9548L48.7292 28.9851Z" fill="#6F2FFD"/>
<path id="Vector_119" d="M49.8986 30.4369C49.6712 30.5609 49.3672 30.6256 49.2281 30.817C47.7844 32.8032 46.3694 34.8093 44.94 36.8088C44.4748 37.4594 44.0005 38.1035 43.5301 38.7515L42.2307 40.5992L41.8408 40.8631C42.3372 40.0805 42.8063 39.2794 43.3365 38.5179C44.8282 36.3798 46.3408 34.2576 47.8533 32.1354C48.2159 31.6273 48.6187 31.1482 48.9786 30.6375C49.2385 30.2706 49.5231 30.1769 49.8986 30.4369Z" fill="#662AFC"/>
<path id="Vector_120" d="M41.8418 40.8631L42.2316 40.5992C42.1932 40.7217 42.1423 40.8398 42.0796 40.9516C41.2739 42.0853 40.4683 43.2203 39.647 44.3434C39.1364 45.0416 38.5984 45.7199 38.0734 46.4062L37.6836 46.2743V46.1423C37.8252 46.071 38.0201 46.0367 38.102 45.9219C39.1416 44.4543 40.1655 42.9722 41.209 41.5046C41.3805 41.2617 41.6287 41.0756 41.8418 40.8631Z" fill="#662AFB"/>
<path id="Vector_121" d="M37.6841 46.1423V46.2743H37.2942L35.9948 45.8784C35.8265 45.7877 35.6529 45.7075 35.475 45.6382C33.0919 44.834 30.7096 44.0342 28.3281 43.2388V43.1068C29.5613 43.4922 30.7971 43.8657 32.0276 44.2656C33.9157 44.8819 35.7986 45.5154 37.6841 46.1423Z" fill="#6227F5"/>
<path id="Vector_122" d="M28.3279 43.1068V43.2388L25.729 42.4469C25.3756 42.3149 25.0221 42.1829 24.67 42.051L22.6104 41.2591L28.3279 43.1068Z" fill="#6227F4"/>
<path id="Vector_123" d="M41.5821 18.9547L41.0624 18.5588L39.5031 16.3152L39.2432 15.6553L40.9324 17.7669L41.5821 18.9547Z" fill="#7231FD"/>
<path id="Vector_124" d="M18.9717 40.0713H19.3615L22.6101 41.2591L18.9717 40.0713Z" fill="#6227F4"/>
<path id="Vector_125" d="M21.0512 16.3152V16.4472C20.1936 16.7111 19.3333 16.9751 18.4835 17.2628C18.3211 17.3182 18.2015 17.5069 18.0625 17.635C18.1379 17.4687 18.1781 17.1942 18.2951 17.1559C19.206 16.8497 20.1312 16.5897 21.0512 16.3152Z" fill="#772EFD"/>
<path id="Vector_126" d="M40.9325 17.767L39.2432 15.6553C38.9378 15.2515 38.6351 14.845 38.3232 14.4477C38.1179 14.1837 37.897 13.9317 37.6839 13.6756C37.3772 13.2705 37.0004 13.5041 36.6807 13.6083C35.6412 13.9475 34.6133 14.3474 33.5712 14.6932C31.4271 15.4032 29.2752 16.0922 27.1272 16.7903L18.842 19.4827L18.3223 18.5588H18.4522V18.6908C18.4964 18.7344 18.5393 18.7779 18.5822 18.8228L18.7121 18.9548C18.7914 19.0366 18.8992 19.2029 18.9447 19.187C19.8673 18.8571 20.7834 18.5087 21.7008 18.1629L25.3392 16.9751L28.7178 15.9193C28.8431 15.8127 28.9821 15.7239 29.131 15.6553C29.8054 15.4455 30.4954 15.2844 31.1646 15.0588C32.9214 14.4688 34.6731 13.871 36.4156 13.2348C36.8769 13.0659 37.268 13.0342 37.6839 13.2771L38.2036 13.541L39.633 15.5207C39.763 15.72 39.8929 15.9166 40.0229 16.1172L41.1923 17.8963L40.9325 17.767Z" fill="#7734FD"/>
<path id="Vector_127" d="M18.8418 19.4826L27.127 16.7903C29.275 16.0921 31.4268 15.4032 33.5709 14.6931C34.6105 14.3474 35.637 13.9475 36.6805 13.6083C37.0001 13.504 37.377 13.2704 37.6836 13.6756C36.8364 13.9105 35.9788 14.1138 35.1432 14.3843C32.3772 15.2809 29.6154 16.1911 26.858 17.1149C25.4715 17.5795 24.1032 18.1021 22.7154 18.5667C21.5524 18.9521 20.3764 19.2913 19.1978 19.6318C19.1017 19.6555 18.9613 19.5328 18.8418 19.4826Z" fill="#7231FD"/>
<path id="Vector_128" d="M18.4523 18.5588H18.3223L18.1924 18.1629C18.3951 17.9438 18.5601 17.6192 18.8083 17.5254C19.8037 17.1467 20.825 16.8418 21.8334 16.5026C21.9287 16.4535 22.0163 16.3904 22.0933 16.3152C23.8545 15.7451 25.6152 15.1732 27.3755 14.5995C28.2123 14.3355 29.0518 14.0716 29.8899 13.8076H30.1498L29.2402 14.3355L27.0311 15.1274C26.2359 15.1432 25.4822 15.3056 24.8221 15.7873C23.6799 16.1911 22.539 16.599 21.3942 16.9962C20.6418 17.2602 19.8985 17.6152 19.1241 17.7181C18.5016 17.8013 18.4263 18.0811 18.4523 18.5588Z" fill="#7C33FD"/>
<path id="Vector_129" d="M18.9717 40.0713L22.6101 41.2591L24.6697 42.051C25.0219 42.183 25.3753 42.3149 25.7288 42.4469H25.3389C24.8867 42.3149 24.4293 42.183 23.9836 42.0431C22.3853 41.5231 20.7844 41.015 19.1952 40.4672C18.1712 40.1135 18.0556 39.9077 18.0634 38.7792C18.0777 36.6834 18.1076 34.5889 18.118 32.4931C18.1271 30.4224 18.118 28.3516 18.118 26.2809C18.118 25.5854 18.1764 24.8912 18.1751 24.1956C18.1751 23.3114 18.1548 22.4276 18.1141 21.5442C18.0829 20.8566 18.3739 20.0555 17.5371 19.6147V19.3507L18.5767 20.1426C18.514 20.4164 18.4727 20.6949 18.4532 20.9754C18.4532 23.7007 18.487 26.4247 18.4857 29.1488C18.4857 32.5551 18.4506 35.9628 18.4688 39.3692C18.4688 39.6041 18.7937 39.8377 18.9665 40.0713H18.9717Z" fill="#5F25F0"/>
<path id="Vector_130" d="M18.9713 40.0713C18.7985 39.8377 18.4749 39.6041 18.4736 39.3692C18.4554 35.9628 18.4892 32.5551 18.4905 29.1488C18.4905 26.4247 18.4619 23.7007 18.458 20.9754C18.4775 20.6949 18.5188 20.4164 18.5815 20.1426C18.6456 20.3883 18.689 20.6391 18.7114 20.8922C18.7114 26.9632 18.7114 33.0237 18.7283 39.0894C18.7231 39.4167 18.8842 39.744 18.9713 40.0713Z" fill="#6227F4"/>
<path id="Vector_131" d="M44.351 54.812C44.221 55.0891 44.1288 55.299 43.9832 55.621L43.2607 55.0693L44.351 54.812Z" fill="#3A149A"/>
<path id="Vector_132" d="M37.9435 47.5941L37.4237 47.4621H37.2938C37.0638 47.3209 36.8494 47.1348 36.6012 47.045C35.8345 46.7719 35.0575 46.5303 34.2817 46.2875C33.8165 46.141 33.3448 46.0143 32.8757 45.8784C32.3495 45.7015 31.8219 45.5299 31.2982 45.3504C29.9165 44.87 28.5365 44.3861 27.1582 43.8987C27.5324 43.9792 27.9158 44.0307 28.2809 44.1468C29.5557 44.5427 30.8252 44.9479 32.0961 45.3504L38.7232 47.5941H37.9435Z" fill="#4A1AC2"/>
<path id="Vector_133" d="M20.2715 42.3149V42.1829C23.0505 43.0874 25.8292 43.9919 28.6074 44.8964C29.2987 45.1221 29.9809 45.3742 30.667 45.6144V45.7463C29.7444 45.4718 28.8153 45.2184 27.9005 44.9188C25.5472 44.1494 23.1991 43.3602 20.851 42.5749C20.6509 42.5076 20.4638 42.402 20.2715 42.3149Z" fill="#3C14A1"/>
<path id="Vector_134" d="M19.3613 41.523V41.3911H19.8811L22.35 42.1829C23.2259 42.4918 24.1069 42.7887 24.9775 43.1134C25.6272 43.3562 26.2587 43.6347 26.8981 43.8986V44.0306C25.2179 43.4842 23.5351 42.9431 21.8562 42.3888C21.0207 42.113 20.193 41.8121 19.3613 41.523Z" fill="#4718BC"/>
<path id="Vector_135" d="M26.8984 44.0307V43.8987H27.1583C28.5383 44.3817 29.9183 44.8656 31.2983 45.3504C31.8181 45.5326 32.3496 45.7041 32.8758 45.8784V46.0103C31.9935 45.7464 31.1034 45.5088 30.2302 45.2185C29.1075 44.8436 28.0082 44.4279 26.8984 44.0307Z" fill="#4417B5"/>
<path id="Vector_136" d="M32.876 46.0103V45.8784C33.3451 46.0103 33.8168 46.1423 34.282 46.2875C35.0616 46.5303 35.8348 46.7718 36.6015 47.045C36.8497 47.1348 37.0641 47.3209 37.2941 47.4621L32.876 46.0103Z" fill="#4718BB"/>
<path id="Vector_137" d="M37.6839 48.1206L32.876 46.4049C34.4587 46.9161 36.041 47.4286 37.6228 47.9425C37.6592 47.9557 37.6644 48.0599 37.6839 48.1206Z" fill="#3C14A2"/>
<path id="Vector_138" d="M30.667 45.7464V45.6144L32.876 46.4063L32.0964 46.2743L30.667 45.7464Z" fill="#3C14A2"/>
<path id="Vector_139" d="M45.7403 40.0713L45.4804 40.7312L43.7911 43.2388L43.5312 43.3707C43.5741 43.1939 43.6183 43.0184 43.6612 42.8428L44.051 42.1829C44.1422 42.0964 44.2289 42.0052 44.3109 41.9097C44.793 41.2974 45.266 40.6837 45.7403 40.0713Z" fill="#4015AC"/>
<path id="Vector_140" d="M44.0507 42.1816L43.6609 42.8415C43.2711 43.3219 42.889 43.8037 42.4914 44.2801C42.3705 44.4253 42.2315 44.5533 42.1016 44.6892L42.2315 44.1613L44.0507 41.5217L44.3106 41.3898C44.2235 41.655 44.1378 41.919 44.0507 42.1816Z" fill="#4718BD"/>
<path id="Vector_141" d="M37.9434 47.5941H38.723C39.5027 47.8844 39.7886 47.7815 40.2343 47.1638C40.8385 46.3258 41.4778 45.5128 42.1016 44.6906C41.4168 45.7081 40.7527 46.7415 40.0225 47.7261C39.9068 47.8818 39.5027 47.8726 39.235 47.8462C38.8006 47.7841 38.3695 47.7 37.9434 47.5941Z" fill="#4718BD"/>
<path id="Vector_142" d="M44.0508 42.1816C44.1378 41.9177 44.2236 41.6537 44.3107 41.3898L45.9999 38.8822C46.2182 38.4862 46.4348 38.0903 46.6497 37.6944L47.1694 37.5624C47.1265 37.7828 47.0824 38.0019 47.0395 38.2223L45.74 40.07C45.2658 40.6823 44.7928 41.296 44.3107 41.9071C44.2287 42.003 44.142 42.0947 44.0508 42.1816Z" fill="#4618BB"/>
<path id="Vector_143" d="M38.0732 48.9138C39.4428 48.9138 39.4506 48.9138 39.769 50.297C40.4213 53.1345 41.0689 55.9729 41.7117 58.8122C41.5414 58.3938 41.3101 57.99 41.2114 57.5558C40.6162 54.9307 40.0536 52.2977 39.4688 49.6701C39.3974 49.3507 39.3714 48.9336 38.8529 49.0458L38.0732 48.9138Z" fill="#2C0E75"/>
<path id="Vector_144" d="M46.2601 20.4065L45.6104 19.2187C45.7988 18.9811 45.9521 18.6908 46.1834 18.5166C46.4654 18.2988 46.8136 18.1708 47.132 18.0045L47.0696 17.7815L48.6536 18.0811L48.9395 17.7062L49.6581 18.147C49.3982 18.5139 49.1383 18.8135 48.9525 19.1474C48.729 19.5434 48.4808 19.5553 48.0052 19.1897L47.6089 19.4668C47.6505 19.8958 47.6998 20.2891 47.7076 20.6824C47.7076 20.7153 47.4387 20.7906 47.297 20.784C47.0781 20.7627 46.861 20.7256 46.6473 20.6731L46.2601 20.4065Z" fill="#792DFE"/>
<path id="Vector_145" d="M44.051 17.1071C43.3978 16.2202 42.7447 15.3328 42.0915 14.4451C41.8745 14.1481 41.6653 13.8446 41.4521 13.5436L42.1434 13.0237L42.7867 13.5384L43.1557 12.9167C43.2649 13.0118 43.4234 13.0857 43.4247 13.1622C43.4338 13.6492 43.2116 14.3038 43.4429 14.5823C43.7483 14.9519 43.6092 15.3861 43.8262 15.654C44.1524 16.0578 44.194 16.4102 44.0068 16.8537C43.9796 16.9197 44.0341 17.0252 44.051 17.1071Z" fill="#792DFE"/>
<path id="Vector_146" d="M46.2598 20.4065L46.6496 20.6705C46.7341 20.8882 46.7795 21.1337 46.9095 21.3185C48.0985 23.0078 49.3017 24.6866 50.5024 26.368C50.9052 26.9328 51.3094 27.4973 51.7148 28.0613C51.6719 28.3688 51.6277 28.6776 51.5849 28.9851L51.0651 29.2491V28.9851C51.5186 28.6486 51.5537 28.2737 51.2106 27.8184C50.6389 27.0582 50.097 26.2756 49.5291 25.5141C49.2342 25.1181 48.908 24.7473 48.5961 24.3659C47.4015 22.6396 46.2065 20.9173 45.011 19.1989C44.7199 18.7766 44.4561 18.3331 44.1807 17.8989C44.7004 18.5522 45.2085 19.2082 45.7322 19.8548C45.892 20.0528 46.083 20.2231 46.2598 20.4065Z" fill="#8134FD"/>
<path id="Vector_147" d="M51.068 29.1171V29.2491C50.6132 29.7506 49.857 29.8007 49.4801 29.3058C48.7953 28.411 48.1443 27.4885 47.4855 26.5725C46.219 24.8128 44.955 23.0531 43.6937 21.2934C42.9881 20.3049 42.2955 19.3045 41.5886 18.316C41.4667 18.1674 41.3342 18.028 41.1923 17.8989L40.0228 16.1199C39.8929 15.9206 39.7629 15.7239 39.633 15.5233L38.2036 13.5436L37.6838 13.2797L37.294 12.7518C37.2511 12.6198 37.2069 12.4878 37.1641 12.3558C37.4239 12.6 37.6929 12.8455 37.9593 13.0896C38.3491 13.4433 38.8079 13.7416 39.1106 14.1587C40.7362 16.4023 42.3215 18.6723 43.9185 20.9344L45.8677 23.706L47.1671 25.5537L48.0767 26.7415C48.525 27.4014 48.9616 28.0613 49.4242 28.7132C50.0285 29.5513 50.1584 29.5724 51.068 29.1171Z" fill="#7E39FD"/>
<path id="Vector_148" d="M51.3273 30.7008C51.0249 30.7233 50.7249 30.7719 50.4307 30.846C50.2332 30.9107 50.0746 31.0967 49.8979 31.2287C49.855 31.3171 49.8121 31.4043 49.768 31.4927L49.1182 32.5485L47.6889 34.2642C47.5468 34.3626 47.4161 34.4769 47.299 34.6047C46.5194 35.6526 45.7683 36.7164 44.9899 37.7616C44.4702 38.4545 43.9309 39.1263 43.3994 39.8073C43.5727 39.4554 43.7459 39.1034 43.9192 38.7515C44.7153 37.6218 45.5119 36.492 46.3089 35.3623C47.0885 34.2484 47.8682 33.1305 48.6543 32.0206C48.7994 31.8366 48.9539 31.6604 49.1169 31.4927C49.638 30.6031 50.4787 30.6427 51.3273 30.7008Z" fill="#6026F2"/>
<path id="Vector_149" d="M43.9207 38.7515C43.7474 39.1035 43.5742 39.4554 43.4009 39.8074C43.271 40.0053 43.141 40.2033 43.0111 40.4013C42.4497 41.2151 41.8867 42.029 41.3218 42.8429C41.1334 43.0012 40.906 43.1293 40.7657 43.3233C40.0913 44.2471 39.4532 45.2026 38.7736 46.1238C38.6242 46.3244 38.4631 46.7204 38.0732 46.4063C38.593 45.72 39.1362 45.0416 39.6469 44.3434C40.4681 43.2203 41.2738 42.0853 42.0794 40.9516C42.1421 40.8399 42.193 40.7218 42.2314 40.5992L43.5309 38.7515H43.9207Z" fill="#6327F6"/>
<path id="Vector_150" d="M46.6495 37.6957L45.9998 38.8835C45.8438 38.9692 45.6541 39.0234 45.5411 39.1474C45.159 39.5724 44.8056 40.0238 44.4404 40.4672C45.1174 39.4747 45.7905 38.4796 46.4779 37.4951C46.5208 37.433 46.6768 37.4515 46.7794 37.4317L46.6495 37.6957Z" fill="#4F1CCF"/>
<path id="Vector_151" d="M47.1699 36.9038L48.6305 34.6259C48.7929 34.3725 48.9566 34.1204 49.1191 33.8683L49.5089 33.6044L47.1699 36.9038Z" fill="#4C1AC9"/>
<path id="Vector_152" d="M37.164 12.3558C37.2069 12.4878 37.2511 12.6198 37.294 12.7517C36.2401 13.0685 35.1824 13.3694 34.135 13.706C32.3587 14.2774 30.5902 14.8713 28.8191 15.4586C27.0063 16.0578 25.1962 16.6636 23.3822 17.2601C21.7839 17.788 20.183 18.3014 18.5821 18.8228C18.5392 18.7779 18.4963 18.7343 18.4521 18.6908C18.5626 18.4954 18.6315 18.1813 18.7887 18.1246C19.558 17.8461 20.348 17.6363 21.1277 17.4053C21.6916 17.239 22.2621 17.0899 22.817 16.9064C23.3081 16.7454 23.7928 16.5593 24.2723 16.3627C24.9311 16.0987 25.5822 15.8044 26.2371 15.5233L27.0167 15.1274L29.2258 14.3355C30.1029 14.1098 30.9904 13.9198 31.8545 13.6532C33.3931 13.1794 34.9277 12.6884 36.4376 12.1328C36.7365 12.0232 36.9171 11.5864 37.1523 11.3V12.3558H37.164Z" fill="#7E37FE"/>
<path id="Vector_153" d="M37.1641 12.3559V11.432H37.4239V11.696C37.411 12.3347 37.7852 12.6554 38.3128 12.9088C38.6676 13.0669 38.9849 13.3005 39.2432 13.5938C39.7707 14.2431 40.2307 14.9466 40.7128 15.6342C41.6103 16.9135 42.5065 18.1963 43.4014 19.4827L44.5708 21.0664C45.3271 22.1645 46.0704 23.2718 46.8462 24.3566C47.1801 24.8239 47.579 25.2435 47.9494 25.6857C47.9718 25.7855 48.0063 25.8821 48.052 25.9734C48.6394 26.8339 49.215 27.701 49.8323 28.5377C50.0558 28.8426 50.352 29.1659 50.8081 28.8532H50.9381C50.3715 29.3547 50.2156 29.3507 49.7816 28.8043C49.5529 28.5166 49.3489 28.2091 49.1137 27.9267C48.7784 27.5307 48.425 27.1348 48.0741 26.7389L47.1645 25.5511L45.8651 23.7034L43.9159 20.9318C42.3163 18.6697 40.731 16.3984 39.108 14.156C38.8052 13.739 38.344 13.4407 37.9567 13.087C37.6929 12.8455 37.4239 12.6 37.1641 12.3559Z" fill="#853CFD"/>
<path id="Vector_154" d="M39.6329 11.564C39.8538 12.8626 40.8543 13.6875 41.5171 14.713C42.3643 16.0222 43.2895 17.2786 44.1809 18.5588L44.5707 19.4827C44.0873 18.8637 43.639 18.213 43.1115 17.635C42.7216 17.2047 42.6775 16.4577 41.9719 16.3152C41.4768 15.5141 40.9791 14.7143 40.4866 13.9119C40.1981 13.4394 39.9174 12.9629 39.6329 12.4878C39.59 12.1803 39.5458 11.8715 39.5029 11.564H39.6329Z" fill="#883BFD"/>
<path id="Vector_155" d="M39.5029 11.5639C39.5458 11.8715 39.59 12.1803 39.6329 12.4878L39.373 12.3558L39.1131 11.6959L38.9832 11.5639C38.5102 11.2089 38.0735 11.2063 37.6837 11.6959H37.4238V11.432C38.0424 10.6902 38.8168 10.7404 39.5029 11.5639Z" fill="#8B3BFD"/>
<path id="Vector_156" d="M30.1466 13.8076H29.8867C30.7963 13.479 31.6981 13.1372 32.6155 12.8244C33.9994 12.3493 35.3911 11.9005 36.7737 11.432C36.6945 11.5415 36.6373 11.7184 36.5346 11.7527C34.4075 12.4469 32.2764 13.1253 30.1466 13.8076Z" fill="#7B33FD"/>
<path id="Vector_157" d="M44.5705 19.4827L44.1807 18.5588C45.1773 19.9235 46.1688 21.2934 47.1694 22.6502C47.632 23.2744 48.1193 23.8802 48.5987 24.4979C49.3602 25.6012 50.097 26.7243 50.8975 27.7973C51.169 28.1603 51.2873 28.4572 51.0677 28.8531H50.8078C50.7766 28.6473 50.8078 28.4044 50.7051 28.2421C50.2841 27.5518 49.8241 26.8867 49.3784 26.2136L47.6891 23.838L47.2993 23.3101L45.9999 21.4624L44.5705 19.4827Z" fill="#883BFD"/>
<path id="Vector_158" d="M51.0676 28.8531C51.2859 28.4572 51.1689 28.1589 50.8973 27.7973C50.0969 26.7256 49.3601 25.6025 48.5986 24.4978V24.3658C48.9105 24.7473 49.2367 25.1181 49.5316 25.5141C50.0995 26.2756 50.6413 27.0582 51.2131 27.8184C51.5561 28.2737 51.5211 28.6485 51.0676 28.9851V28.8531Z" fill="#8436FD"/>
<path id="Vector_159" d="M41.8418 14.7314C42.0705 14.94 42.346 15.1155 42.5175 15.3649C43.0919 16.1951 43.6298 17.0516 44.1808 17.8989C43.5687 17.0939 42.9541 16.2914 42.3473 15.4824C42.1667 15.2422 42.0094 14.9822 41.8418 14.7314Z" fill="#8134FD"/>
<path id="Vector_160" d="M41.3224 42.8428C41.8855 42.0289 42.4486 41.2151 43.0117 40.4012C43.1416 40.2059 43.2716 40.0053 43.4015 39.8073C43.933 39.1263 44.4762 38.4545 44.992 37.7616C45.7717 36.7164 46.5267 35.65 47.3011 34.6047C47.4182 34.4769 47.549 34.3626 47.691 34.2642L47.3011 35.1881C46.7034 36.0776 46.1109 36.9711 45.5066 37.8554C45.1168 38.4242 44.7114 38.9811 44.3124 39.5434C44.1431 39.6745 43.9873 39.8226 43.8472 39.9855C42.874 41.362 41.9228 42.757 40.9417 44.1243C40.778 44.354 40.5064 44.5044 40.2842 44.6905C40.4427 44.42 40.6051 44.1507 40.7585 43.8762C40.9482 43.5344 41.134 43.1873 41.3224 42.8428Z" fill="#5D24EA"/>
<path id="Vector_161" d="M44.3106 40.0713L43.7908 41.2591C43.5543 41.564 43.2957 41.8543 43.0878 42.1829C42.6161 42.9233 42.1691 43.6796 41.7117 44.4266C41.5376 44.6457 41.3648 44.8661 41.1919 45.0865C40.8454 45.5264 40.4989 45.9663 40.1524 46.4062C40.0587 46.4455 39.9711 46.4984 39.8925 46.5633C39.0986 47.4647 38.9933 47.4872 37.8446 47.0199C37.6263 46.9302 37.3989 46.8642 37.1767 46.7877L33.7852 45.6144H34.175L35.4744 45.8783L37.2936 46.5382C38.3332 47.2324 39.0414 47.247 39.5365 46.5541C41.0464 44.4424 42.5512 42.3255 44.0507 40.2033L44.3106 40.0713Z" fill="#541FD9"/>
<path id="Vector_162" d="M44.051 40.2033C42.5471 42.322 41.0424 44.4389 39.5368 46.5541C39.0417 47.247 38.3309 47.2325 37.2939 46.5382H37.5538C38.0398 46.5858 38.7324 46.8616 38.9715 46.6372C39.5251 46.1159 39.859 45.3544 40.2826 44.6906C40.5049 44.5045 40.7764 44.354 40.9402 44.1244C41.9212 42.7531 42.8724 41.3621 43.8457 39.9855C43.9857 39.8226 44.1416 39.6745 44.3109 39.5434L44.051 40.2033Z" fill="#5821E1"/>
<path id="Vector_163" d="M47.2998 35.1881L47.6896 34.2642L49.119 32.5485L47.2998 35.1881Z" fill="#5C23E9"/>
<path id="Vector_164" d="M41.7119 44.4266C42.1693 43.6756 42.6215 42.9194 43.088 42.183C43.2959 41.8583 43.5545 41.5679 43.791 41.2591L44.0509 41.1271V41.5231L42.2317 44.1626L41.7119 44.4266Z" fill="#4D1BCA"/>
<path id="Vector_165" d="M44.0508 41.5231V41.1271L44.4406 40.4672C44.8058 40.0251 45.1592 39.5737 45.5412 39.1474C45.6543 39.0221 45.844 38.968 45.9999 38.8835C45.436 39.7193 44.8729 40.5552 44.3107 41.3911L44.0508 41.5231Z" fill="#4C1AC9"/>
<path id="Vector_166" d="M37.6838 48.5179V48.6499L35.085 47.726L37.6838 48.5179Z" fill="#2F0F80"/>
<path id="Vector_167" d="M17.5428 19.6146C18.3836 20.0554 18.0886 20.8565 18.1198 21.5441C18.1605 22.424 18.1808 23.3078 18.1808 24.1956C18.1808 24.8911 18.1263 25.5853 18.1237 26.2808C18.1146 28.3516 18.1237 30.4223 18.1237 32.4931C18.1133 34.5889 18.0834 36.6834 18.0691 38.7792C18.0613 39.9076 18.1769 40.1135 19.2009 40.4672C20.7901 41.0149 22.391 41.523 23.9893 42.043C24.4376 42.1882 24.8989 42.307 25.3446 42.4469L25.6045 42.7108H24.8249C24.7144 42.592 24.6247 42.4086 24.4909 42.3637C22.5262 41.721 20.5562 41.0967 18.5876 40.4672C17.9132 40.1795 17.6572 39.7017 17.6611 38.9283C17.691 32.9352 17.6715 26.942 17.6871 20.9489C17.6871 20.359 17.574 19.8733 17.1114 19.4972C16.9815 19.3902 16.819 19.2504 16.7852 19.1012C16.5254 17.9266 15.5625 17.4422 14.7062 16.8576C14.6083 16.7778 14.5174 16.6894 14.4346 16.5936L16.5137 17.7814C16.8533 18.3868 17.1963 18.9978 17.5428 19.6146Z" fill="#551CE1"/>
<path id="Vector_168" d="M22.3506 42.1829L19.8817 41.3911C19.4568 41.2195 19.0241 41.0638 18.6109 40.8632C18.4156 40.75 18.2319 40.6174 18.0625 40.4672L18.5823 40.5992C19.1358 40.8183 19.6855 41.0506 20.2456 41.2591C21.2474 41.622 22.2558 41.9665 23.2602 42.3149L22.3506 42.1829Z" fill="#4E1CCC"/>
<path id="Vector_169" d="M23.26 42.3149C22.2555 41.9612 21.2472 41.6168 20.2453 41.2591C19.6853 41.0558 19.1356 40.8236 18.582 40.5992V40.4672C20.5507 41.0968 22.5206 41.721 24.4854 42.3638C24.6153 42.4086 24.7089 42.5921 24.8193 42.7109L23.26 42.3149Z" fill="#541FDA"/>
<path id="Vector_170" d="M40.2826 44.6905C39.859 45.3504 39.5251 46.1159 38.9715 46.6372C38.7324 46.8616 38.0398 46.5857 37.5538 46.5382C37.4668 46.4498 37.381 46.3614 37.2939 46.2743H37.6838L38.0736 46.4062C38.4634 46.7256 38.6246 46.3257 38.774 46.1238C39.4536 45.2 40.0916 44.2497 40.766 43.3232C40.9064 43.1292 41.1338 43.0012 41.3222 42.8428C41.1338 43.1873 40.948 43.5344 40.7569 43.8762C40.6036 44.1507 40.4412 44.42 40.2826 44.6905Z" fill="#5E25EE"/>
<path id="Vector_171" d="M25.5988 42.7109L25.3389 42.4469H25.7287L28.3276 43.2388C30.7107 44.0377 33.093 44.8375 35.4745 45.6381C35.6523 45.7075 35.8259 45.7877 35.9942 45.8783H35.4745L34.175 45.6144C33.9141 45.4694 33.6441 45.342 33.3668 45.233C30.78 44.3857 28.1907 43.545 25.5988 42.7109Z" fill="#5C23EA"/>
<path id="Vector_172" d="M35.4746 45.8784H35.9944L37.2938 46.2743C37.3809 46.3614 37.4666 46.4498 37.5537 46.5382H37.2938L35.4746 45.8784Z" fill="#5C23E9"/>
<path id="Vector_173" d="M18.582 18.8228C20.1829 18.2949 21.7838 17.7854 23.3821 17.2601C25.2014 16.6636 27.0063 16.0578 28.819 15.4586C30.5901 14.8713 32.3587 14.2774 34.135 13.706C35.1823 13.3694 36.2401 13.0685 37.2939 12.7518L37.6837 13.2797C37.2679 13.0368 36.8768 13.0685 36.4155 13.2375C34.6768 13.8789 32.9213 14.4714 31.1645 15.0614C30.4953 15.2871 29.8053 15.4481 29.1309 15.6579C28.982 15.7265 28.843 15.8153 28.7176 15.9219L25.3391 16.9777L21.7007 18.1655C21.4551 18.2236 21.2069 18.2751 20.9639 18.3411C20.2128 18.543 19.463 18.7515 18.712 18.9574L18.582 18.8228Z" fill="#7B36FE"/>
<path id="Vector_174" d="M26.2482 15.5233C25.5985 15.8044 24.9423 16.0935 24.2835 16.3627C23.804 16.5593 23.3193 16.7454 22.8281 16.9064C22.2681 17.0899 21.6976 17.239 21.1388 17.4053C20.3592 17.6363 19.5626 17.8461 18.7999 18.1246C18.6426 18.1814 18.5738 18.4955 18.4633 18.6908V18.5588C18.4373 18.0745 18.5127 17.8013 19.1325 17.7181C19.9122 17.6152 20.6503 17.2562 21.4026 16.9962C22.5474 16.6003 23.6883 16.1911 24.8305 15.7873L26.2482 15.5233Z" fill="#7E36FE"/>
<path id="Vector_175" d="M18.7119 18.9548C19.463 18.7489 20.2128 18.5404 20.9638 18.3384C21.2068 18.2724 21.455 18.221 21.7006 18.1629C20.7832 18.5087 19.8671 18.8571 18.9445 19.1871C18.899 19.2029 18.7912 19.0366 18.7119 18.9548Z" fill="#7834FD"/>
<path id="Vector_176" d="M26.2487 15.5233L24.8193 15.7873C25.4794 15.3056 26.2331 15.1432 27.0284 15.1274L26.2487 15.5233Z" fill="#7D34FE"/>
<path id="Vector_177" d="M23.2602 42.3149L24.8195 42.7108H25.0794L26.3788 43.2387L30.667 44.6905L31.8365 45.0864C31.9222 45.1749 32.0093 45.262 32.0964 45.3504C30.8255 44.9479 29.556 44.5374 28.2812 44.1468C27.9161 44.0346 27.5327 43.9791 27.1585 43.8986H26.8986C26.2593 43.6347 25.6252 43.3562 24.978 43.1134C24.1074 42.7887 23.2264 42.4918 22.3506 42.1829L23.2602 42.3149Z" fill="#4D1BC9"/>
<path id="Vector_178" d="M32.0958 45.3504C32.0088 45.262 31.9217 45.1749 31.8359 45.0865L33.7851 45.6144L37.174 46.7877C37.3962 46.8642 37.6236 46.9302 37.8419 47.02C38.9906 47.4885 39.0959 47.4647 39.8898 46.5633C39.9685 46.4984 40.056 46.4455 40.1497 46.4063C40.0627 46.6254 39.9769 46.8458 39.8898 47.0662C39.63 47.5307 39.2245 47.6799 38.7204 47.5941L32.0958 45.3504Z" fill="#501DD0"/>
<path id="Vector_179" d="M38.7236 47.594C39.2278 47.6798 39.6332 47.5307 39.8931 47.0661L41.1926 45.0864C41.3654 44.8674 41.5382 44.647 41.7123 44.4266L42.2321 44.1626L42.1022 44.6905C41.4784 45.5127 40.8391 46.3257 40.2349 47.1638C39.7892 47.7762 39.5033 47.8844 38.7236 47.594Z" fill="#4A1AC2"/>
<path id="Vector_180" d="M51.0678 28.8531V29.1171C50.1582 29.5724 50.0283 29.5513 49.4266 28.7132C48.964 28.0665 48.5274 27.3934 48.0791 26.7415C48.4248 27.1374 48.7782 27.5241 49.1187 27.9293C49.3538 28.2117 49.5579 28.5192 49.7866 28.8069C50.2206 29.3533 50.3765 29.3573 50.9431 28.8557L51.0678 28.8531Z" fill="#823BFD"/>
<path id="Vector_181" d="M49.3785 26.2136C49.8242 26.8867 50.2881 27.5518 50.7052 28.2421C50.8052 28.4044 50.7767 28.6472 50.8078 28.8531C50.353 29.1659 50.0555 28.8426 49.832 28.5377C49.2147 27.701 48.6391 26.8339 48.0517 25.9734C48.006 25.8821 47.9715 25.7855 47.9491 25.6856C47.6892 25.2541 47.4579 24.808 47.1772 24.3936C46.5275 23.4407 45.8778 22.4944 45.1943 21.5653C45.0422 21.3568 44.7811 21.2301 44.5706 21.0664L44.1807 20.1426C44.2483 20.0607 44.386 19.967 44.373 19.901C44.2639 19.3203 43.5778 19.2055 43.4076 18.5694C43.2776 18.0863 42.6526 17.7577 42.3264 17.3024C42.1302 17.0305 42.0847 16.6425 41.9717 16.3152C42.6773 16.4604 42.7163 17.2074 43.1113 17.635C43.6389 18.2104 44.0872 18.861 44.5706 19.4827L45.9999 21.4623L47.2994 23.31L47.6892 23.838L49.3785 26.2136Z" fill="#8A3EFE"/>
<path id="Vector_182" d="M41.9715 16.3152C42.0846 16.6477 42.1301 17.0305 42.3263 17.3024C42.6524 17.7577 43.2775 18.0863 43.4074 18.5693C43.5776 19.2055 44.2637 19.3203 44.3729 19.901C44.3859 19.967 44.243 20.0607 44.1806 20.1425L43.4009 19.4826C42.5043 18.1963 41.6073 16.9113 40.7098 15.6276C40.2277 14.9399 39.7625 14.2365 39.2427 13.5938C38.9845 13.3031 38.6682 13.0719 38.3149 12.9154C37.7874 12.662 37.4131 12.3413 37.4261 11.7025H37.686C37.7146 12.2951 38.0122 12.724 38.5813 12.7847C38.8282 12.8111 39.1089 12.5129 39.3753 12.3624L39.6352 12.4944C39.9197 12.9695 40.2004 13.4459 40.4889 13.9184C40.9788 14.7143 41.4765 15.5141 41.9715 16.3152Z" fill="#893EFE"/>
<path id="Vector_183" d="M44.5703 21.0664C44.7808 21.2301 45.042 21.3568 45.194 21.5653C45.8736 22.4891 46.5312 23.4407 47.177 24.3936C47.4577 24.808 47.6968 25.2541 47.9488 25.6856C47.5785 25.2435 47.1796 24.8238 46.8456 24.3566C46.0699 23.2718 45.3266 22.1645 44.5703 21.0664Z" fill="#873EFE"/>
<path id="Vector_184" d="M43.4014 19.4827L44.181 20.1426L44.5709 21.0664L43.4014 19.4827Z" fill="#873EFE"/>
<path id="Vector_185" d="M39.3729 12.3558C39.1065 12.5063 38.8258 12.8046 38.5789 12.7782C38.0098 12.7175 37.7122 12.2885 37.6836 11.6959C38.0734 11.2063 38.51 11.2089 38.983 11.564C38.627 11.6339 38.1319 11.3462 37.9526 12.0496L38.8492 12.4456L39.1091 11.6893L39.3729 12.3558Z" fill="#8D41FD"/>
<path id="Vector_186" d="M39.1126 11.6959L38.8527 12.4522L37.9561 12.0562C38.1354 11.3528 38.6305 11.6405 38.9865 11.5706L39.1126 11.6959Z" fill="#9142FE"/>
<path id="Vector_187" d="M33.7853 45.6144L31.8362 45.0865L30.6667 44.6906C30.3285 44.5195 29.9815 44.3671 29.6271 44.2339C28.5512 43.8868 27.4649 43.574 26.3785 43.2388L25.0791 42.7109H25.5989C28.1891 43.5494 30.7784 44.3901 33.3669 45.233C33.6443 45.342 33.9143 45.4694 34.1752 45.6144H33.7853Z" fill="#541FDA"/>
<path id="Vector_188" d="M41.192 45.0851L39.8926 47.0648C39.9796 46.8444 40.0654 46.624 40.1525 46.4049C40.499 45.965 40.8455 45.5251 41.192 45.0851Z" fill="#4E1BCD"/>
<path id="Vector_189" d="M26.3789 43.2388C27.46 43.5687 28.5464 43.8868 29.6275 44.2339C29.9818 44.3671 30.3288 44.5195 30.667 44.6905L26.3789 43.2388Z" fill="#521ED6"/>
</g>
</g>
</g>
<defs>
<clipPath id="clip0_255_103">
<rect width="62" height="60" fill="white"/>
</clipPath>
</defs>
</svg>
